<?xml version="1.0" encoding="UTF-8" standalone="no"?>
<!-- Created with Inkscape (http://www.inkscape.org/) -->

<svg
   width="80"
   height="76"
   viewBox="0 0 21.166666 20.108333"
   version="1.1"
   id="svg1"
   xml:space="preserve"
   xmlns="http://www.w3.org/2000/svg"
   xmlns:svg="http://www.w3.org/2000/svg"><defs
     id="defs1" /><g
     id="layer1"><circle
       style="fill:#12487a;fill-opacity:1;stroke-width:0.21818;-inkscape-stroke:none"
       id="path1"
       cx="4.5834589"
       cy="14.623297"
       r="1.3095214" /><path
       id="path1-4"
       style="fill:#12487a;fill-opacity:1;stroke-width:0.32071;-inkscape-stroke:none"
       d="M 2.4653059,7.9079887 A 1.9249089,1.9249089 0 0 0 0.54031987,9.8324392 1.9249089,1.9249089 0 0 0 2.4653059,11.757425 1.9249089,1.9249089 0 0 0 4.3902909,9.8324392 1.9249089,1.9249089 0 0 0 2.4653059,7.9079887 Z m 0,0.7887356 a 1.1360117,1.1360117 0 0 1 1.135715,1.1357149 1.1360117,1.1360117 0 0 1 -1.135715,1.1362518 1.1360117,1.1360117 0 0 1 -1.136251,-1.1362518 1.1360117,1.1360117 0 0 1 1.136251,-1.1357149 z" /><path
       id="path1-4-8"
       style="fill:#12487a;fill-opacity:1;stroke-width:0.309511;-inkscape-stroke:none"
       d="m 16.890782,12.287596 a 1.8576933,1.8576933 0 0 0 -1.857768,1.857768 1.8576933,1.8576933 0 0 0 1.857768,1.857768 1.8576933,1.8576933 0 0 0 1.857768,-1.857768 1.8576933,1.8576933 0 0 0 -1.857768,-1.857768 z m 0,0.791683 a 1.0658896,1.0658896 0 0 1 1.066085,1.066085 1.0658896,1.0658896 0 0 1 -1.066085,1.066085 1.0658896,1.0658896 0 0 1 -1.065568,-1.066085 1.0658896,1.0658896 0 0 1 1.065568,-1.066085 z" /><circle
       style="fill:#12487a;fill-opacity:1;stroke-width:0.309511;-inkscape-stroke:none"
       id="path1-4-8-2"
       cx="16.22501"
       cy="3.9070401"
       r="1.8576933" /><path
       id="path1-4-8-2-8"
       style="fill:#12487a;fill-opacity:1;stroke-width:0.271765;-inkscape-stroke:none"
       d="M 18.90925,7.0512722 A 1.6311367,1.6311367 0 0 0 17.278404,8.6826605 1.6311367,1.6311367 0 0 0 18.90925,10.313507 1.6311367,1.6311367 0 0 0 20.540639,8.6826605 1.6311367,1.6311367 0 0 0 18.90925,7.0512722 Z m 0,0.8314331 A 0.79957688,0.79957688 0 0 1 19.708664,8.6826605 0.79957688,0.79957688 0 0 1 18.90925,9.4820737 0.79957688,0.79957688 0 0 1 18.109837,8.6826605 0.79957688,0.79957688 0 0 1 18.90925,7.8827053 Z" /><path
       id="path2"
       style="fill:#12487a;fill-opacity:1;stroke-width:0.233402;-inkscape-stroke:none"
       d="m 10.462234,0.69760544 c -0.9324041,0.004399 -1.8598061,0.169743 -2.7445361,0.47697306 0.32582,0.284652 0.532184,0.702819 0.532268,1.169438 5e-6,0.033159 -0.0016,0.066059 -0.0036,0.098702 2.9483821,-0.744388 6.1690541,0.517619 7.7266601,2.10013 0.98939,1.005208 1.467535,2.13928 1.665015,3.248897 0.227019,-0.323416 0.57362,-0.55658 0.976168,-0.634069 -0.28603,-1.153943 -0.86623,-2.357793 -1.909979,-3.558956 C 14.956517,1.5874225 12.696748,0.68706244 10.462234,0.69760544 Z M 5.1602319,2.5708755 c -0.274609,0.214792 -0.539593,0.444558 -0.790133,0.692981 -1.389404,1.377671 -2.014931,3.077591 -2.18643,4.732528 0.09191,-0.013986 0.185818,-0.021191 0.281637,-0.021187 0.327595,-1.3e-5 0.635027,0.085259 0.90227,0.234094 0.118803,-1.342879 0.570545,-2.687366 1.581299,-3.787882 0.276411,-0.30096 0.567686,-0.563662 0.868681,-0.796851 -0.348026,-0.239468 -0.593494,-0.617006 -0.657324,-1.053683 z m 12.5780431,7.130831 c -0.05964,1.1242295 -0.28974,2.1127175 -0.394808,2.7595225 l 0.761711,0.608748 c 0.248736,-0.789468 0.536684,-1.759567 0.668176,-2.84117 -0.412272,-0.03586 -0.778323,-0.2323815 -1.035079,-0.5271005 z M 3.6109719,11.294375 c -0.30897,0.242461 -0.696523,0.389221 -1.118278,0.395325 0.282251,1.045125 0.689944,1.890016 1.085722,2.354895 l 0.822172,-0.517798 c -0.290044,-0.56061 -0.583122,-1.341786 -0.789616,-2.232422 z" /><path
       id="path1-4-8-3"
       style="fill:#12487a;fill-opacity:1;stroke-width:0.268177;-inkscape-stroke:none"
       d="M 6.6970989,0.73469134 A 1.6096021,1.6096021 0 0 0 5.0872469,2.3440071 1.6096021,1.6096021 0 0 0 6.6970989,3.9538586 1.6096021,1.6096021 0 0 0 8.3064139,2.3440071 1.6096021,1.6096021 0 0 0 6.6970989,0.73469134 Z m 0,0.82045646 a 0.78902064,0.78902064 0 0 1 0.788859,0.7888593 0.78902064,0.78902064 0 0 1 -0.788859,0.7893951 0.78902064,0.78902064 0 0 1 -0.78886,-0.7893951 0.78902064,0.78902064 0 0 1 0.78886,-0.7888593 z" /><path
       style="fill:#12487a;fill-opacity:1;stroke-width:0.233402;-inkscape-stroke:none"
       d="m 4.3093709,13.587863 c 0.158984,-4.8426505 0.669986,-7.0957795 1.888146,-9.9280005 0.395901,0 0.426358,0.09136 0.395901,0.213177 -0.913618,3.837202 -1.614061,8.2530325 -1.674969,9.7452775 z"
       id="path20" /><path
       style="fill:#12487a;fill-opacity:1;stroke-width:0.233402;-inkscape-stroke:none"
       d="m 14.755089,3.7512235 c -0.913619,-0.456809 -4.050382,-1.400883 -6.6389701,-1.279068 -0.274087,0.456811 -0.06091,0.334995 -0.06091,0.487265 3.6544781,0.274084 5.6644411,0.791803 6.8521471,1.522698 0.03045,-0.395901 -0.15227,-0.730895 -0.15227,-0.730895 z"
       id="path21" /><path
       style="fill:#12487a;fill-opacity:1;stroke-width:0.233402;-inkscape-stroke:none"
       d="m 7.4156769,3.3857755 c 4.3853741,4.202652 5.2685401,4.842184 8.4053021,9.3798285 0.395901,-0.09136 0.548172,-0.334992 0.548172,-0.334992 -4.598554,-6.6085165 -6.303976,-7.4612285 -8.4662091,-9.3798305 -0.09136,0.121816 -0.487265,0.334994 -0.487265,0.334994 z"
       id="path22" /><path
       style="fill:#12487a;fill-opacity:1;stroke-width:0.233402;-inkscape-stroke:none"
       d="m 3.6089289,8.8674945 c 5.968981,-3.410847 7.7657671,-3.867658 10.9938901,-4.537644 0.15227,0.243631 0.274087,0.487262 0.274087,0.487262 -6.3953391,1.97951 -7.8266771,2.679952 -10.8720761,4.537647 -0.121816,-0.152271 -0.395901,-0.487265 -0.395901,-0.487265 z"
       id="path23" /><path
       style="fill:#12487a;fill-opacity:1;stroke-width:0.233402;-inkscape-stroke:none"
       d="m 17.648218,8.2888695 c -5.999435,-0.274087 -8.0703081,-0.365448 -13.7652041,1.096343 0.03046,0.517719 0.09136,0.6395355 0.09136,0.6395355 2.13178,-0.7613515 10.3239021,-1.4313405 13.5215721,-1.1572535 0.15227,-0.182724 0.15227,-0.578625 0.15227,-0.578625 z"
       id="path24" /><path
       style="fill:#891d1e;fill-opacity:1;stroke-width:0.233402;-inkscape-stroke:none"
       d="m 6.2888799,10.542464 1.827239,-0.03045 0.578625,0.578625 h 3.6240251 l 1.857695,1.857693 -0.791805,0.791805 -1.309521,-1.309521 H 9.2124629 v 2.131777 l 1.6749681,1.674972 -0.9288461,0.928846 -1.933829,-1.933829 v -3.319484 z"
       id="path25" /><path
       style="fill:#891d1e;fill-opacity:1;stroke-width:0.233402;-inkscape-stroke:none"
       d="m 15.279101,19.821605 -1.827239,0.03045 -0.578625,-0.578625 H 9.2492119 l -1.857695,-1.857693 0.791805,-0.791805 1.309521,1.309521 h 2.8626751 v -2.131777 l -1.674968,-1.674972 0.928846,-0.928846 1.933829,1.933829 v 3.319484 z"
       id="path25-6" /></g></svg>
