<?xml version="1.0" encoding="UTF-8"?>
<svg xmlns="http://www.w3.org/2000/svg" xmlns:xlink="http://www.w3.org/1999/xlink" width="1149.85pt" height="136.489pt" viewBox="0 0 1149.85 136.489" version="1.2">
<defs>
<clipPath id="clip1">
  <path d="M 2.070312 68 L 87 68 L 87 135.980469 L 2.070312 135.980469 Z M 2.070312 68 "/>
</clipPath>
<clipPath id="clip2">
  <path d="M 134 41 L 1146 41 L 1146 135.980469 L 134 135.980469 Z M 134 41 "/>
</clipPath>
</defs>
<g id="surface1">
<path style=" stroke:none;fill-rule:evenodd;fill:rgb(13.725281%,12.156677%,12.548828%);fill-opacity:1;" d="M 1095.910156 100.179688 C 1093.574219 100.179688 1091.675781 98.28125 1091.675781 95.941406 C 1091.675781 93.601562 1093.574219 91.707031 1095.910156 91.707031 C 1098.25 91.707031 1100.148438 93.601562 1100.148438 95.941406 C 1100.148438 98.28125 1098.25 100.179688 1095.910156 100.179688 M 1095.910156 114.523438 C 1093.574219 114.523438 1091.675781 112.628906 1091.675781 110.289062 C 1091.675781 107.949219 1093.574219 106.050781 1095.910156 106.050781 C 1098.25 106.050781 1100.148438 107.949219 1100.148438 110.289062 C 1100.148438 112.628906 1098.25 114.523438 1095.910156 114.523438 M 1081.566406 100.179688 C 1079.226562 100.179688 1077.328125 98.28125 1077.328125 95.941406 C 1077.328125 93.601562 1079.226562 91.707031 1081.566406 91.707031 C 1083.90625 91.707031 1085.800781 93.601562 1085.800781 95.941406 C 1085.800781 98.28125 1083.90625 100.179688 1081.566406 100.179688 M 1081.566406 114.523438 C 1079.226562 114.523438 1077.328125 112.628906 1077.328125 110.289062 C 1077.328125 107.949219 1079.226562 106.050781 1081.566406 106.050781 C 1083.90625 106.050781 1085.800781 107.949219 1085.800781 110.289062 C 1085.800781 112.628906 1083.90625 114.523438 1081.566406 114.523438 M 1019.152344 100.179688 C 1016.8125 100.179688 1014.917969 98.28125 1014.917969 95.941406 C 1014.917969 93.601562 1016.8125 91.707031 1019.152344 91.707031 C 1021.492188 91.707031 1023.390625 93.601562 1023.390625 95.941406 C 1023.390625 98.28125 1021.492188 100.179688 1019.152344 100.179688 M 1019.152344 114.523438 C 1016.8125 114.523438 1014.917969 112.628906 1014.917969 110.289062 C 1014.917969 107.949219 1016.8125 106.050781 1019.152344 106.050781 C 1021.492188 106.050781 1023.390625 107.949219 1023.390625 110.289062 C 1023.390625 112.628906 1021.492188 114.523438 1019.152344 114.523438 M 1004.808594 100.179688 C 1002.46875 100.179688 1000.570312 98.28125 1000.570312 95.941406 C 1000.570312 93.601562 1002.46875 91.707031 1004.808594 91.707031 C 1007.144531 91.707031 1009.042969 93.601562 1009.042969 95.941406 C 1009.042969 98.28125 1007.144531 100.179688 1004.808594 100.179688 M 1004.808594 114.523438 C 1002.46875 114.523438 1000.570312 112.628906 1000.570312 110.289062 C 1000.570312 107.949219 1002.46875 106.050781 1004.808594 106.050781 C 1007.144531 106.050781 1009.042969 107.949219 1009.042969 110.289062 C 1009.042969 112.628906 1007.144531 114.523438 1004.808594 114.523438 M 990.460938 100.179688 C 988.121094 100.179688 986.222656 98.28125 986.222656 95.941406 C 986.222656 93.601562 988.121094 91.707031 990.460938 91.707031 C 992.800781 91.707031 994.695312 93.601562 994.695312 95.941406 C 994.695312 98.28125 992.800781 100.179688 990.460938 100.179688 M 990.460938 114.523438 C 988.121094 114.523438 986.222656 112.628906 986.222656 110.289062 C 986.222656 107.949219 988.121094 106.050781 990.460938 106.050781 C 992.800781 106.050781 994.695312 107.949219 994.695312 110.289062 C 994.695312 112.628906 992.800781 114.523438 990.460938 114.523438 M 976.113281 100.179688 C 973.773438 100.179688 971.878906 98.28125 971.878906 95.941406 C 971.878906 93.601562 973.773438 91.707031 976.113281 91.707031 C 978.453125 91.707031 980.351562 93.601562 980.351562 95.941406 C 980.351562 98.28125 978.453125 100.179688 976.113281 100.179688 M 976.113281 114.523438 C 973.773438 114.523438 971.878906 112.628906 971.878906 110.289062 C 971.878906 107.949219 973.773438 106.050781 976.113281 106.050781 C 978.453125 106.050781 980.351562 107.949219 980.351562 110.289062 C 980.351562 112.628906 978.453125 114.523438 976.113281 114.523438 M 961.769531 100.179688 C 959.429688 100.179688 957.53125 98.28125 957.53125 95.941406 C 957.53125 93.601562 959.429688 91.707031 961.769531 91.707031 C 964.105469 91.707031 966.003906 93.601562 966.003906 95.941406 C 966.003906 98.28125 964.105469 100.179688 961.769531 100.179688 M 961.769531 114.523438 C 959.429688 114.523438 957.53125 112.628906 957.53125 110.289062 C 957.53125 107.949219 959.429688 106.050781 961.769531 106.050781 C 964.105469 106.050781 966.003906 107.949219 966.003906 110.289062 C 966.003906 112.628906 964.105469 114.523438 961.769531 114.523438 M 947.421875 100.179688 C 945.082031 100.179688 943.183594 98.28125 943.183594 95.941406 C 943.183594 93.601562 945.082031 91.707031 947.421875 91.707031 C 949.761719 91.707031 951.65625 93.601562 951.65625 95.941406 C 951.65625 98.28125 949.761719 100.179688 947.421875 100.179688 M 947.421875 114.523438 C 945.082031 114.523438 943.183594 112.628906 943.183594 110.289062 C 943.183594 107.949219 945.082031 106.050781 947.421875 106.050781 C 949.761719 106.050781 951.65625 107.949219 951.65625 110.289062 C 951.65625 112.628906 949.761719 114.523438 947.421875 114.523438 M 933.074219 100.179688 C 930.734375 100.179688 928.839844 98.28125 928.839844 95.941406 C 928.839844 93.601562 930.734375 91.707031 933.074219 91.707031 C 935.414062 91.707031 937.3125 93.601562 937.3125 95.941406 C 937.3125 98.28125 935.414062 100.179688 933.074219 100.179688 M 933.074219 114.523438 C 930.734375 114.523438 928.839844 112.628906 928.839844 110.289062 C 928.839844 107.949219 930.734375 106.050781 933.074219 106.050781 C 935.414062 106.050781 937.3125 107.949219 937.3125 110.289062 C 937.3125 112.628906 935.414062 114.523438 933.074219 114.523438 M 918.730469 100.179688 C 916.390625 100.179688 914.492188 98.28125 914.492188 95.941406 C 914.492188 93.601562 916.390625 91.707031 918.730469 91.707031 C 921.066406 91.707031 922.964844 93.601562 922.964844 95.941406 C 922.964844 98.28125 921.066406 100.179688 918.730469 100.179688 M 918.730469 114.523438 C 916.390625 114.523438 914.492188 112.628906 914.492188 110.289062 C 914.492188 107.949219 916.390625 106.050781 918.730469 106.050781 C 921.066406 106.050781 922.964844 107.949219 922.964844 110.289062 C 922.964844 112.628906 921.066406 114.523438 918.730469 114.523438 M 664.167969 99.753906 C 662.0625 99.753906 660.355469 98.046875 660.355469 95.941406 C 660.355469 93.835938 662.0625 92.128906 664.167969 92.128906 C 666.273438 92.128906 667.980469 93.835938 667.980469 95.941406 C 667.980469 98.046875 666.273438 99.753906 664.167969 99.753906 M 664.167969 114.101562 C 662.0625 114.101562 660.355469 112.394531 660.355469 110.289062 C 660.355469 108.183594 662.0625 106.476562 664.167969 106.476562 C 666.273438 106.476562 667.980469 108.183594 667.980469 110.289062 C 667.980469 112.394531 666.273438 114.101562 664.167969 114.101562 M 649.332031 118.785156 L 605.558594 118.785156 L 605.558594 88.566406 L 649.332031 88.566406 Z M 472.101562 117.09375 L 425.222656 117.09375 L 425.222656 76.707031 L 472.101562 76.707031 Z M 1140.234375 46.675781 C 1139.355469 45.796875 1138.144531 45.25 1136.820312 45.25 L 352.039062 45.25 L 351.835938 45.234375 C 350.539062 45.167969 349.113281 45.132812 347.695312 45.183594 C 346.34375 45.238281 344.960938 45.371094 343.644531 45.644531 C 342.585938 45.863281 341.585938 46.246094 340.679688 46.738281 L 340.679688 46.753906 C 339.660156 47.308594 338.769531 47.972656 338.0625 48.683594 L 334.332031 52.398438 C 332.003906 54.710938 330.003906 56.78125 328.003906 58.851562 C 325.988281 60.941406 323.972656 63.027344 321.554688 65.429688 L 321.507812 65.476562 C 319.808594 67.101562 317.925781 68.472656 315.867188 69.597656 C 313.832031 70.710938 311.648438 71.570312 309.320312 72.183594 L 308.308594 72.324219 L 143.417969 72.324219 C 142.1875 72.324219 141.066406 72.832031 140.25 73.644531 C 139.4375 74.460938 138.929688 75.582031 138.929688 76.8125 L 138.929688 127.398438 C 138.929688 128.628906 139.433594 129.75 140.25 130.566406 C 141.066406 131.382812 142.1875 131.886719 143.417969 131.886719 L 1136.820312 131.886719 C 1138.144531 131.886719 1139.355469 131.339844 1140.234375 130.460938 C 1141.113281 129.582031 1141.65625 128.375 1141.65625 127.046875 L 1141.65625 50.089844 C 1141.65625 48.761719 1141.113281 47.554688 1140.234375 46.675781 "/>
<g clip-path="url(#clip1)" clip-rule="nonzero">
<path style=" stroke:none;fill-rule:evenodd;fill:rgb(13.725281%,12.156677%,12.548828%);fill-opacity:1;" d="M 10.648438 68.339844 L 78.289062 68.339844 C 82.949219 68.339844 86.761719 72.152344 86.761719 76.8125 L 86.761719 127.398438 C 86.761719 132.0625 82.949219 135.871094 78.289062 135.871094 L 10.648438 135.871094 C 5.988281 135.871094 2.175781 132.0625 2.175781 127.398438 L 2.175781 76.8125 C 2.175781 72.152344 5.988281 68.339844 10.648438 68.339844 "/>
<path style=" stroke:none;fill-rule:evenodd;fill:rgb(54.902649%,82.745361%,87.451172%);fill-opacity:1;" d="M 10.648438 68.339844 L 78.289062 68.339844 C 82.949219 68.339844 86.761719 72.152344 86.761719 76.8125 L 86.761719 127.398438 C 86.761719 132.0625 82.949219 135.871094 78.289062 135.871094 L 10.648438 135.871094 C 5.988281 135.871094 2.175781 132.0625 2.175781 127.398438 L 2.175781 76.8125 C 2.175781 72.152344 5.988281 68.339844 10.648438 68.339844 M 78.289062 72.324219 L 10.648438 72.324219 C 9.417969 72.324219 8.296875 72.832031 7.484375 73.644531 C 6.667969 74.460938 6.160156 75.582031 6.160156 76.8125 L 6.160156 127.398438 C 6.160156 128.628906 6.667969 129.75 7.484375 130.566406 C 8.296875 131.382812 9.417969 131.886719 10.648438 131.886719 L 78.289062 131.886719 C 79.519531 131.886719 80.640625 131.382812 81.457031 130.566406 C 82.269531 129.75 82.777344 128.628906 82.777344 127.398438 L 82.777344 76.8125 C 82.777344 75.582031 82.269531 74.460938 81.457031 73.644531 C 80.640625 72.832031 79.519531 72.324219 78.289062 72.324219 "/>
</g>
<path style=" stroke:none;fill-rule:nonzero;fill:rgb(100%,100%,100%);fill-opacity:1;" d="M 36.621094 105.632812 L 36.621094 93.65625 C 37.371094 93.65625 38.117188 93.652344 38.855469 93.65625 C 40.359375 93.660156 40.722656 93.941406 41.363281 94.882812 C 42.652344 96.785156 44.085938 98.59375 45.460938 100.441406 C 45.582031 100.605469 45.710938 100.761719 45.882812 100.976562 C 46.539062 100.09375 47.167969 99.253906 47.792969 98.410156 C 48.871094 96.964844 49.957031 95.519531 51.015625 94.0625 C 51.234375 93.761719 51.460938 93.65625 51.84375 93.65625 C 52.902344 93.65625 53.980469 93.65625 55.121094 93.65625 L 55.121094 107.648438 L 63.421875 107.648438 C 62.695312 108.652344 62.082031 109.550781 61.40625 110.398438 C 61.238281 110.605469 60.855469 110.746094 60.566406 110.742188 L 52.03125 110.738281 C 51.976562 110.738281 51.929688 110.71875 51.828125 110.683594 L 51.828125 98.601562 C 51.789062 98.578125 51.746094 98.554688 51.707031 98.535156 C 51.578125 98.699219 51.441406 98.855469 51.3125 99.019531 C 49.683594 101.144531 48.058594 103.269531 46.425781 105.390625 C 45.96875 105.988281 45.609375 105.984375 45.160156 105.378906 C 43.582031 103.269531 42.003906 101.160156 40.425781 99.050781 C 40.296875 98.878906 40.15625 98.714844 39.929688 98.429688 L 39.929688 105.636719 C 38.820312 105.632812 37.761719 105.632812 36.621094 105.632812 "/>
<path style=" stroke:none;fill-rule:nonzero;fill:rgb(100%,100%,100%);fill-opacity:1;" d="M 33.457031 96.773438 L 32.78125 96.773438 C 29.835938 96.773438 26.886719 96.769531 23.941406 96.773438 C 20.746094 96.777344 18.28125 99.132812 18.261719 102.183594 C 18.242188 105.160156 20.800781 107.640625 23.929688 107.644531 C 29.003906 107.65625 34.074219 107.648438 39.148438 107.648438 L 39.828125 107.648438 C 40.007812 109.257812 38.566406 110.738281 36.792969 110.738281 L 28.949219 110.738281 C 27.246094 110.738281 25.546875 110.746094 23.84375 110.738281 C 18.933594 110.722656 15.089844 106.988281 15.054688 102.171875 C 15.019531 97.601562 18.988281 93.710938 23.761719 93.660156 C 25.972656 93.632812 28.238281 93.65625 30.394531 93.660156 C 32.1875 93.660156 33.601562 95.105469 33.457031 96.773438 "/>
<path style=" stroke:none;fill-rule:nonzero;fill:rgb(100%,100%,100%);fill-opacity:1;" d="M 57.695312 93.65625 L 61.082031 93.65625 C 61.253906 93.65625 61.484375 93.886719 61.597656 94.050781 C 62.828125 95.820312 64.039062 97.601562 65.257812 99.378906 C 65.386719 99.5625 65.519531 99.742188 65.6875 99.980469 C 65.859375 99.75 66.007812 99.5625 66.144531 99.367188 C 67.351562 97.609375 68.550781 95.84375 69.769531 94.089844 C 69.886719 93.917969 70.089844 93.65625 70.253906 93.65625 L 73.664062 93.65625 C 73.480469 93.945312 73.355469 94.148438 73.21875 94.347656 C 71.53125 96.757812 69.851562 99.171875 68.144531 101.570312 C 67.863281 101.964844 67.839844 102.226562 68.132812 102.636719 C 69.945312 105.164062 71.722656 107.710938 73.511719 110.253906 C 73.601562 110.382812 73.667969 110.5 73.824219 110.738281 L 70.308594 110.738281 C 70.144531 110.730469 69.960938 110.472656 69.839844 110.300781 C 68.472656 108.347656 67.117188 106.394531 65.722656 104.394531 C 65.59375 104.546875 65.460938 104.652344 65.398438 104.789062 C 65.046875 105.535156 64.492188 105.699219 63.644531 105.714844 C 62.8125 105.730469 61.046875 105.699219 61.046875 105.699219 C 61.675781 104.808594 62.226562 104.023438 62.785156 103.238281 C 63.585938 102.109375 63.585938 102.113281 62.785156 100.96875 C 61.121094 98.574219 59.453125 96.179688 57.695312 93.65625 "/>
<path style=" stroke:none;fill-rule:nonzero;fill:rgb(55.686951%,83.529663%,87.843323%);fill-opacity:1;" d="M 33.460938 100.132812 L 33.460938 104.292969 L 32.703125 104.292969 C 29.65625 104.292969 26.605469 104.296875 23.558594 104.292969 C 22.351562 104.292969 21.835938 103.785156 21.832031 102.605469 C 21.832031 102.238281 21.820312 101.867188 21.835938 101.496094 C 21.871094 100.753906 22.382812 100.148438 23.125 100.144531 C 26.546875 100.117188 29.972656 100.132812 33.460938 100.132812 "/>
<path style=" stroke:none;fill-rule:evenodd;fill:rgb(100%,100%,100%);fill-opacity:1;" d="M 160.792969 95.832031 L 165.453125 94.253906 L 168.800781 94.253906 L 165.859375 110.992188 L 162.035156 110.992188 L 164.234375 98.4375 L 161.148438 99.25 Z M 175.257812 111.328125 C 173.089844 111.328125 171.511719 110.496094 170.523438 108.839844 C 169.550781 107.183594 169.296875 105.03125 169.757812 102.382812 C 170.203125 99.785156 171.144531 97.722656 172.578125 96.191406 C 174 94.675781 175.75 93.917969 177.839844 93.917969 C 179.992188 93.917969 181.5625 94.757812 182.550781 96.429688 C 183.523438 98.054688 183.777344 100.199219 183.316406 102.863281 C 182.867188 105.460938 181.929688 107.523438 180.492188 109.054688 C 179.074219 110.570312 177.328125 111.328125 175.257812 111.328125 M 175.664062 107.597656 C 177.625 107.597656 178.898438 105.9375 179.488281 102.621094 C 180.078125 99.308594 179.386719 97.648438 177.410156 97.648438 C 175.449219 97.648438 174.171875 99.308594 173.582031 102.621094 C 172.992188 105.9375 173.6875 107.597656 175.664062 107.597656 M 196.824219 111.253906 C 200.148438 111.253906 202.324219 109.4375 202.324219 106.664062 C 202.324219 103.769531 199.742188 102.839844 196.777344 101.859375 C 194.386719 101.070312 192.6875 100.445312 192.6875 98.4375 C 192.6875 96.574219 194.148438 95.210938 196.464844 95.210938 C 198.855469 95.210938 200.148438 96.597656 200.769531 98.105469 L 201.847656 97.507812 C 201.03125 95.570312 199.214844 93.992188 196.464844 93.992188 C 193.621094 93.992188 191.398438 95.738281 191.398438 98.488281 C 191.398438 101.402344 193.90625 102.191406 196.707031 103.101562 C 199.261719 103.914062 201.03125 104.679688 201.03125 106.6875 C 201.03125 108.601562 199.621094 110.035156 196.824219 110.035156 C 194.074219 110.035156 192.378906 108.671875 191.804688 106.664062 L 190.703125 107.308594 C 191.46875 109.675781 193.691406 111.253906 196.824219 111.253906 M 210.90625 98.773438 C 207.25 98.773438 204.714844 101.5 204.714844 105.015625 C 204.714844 108.625 207.320312 111.253906 211.003906 111.253906 C 213.371094 111.253906 215.234375 110.179688 216.214844 108.550781 L 215.164062 107.929688 C 214.46875 109.199219 212.988281 110.105469 211.027344 110.105469 C 208.300781 110.105469 206.246094 108.335938 205.957031 105.636719 L 216.789062 105.636719 C 216.789062 105.445312 216.8125 105.253906 216.8125 105.0625 C 216.8125 101.785156 214.542969 98.773438 210.90625 98.773438 M 210.90625 99.921875 C 213.25 99.921875 215.308594 101.546875 215.570312 104.464844 L 205.957031 104.464844 C 206.199219 101.808594 208.183594 99.921875 210.90625 99.921875 M 220.808594 101.378906 L 220.808594 99.035156 L 219.613281 99.035156 L 219.613281 110.992188 L 220.808594 110.992188 L 220.808594 104.34375 C 220.808594 101.285156 222.742188 100.015625 224.800781 100.015625 L 224.800781 98.867188 C 223.175781 98.867188 221.621094 99.492188 220.808594 101.378906 M 227.8125 96.144531 C 228.339844 96.144531 228.769531 95.710938 228.769531 95.1875 C 228.769531 94.683594 228.339844 94.253906 227.8125 94.253906 C 227.285156 94.253906 226.855469 94.683594 226.855469 95.1875 C 226.855469 95.710938 227.285156 96.144531 227.8125 96.144531 M 227.214844 110.992188 L 228.410156 110.992188 L 228.410156 99.035156 L 227.214844 99.035156 Z M 237.472656 98.773438 C 233.8125 98.773438 231.28125 101.5 231.28125 105.015625 C 231.28125 108.625 233.886719 111.253906 237.566406 111.253906 C 239.933594 111.253906 241.800781 110.179688 242.78125 108.550781 L 241.730469 107.929688 C 241.035156 109.199219 239.554688 110.105469 237.59375 110.105469 C 234.867188 110.105469 232.808594 108.335938 232.523438 105.636719 L 243.355469 105.636719 C 243.355469 105.445312 243.378906 105.253906 243.378906 105.0625 C 243.378906 101.785156 241.105469 98.773438 237.472656 98.773438 M 237.472656 99.921875 C 239.816406 99.921875 241.871094 101.546875 242.136719 104.464844 L 232.523438 104.464844 C 232.761719 101.808594 234.746094 99.921875 237.472656 99.921875 M 246.511719 102.167969 C 246.511719 100.734375 247.824219 99.921875 249.378906 99.921875 C 250.695312 99.921875 251.9375 100.496094 252.441406 101.738281 L 253.445312 101.164062 C 252.800781 99.707031 251.316406 98.773438 249.378906 98.773438 C 246.941406 98.773438 245.316406 100.28125 245.316406 102.167969 C 245.316406 106.472656 252.558594 104.609375 252.558594 107.859375 C 252.558594 109.367188 251.148438 110.105469 249.476562 110.105469 C 247.683594 110.105469 246.390625 109.292969 245.960938 108.003906 L 244.933594 108.601562 C 245.507812 110.128906 247.085938 111.253906 249.476562 111.253906 C 252.035156 111.253906 253.753906 109.820312 253.753906 107.859375 C 253.753906 103.484375 246.511719 105.371094 246.511719 102.167969 "/>
<path style=" stroke:none;fill-rule:evenodd;fill:rgb(100%,100%,100%);fill-opacity:1;" d="M 919.191406 87.691406 L 918.097656 87.691406 L 918.097656 83.558594 C 917.699219 83.933594 917.230469 84.210938 916.6875 84.390625 L 916.6875 83.394531 C 916.972656 83.300781 917.28125 83.125 917.617188 82.863281 C 917.949219 82.601562 918.179688 82.296875 918.304688 81.953125 L 919.191406 81.953125 Z M 919.191406 87.691406 "/>
<path style=" stroke:none;fill-rule:evenodd;fill:rgb(100%,100%,100%);fill-opacity:1;" d="M 919.855469 123.402344 L 919.855469 124.414062 L 916.023438 124.414062 C 916.0625 124.027344 916.1875 123.664062 916.394531 123.320312 C 916.601562 122.976562 917.011719 122.519531 917.625 121.949219 C 918.117188 121.488281 918.417969 121.175781 918.527344 121.011719 C 918.679688 120.789062 918.753906 120.5625 918.753906 120.34375 C 918.753906 120.097656 918.691406 119.910156 918.558594 119.78125 C 918.429688 119.648438 918.25 119.582031 918.019531 119.582031 C 917.789062 119.582031 917.609375 119.652344 917.472656 119.789062 C 917.339844 119.925781 917.261719 120.15625 917.242188 120.476562 L 916.148438 120.367188 C 916.214844 119.761719 916.417969 119.332031 916.761719 119.066406 C 917.101562 118.804688 917.53125 118.675781 918.046875 118.675781 C 918.609375 118.675781 919.050781 118.828125 919.371094 119.132812 C 919.695312 119.433594 919.855469 119.8125 919.855469 120.265625 C 919.855469 120.523438 919.808594 120.769531 919.714844 121.003906 C 919.625 121.234375 919.480469 121.480469 919.277344 121.734375 C 919.148438 121.902344 918.90625 122.148438 918.5625 122.464844 C 918.214844 122.78125 917.996094 122.992188 917.90625 123.097656 C 917.8125 123.199219 917.734375 123.300781 917.679688 123.402344 Z M 919.855469 123.402344 "/>
<path style=" stroke:none;fill-rule:evenodd;fill:rgb(100%,100%,100%);fill-opacity:1;" d="M 1017.148438 87.691406 L 1016.058594 87.691406 L 1016.058594 83.558594 C 1015.660156 83.933594 1015.1875 84.210938 1014.644531 84.390625 L 1014.644531 83.394531 C 1014.933594 83.300781 1015.242188 83.125 1015.574219 82.863281 C 1015.910156 82.601562 1016.136719 82.296875 1016.261719 81.953125 L 1017.148438 81.953125 Z M 1018.800781 86.226562 L 1019.890625 86.113281 C 1019.921875 86.359375 1020.015625 86.554688 1020.167969 86.699219 C 1020.320312 86.84375 1020.5 86.917969 1020.699219 86.917969 C 1020.929688 86.917969 1021.121094 86.824219 1021.28125 86.636719 C 1021.4375 86.449219 1021.519531 86.167969 1021.519531 85.792969 C 1021.519531 85.4375 1021.441406 85.175781 1021.28125 85 C 1021.125 84.820312 1020.921875 84.734375 1020.667969 84.734375 C 1020.351562 84.734375 1020.070312 84.871094 1019.820312 85.148438 L 1018.933594 85.019531 L 1019.492188 82.054688 L 1022.386719 82.054688 L 1022.386719 83.074219 L 1020.324219 83.074219 L 1020.152344 84.046875 C 1020.394531 83.925781 1020.644531 83.863281 1020.898438 83.863281 C 1021.386719 83.863281 1021.796875 84.039062 1022.132812 84.394531 C 1022.472656 84.75 1022.640625 85.210938 1022.640625 85.773438 C 1022.640625 86.246094 1022.503906 86.667969 1022.234375 87.035156 C 1021.859375 87.542969 1021.34375 87.792969 1020.6875 87.792969 C 1020.160156 87.792969 1019.726562 87.652344 1019.398438 87.371094 C 1019.0625 87.085938 1018.867188 86.703125 1018.800781 86.226562 "/>
<path style=" stroke:none;fill-rule:evenodd;fill:rgb(100%,100%,100%);fill-opacity:1;" d="M 1017.152344 124.359375 L 1016.0625 124.359375 L 1016.0625 120.230469 C 1015.664062 120.605469 1015.191406 120.882812 1014.652344 121.0625 L 1014.652344 120.066406 C 1014.9375 119.972656 1015.246094 119.796875 1015.578125 119.535156 C 1015.914062 119.273438 1016.140625 118.96875 1016.265625 118.621094 L 1017.152344 118.621094 Z M 1022.496094 120.050781 L 1021.433594 120.167969 C 1021.410156 119.949219 1021.339844 119.789062 1021.234375 119.6875 C 1021.125 119.582031 1020.984375 119.53125 1020.808594 119.53125 C 1020.578125 119.53125 1020.382812 119.636719 1020.222656 119.84375 C 1020.0625 120.050781 1019.964844 120.480469 1019.921875 121.136719 C 1020.195312 120.816406 1020.53125 120.65625 1020.9375 120.65625 C 1021.394531 120.65625 1021.785156 120.828125 1022.109375 121.175781 C 1022.4375 121.527344 1022.597656 121.976562 1022.597656 122.527344 C 1022.597656 123.109375 1022.425781 123.582031 1022.082031 123.933594 C 1021.742188 124.289062 1021.300781 124.464844 1020.765625 124.464844 C 1020.191406 124.464844 1019.714844 124.242188 1019.34375 123.792969 C 1018.972656 123.34375 1018.789062 122.609375 1018.789062 121.585938 C 1018.789062 120.535156 1018.980469 119.78125 1019.367188 119.316406 C 1019.753906 118.855469 1020.257812 118.621094 1020.875 118.621094 C 1021.308594 118.621094 1021.667969 118.746094 1021.953125 118.988281 C 1022.234375 119.230469 1022.417969 119.585938 1022.496094 120.050781 M 1020.015625 122.441406 C 1020.015625 122.796875 1020.097656 123.070312 1020.261719 123.265625 C 1020.425781 123.460938 1020.609375 123.554688 1020.824219 123.554688 C 1021.023438 123.554688 1021.191406 123.476562 1021.328125 123.316406 C 1021.460938 123.160156 1021.53125 122.898438 1021.53125 122.535156 C 1021.53125 122.164062 1021.457031 121.894531 1021.3125 121.71875 C 1021.167969 121.546875 1020.984375 121.460938 1020.769531 121.460938 C 1020.554688 121.460938 1020.378906 121.542969 1020.234375 121.707031 C 1020.089844 121.875 1020.015625 122.117188 1020.015625 122.441406 "/>
<path style="fill:none;stroke-width:1.5;stroke-linecap:butt;stroke-linejoin:miter;stroke:rgb(100%,100%,100%);stroke-opacity:1;stroke-miterlimit:2.613;" d="M -0.00171268 -0.00184038 L 122.996123 -0.00184038 L 122.996123 69.099653 C 122.996123 73.777257 119.169349 77.60403 114.495667 77.60403 L 8.502664 77.60403 C 3.825061 77.60403 -0.00171268 73.777257 -0.00171268 69.099653 Z M -0.00171268 -0.00184038 " transform="matrix(0.99627,0,0,-0.99627,907.513425,127.740354)"/>
<path style=" stroke:none;fill-rule:evenodd;fill:rgb(100%,100%,100%);fill-opacity:1;" d="M 942.695312 55.839844 L 995.1875 55.839844 L 995.1875 64.933594 L 942.695312 64.933594 Z M 942.695312 55.839844 "/>
<path style=" stroke:none;fill-rule:evenodd;fill:rgb(0%,0%,0.392151%);fill-opacity:1;" d="M 953.035156 63.203125 L 953.035156 57.496094 L 957.257812 57.496094 L 957.257812 58.460938 L 954.191406 58.460938 L 954.191406 59.730469 L 957.042969 59.730469 L 957.042969 60.691406 L 954.191406 60.691406 L 954.191406 62.238281 L 957.371094 62.238281 L 957.371094 63.203125 Z M 960.902344 63.203125 L 959.808594 63.203125 L 959.808594 59.074219 C 959.410156 59.445312 958.941406 59.722656 958.398438 59.902344 L 958.398438 58.90625 C 958.683594 58.816406 958.992188 58.636719 959.328125 58.375 C 959.660156 58.117188 959.890625 57.8125 960.015625 57.464844 L 960.902344 57.464844 Z M 965.027344 63.203125 L 965.027344 57.542969 L 966.183594 57.542969 L 966.183594 62.238281 L 969.046875 62.238281 L 969.046875 63.203125 Z M 969.855469 57.496094 L 970.949219 57.496094 L 970.949219 58.507812 L 969.855469 58.507812 Z M 969.855469 59.066406 L 970.949219 59.066406 L 970.949219 63.203125 L 969.855469 63.203125 Z M 975.832031 63.203125 L 974.742188 63.203125 L 974.742188 61.09375 C 974.742188 60.648438 974.71875 60.359375 974.671875 60.230469 C 974.625 60.097656 974.546875 60 974.441406 59.925781 C 974.335938 59.851562 974.207031 59.816406 974.058594 59.816406 C 973.867188 59.816406 973.695312 59.867188 973.546875 59.972656 C 973.390625 60.074219 973.289062 60.214844 973.234375 60.382812 C 973.175781 60.554688 973.148438 60.871094 973.148438 61.332031 L 973.148438 63.203125 L 972.054688 63.203125 L 972.054688 59.066406 L 973.066406 59.066406 L 973.066406 59.671875 C 973.429688 59.210938 973.886719 58.980469 974.4375 58.980469 C 974.679688 58.980469 974.902344 59.023438 975.101562 59.109375 C 975.304688 59.199219 975.457031 59.308594 975.558594 59.441406 C 975.660156 59.578125 975.734375 59.730469 975.773438 59.902344 C 975.8125 60.074219 975.832031 60.316406 975.832031 60.636719 Z M 976.902344 63.203125 L 976.902344 57.496094 L 977.992188 57.496094 L 977.992188 60.523438 L 979.273438 59.066406 L 980.617188 59.066406 L 979.207031 60.578125 L 980.722656 63.203125 L 979.542969 63.203125 L 978.5 61.335938 L 977.992188 61.878906 L 977.992188 63.203125 Z M 980.984375 62.039062 L 982.082031 61.871094 C 982.128906 62.082031 982.222656 62.246094 982.367188 62.355469 C 982.507812 62.464844 982.710938 62.519531 982.964844 62.519531 C 983.25 62.519531 983.460938 62.464844 983.605469 62.363281 C 983.699219 62.289062 983.75 62.191406 983.75 62.070312 C 983.75 61.984375 983.722656 61.917969 983.667969 61.863281 C 983.617188 61.8125 983.492188 61.761719 983.304688 61.71875 C 982.421875 61.523438 981.863281 61.34375 981.625 61.183594 C 981.296875 60.960938 981.132812 60.648438 981.132812 60.25 C 981.132812 59.890625 981.277344 59.589844 981.558594 59.347656 C 981.84375 59.101562 982.28125 58.980469 982.875 58.980469 C 983.441406 58.980469 983.859375 59.074219 984.136719 59.257812 C 984.410156 59.441406 984.601562 59.714844 984.703125 60.078125 L 983.675781 60.269531 C 983.632812 60.109375 983.546875 59.984375 983.425781 59.898438 C 983.300781 59.8125 983.125 59.769531 982.894531 59.769531 C 982.605469 59.769531 982.398438 59.808594 982.269531 59.890625 C 982.1875 59.945312 982.144531 60.019531 982.144531 60.109375 C 982.144531 60.191406 982.183594 60.253906 982.253906 60.308594 C 982.355469 60.382812 982.695312 60.484375 983.28125 60.617188 C 983.863281 60.75 984.273438 60.914062 984.503906 61.105469 C 984.734375 61.300781 984.847656 61.574219 984.847656 61.921875 C 984.847656 62.300781 984.691406 62.625 984.371094 62.898438 C 984.054688 63.167969 983.585938 63.308594 982.964844 63.308594 C 982.402344 63.308594 981.957031 63.191406 981.628906 62.964844 C 981.296875 62.738281 981.082031 62.429688 980.984375 62.039062 "/>
<path style="fill:none;stroke-width:1.5;stroke-linecap:butt;stroke-linejoin:miter;stroke:rgb(100%,100%,100%);stroke-opacity:1;stroke-miterlimit:2.613;" d="M 0.000909615 -0.00184038 L 35.175075 -0.00184038 L 35.175075 69.562316 C 35.175075 73.985063 31.556108 77.60403 27.133362 77.60403 L 8.042623 77.60403 C 3.619877 77.60403 0.000909615 73.985063 0.000909615 69.562316 Z M 0.000909615 -0.00184038 " transform="matrix(0.99627,0,0,-0.99627,1070.635813,127.740354)"/>
<path style=" stroke:none;fill-rule:evenodd;fill:rgb(100%,100%,100%);fill-opacity:1;" d="M 1077.90625 124.335938 L 1077.90625 118.675781 L 1079.058594 118.675781 L 1079.058594 123.371094 L 1081.921875 123.371094 L 1081.921875 124.335938 Z M 1082.386719 123.199219 L 1083.183594 123.101562 C 1083.207031 123.304688 1083.273438 123.460938 1083.386719 123.570312 C 1083.496094 123.675781 1083.628906 123.730469 1083.785156 123.730469 C 1083.953125 123.730469 1084.09375 123.664062 1084.210938 123.539062 C 1084.324219 123.410156 1084.382812 123.234375 1084.382812 123.015625 C 1084.382812 122.808594 1084.328125 122.644531 1084.21875 122.523438 C 1084.109375 122.40625 1083.972656 122.34375 1083.8125 122.34375 C 1083.707031 122.34375 1083.585938 122.363281 1083.4375 122.40625 L 1083.53125 121.738281 C 1083.75 121.746094 1083.917969 121.695312 1084.035156 121.59375 C 1084.152344 121.492188 1084.210938 121.355469 1084.210938 121.1875 C 1084.210938 121.042969 1084.167969 120.925781 1084.082031 120.839844 C 1083.996094 120.753906 1083.882812 120.710938 1083.738281 120.710938 C 1083.597656 120.710938 1083.480469 120.761719 1083.382812 120.859375 C 1083.28125 120.957031 1083.222656 121.097656 1083.199219 121.285156 L 1082.445312 121.15625 C 1082.5 120.894531 1082.578125 120.6875 1082.683594 120.53125 C 1082.789062 120.375 1082.9375 120.253906 1083.128906 120.164062 C 1083.316406 120.074219 1083.53125 120.03125 1083.765625 120.03125 C 1084.167969 120.03125 1084.492188 120.160156 1084.734375 120.417969 C 1084.933594 120.628906 1085.035156 120.867188 1085.035156 121.132812 C 1085.035156 121.511719 1084.828125 121.8125 1084.417969 122.035156 C 1084.664062 122.089844 1084.859375 122.207031 1085.007812 122.390625 C 1085.152344 122.574219 1085.226562 122.792969 1085.226562 123.054688 C 1085.226562 123.429688 1085.085938 123.75 1084.816406 124.015625 C 1084.539062 124.28125 1084.199219 124.410156 1083.789062 124.410156 C 1083.40625 124.410156 1083.085938 124.300781 1082.832031 124.078125 C 1082.574219 123.851562 1082.429688 123.5625 1082.386719 123.199219 "/>
<path style=" stroke:none;fill-rule:evenodd;fill:rgb(100%,100%,100%);fill-opacity:1;" d="M 1092.191406 124.371094 L 1092.191406 118.714844 L 1093.347656 118.714844 L 1093.347656 123.410156 L 1096.207031 123.410156 L 1096.207031 124.371094 Z M 1098.304688 124.371094 L 1098.304688 123.511719 L 1096.558594 123.511719 L 1096.558594 122.796875 L 1098.410156 120.074219 L 1099.101562 120.074219 L 1099.101562 122.792969 L 1099.632812 122.792969 L 1099.632812 123.511719 L 1099.101562 123.511719 L 1099.101562 124.371094 Z M 1098.304688 122.792969 L 1098.304688 121.332031 L 1097.328125 122.792969 Z M 1098.304688 122.792969 "/>
<path style=" stroke:none;fill-rule:evenodd;fill:rgb(100%,100%,100%);fill-opacity:1;" d="M 1092.273438 87.703125 L 1092.273438 82.042969 L 1093.425781 82.042969 L 1093.425781 86.738281 L 1096.289062 86.738281 L 1096.289062 87.703125 Z M 1099.550781 86.941406 L 1099.550781 87.703125 L 1096.675781 87.703125 C 1096.707031 87.414062 1096.800781 87.140625 1096.957031 86.882812 C 1097.113281 86.625 1097.417969 86.28125 1097.878906 85.855469 C 1098.246094 85.507812 1098.472656 85.273438 1098.554688 85.152344 C 1098.671875 84.984375 1098.726562 84.816406 1098.726562 84.648438 C 1098.726562 84.464844 1098.675781 84.324219 1098.578125 84.226562 C 1098.480469 84.128906 1098.347656 84.078125 1098.171875 84.078125 C 1098 84.078125 1097.867188 84.132812 1097.765625 84.234375 C 1097.664062 84.335938 1097.605469 84.507812 1097.589844 84.75 L 1096.773438 84.667969 C 1096.820312 84.214844 1096.972656 83.890625 1097.230469 83.691406 C 1097.488281 83.496094 1097.808594 83.398438 1098.195312 83.398438 C 1098.617188 83.398438 1098.945312 83.511719 1099.1875 83.742188 C 1099.429688 83.96875 1099.550781 84.253906 1099.550781 84.59375 C 1099.550781 84.785156 1099.515625 84.96875 1099.449219 85.144531 C 1099.378906 85.320312 1099.269531 85.5 1099.121094 85.691406 C 1099.019531 85.820312 1098.839844 86.003906 1098.582031 86.242188 C 1098.320312 86.480469 1098.15625 86.636719 1098.089844 86.714844 C 1098.019531 86.792969 1097.960938 86.871094 1097.917969 86.941406 Z M 1099.550781 86.941406 "/>
<path style=" stroke:none;fill-rule:evenodd;fill:rgb(100%,100%,100%);fill-opacity:1;" d="M 1078.460938 87.703125 L 1078.460938 82.042969 L 1079.613281 82.042969 L 1079.613281 86.738281 L 1082.476562 86.738281 L 1082.476562 87.703125 Z M 1085.0625 87.703125 L 1084.246094 87.703125 L 1084.246094 84.605469 C 1083.945312 84.882812 1083.59375 85.09375 1083.1875 85.226562 L 1083.1875 84.480469 C 1083.402344 84.410156 1083.632812 84.277344 1083.882812 84.082031 C 1084.132812 83.886719 1084.304688 83.65625 1084.398438 83.398438 L 1085.0625 83.398438 Z M 1085.0625 87.703125 "/>
<path style=" stroke:none;fill-rule:evenodd;fill:rgb(100%,100%,100%);fill-opacity:1;" d="M 1073.703125 55.839844 L 1102.613281 55.839844 L 1102.613281 64.933594 L 1073.703125 64.933594 Z M 1073.703125 55.839844 "/>
<path style=" stroke:none;fill-rule:evenodd;fill:rgb(0%,0%,0.392151%);fill-opacity:1;" d="M 1076.308594 61.390625 L 1077.433594 61.277344 C 1077.5 61.65625 1077.636719 61.929688 1077.84375 62.105469 C 1078.046875 62.28125 1078.328125 62.371094 1078.675781 62.371094 C 1079.042969 62.371094 1079.324219 62.292969 1079.511719 62.136719 C 1079.699219 61.980469 1079.792969 61.796875 1079.792969 61.585938 C 1079.792969 61.449219 1079.753906 61.335938 1079.675781 61.238281 C 1079.597656 61.144531 1079.457031 61.0625 1079.261719 60.996094 C 1079.128906 60.945312 1078.820312 60.863281 1078.34375 60.746094 C 1077.730469 60.589844 1077.296875 60.402344 1077.046875 60.179688 C 1076.699219 59.863281 1076.523438 59.476562 1076.523438 59.027344 C 1076.523438 58.734375 1076.605469 58.460938 1076.769531 58.207031 C 1076.9375 57.953125 1077.171875 57.761719 1077.480469 57.628906 C 1077.792969 57.496094 1078.164062 57.429688 1078.601562 57.429688 C 1079.316406 57.429688 1079.851562 57.585938 1080.210938 57.90625 C 1080.574219 58.222656 1080.761719 58.644531 1080.78125 59.175781 L 1079.625 59.214844 C 1079.578125 58.917969 1079.472656 58.707031 1079.3125 58.578125 C 1079.148438 58.449219 1078.910156 58.386719 1078.585938 58.386719 C 1078.253906 58.386719 1077.996094 58.453125 1077.808594 58.59375 C 1077.6875 58.679688 1077.625 58.800781 1077.625 58.949219 C 1077.625 59.082031 1077.683594 59.199219 1077.796875 59.296875 C 1077.941406 59.417969 1078.292969 59.546875 1078.851562 59.679688 C 1079.410156 59.8125 1079.824219 59.949219 1080.09375 60.089844 C 1080.359375 60.230469 1080.570312 60.425781 1080.722656 60.671875 C 1080.871094 60.917969 1080.949219 61.21875 1080.949219 61.578125 C 1080.949219 61.90625 1080.859375 62.210938 1080.675781 62.5 C 1080.496094 62.785156 1080.238281 62.996094 1079.90625 63.132812 C 1079.574219 63.273438 1079.160156 63.34375 1078.664062 63.34375 C 1077.941406 63.34375 1077.390625 63.175781 1077 62.84375 C 1076.617188 62.511719 1076.386719 62.027344 1076.308594 61.390625 M 1083.808594 59.101562 L 1083.808594 59.972656 L 1083.0625 59.972656 L 1083.0625 61.644531 C 1083.0625 61.988281 1083.066406 62.183594 1083.082031 62.238281 C 1083.097656 62.296875 1083.128906 62.34375 1083.179688 62.378906 C 1083.230469 62.414062 1083.292969 62.433594 1083.363281 62.433594 C 1083.46875 62.433594 1083.613281 62.398438 1083.804688 62.328125 L 1083.898438 63.179688 C 1083.644531 63.289062 1083.355469 63.34375 1083.035156 63.34375 C 1082.839844 63.34375 1082.664062 63.308594 1082.503906 63.242188 C 1082.34375 63.175781 1082.230469 63.089844 1082.15625 62.984375 C 1082.082031 62.878906 1082.03125 62.738281 1082.003906 62.558594 C 1081.980469 62.429688 1081.96875 62.171875 1081.96875 61.78125 L 1081.96875 59.972656 L 1081.464844 59.972656 L 1081.464844 59.101562 L 1081.96875 59.101562 L 1081.96875 58.28125 L 1083.0625 57.636719 L 1083.0625 59.101562 Z M 1085.386719 60.378906 L 1084.398438 60.203125 C 1084.511719 59.800781 1084.703125 59.5 1084.976562 59.304688 C 1085.25 59.113281 1085.652344 59.015625 1086.191406 59.015625 C 1086.675781 59.015625 1087.042969 59.074219 1087.28125 59.1875 C 1087.519531 59.304688 1087.6875 59.449219 1087.785156 59.628906 C 1087.878906 59.804688 1087.929688 60.132812 1087.929688 60.605469 L 1087.914062 61.882812 C 1087.914062 62.242188 1087.929688 62.511719 1087.964844 62.683594 C 1088 62.859375 1088.066406 63.042969 1088.160156 63.238281 L 1087.078125 63.238281 C 1087.050781 63.167969 1087.015625 63.0625 1086.972656 62.921875 C 1086.957031 62.855469 1086.941406 62.8125 1086.933594 62.792969 C 1086.746094 62.976562 1086.546875 63.113281 1086.335938 63.203125 C 1086.125 63.296875 1085.898438 63.34375 1085.65625 63.34375 C 1085.234375 63.34375 1084.898438 63.226562 1084.65625 62.996094 C 1084.410156 62.765625 1084.289062 62.472656 1084.289062 62.121094 C 1084.289062 61.886719 1084.34375 61.679688 1084.457031 61.496094 C 1084.566406 61.316406 1084.722656 61.175781 1084.921875 61.078125 C 1085.125 60.980469 1085.414062 60.894531 1085.792969 60.820312 C 1086.300781 60.726562 1086.65625 60.636719 1086.855469 60.554688 L 1086.855469 60.441406 C 1086.855469 60.230469 1086.800781 60.078125 1086.699219 59.988281 C 1086.59375 59.898438 1086.398438 59.851562 1086.109375 59.851562 C 1085.914062 59.851562 1085.761719 59.890625 1085.652344 59.96875 C 1085.542969 60.046875 1085.457031 60.183594 1085.386719 60.378906 M 1086.855469 61.261719 C 1086.714844 61.308594 1086.492188 61.367188 1086.1875 61.429688 C 1085.886719 61.496094 1085.6875 61.558594 1085.59375 61.621094 C 1085.453125 61.722656 1085.378906 61.847656 1085.378906 62.003906 C 1085.378906 62.160156 1085.4375 62.289062 1085.550781 62.402344 C 1085.664062 62.515625 1085.808594 62.570312 1085.988281 62.570312 C 1086.183594 62.570312 1086.371094 62.503906 1086.550781 62.375 C 1086.683594 62.277344 1086.769531 62.15625 1086.8125 62.015625 C 1086.839844 61.921875 1086.855469 61.742188 1086.855469 61.480469 Z M 1090.894531 59.101562 L 1090.894531 59.972656 L 1090.148438 59.972656 L 1090.148438 61.644531 C 1090.148438 61.988281 1090.152344 62.183594 1090.167969 62.238281 C 1090.183594 62.296875 1090.214844 62.34375 1090.265625 62.378906 C 1090.316406 62.414062 1090.378906 62.433594 1090.449219 62.433594 C 1090.554688 62.433594 1090.699219 62.398438 1090.890625 62.328125 L 1090.984375 63.179688 C 1090.730469 63.289062 1090.445312 63.34375 1090.121094 63.34375 C 1089.925781 63.34375 1089.75 63.308594 1089.589844 63.242188 C 1089.433594 63.175781 1089.316406 63.089844 1089.242188 62.984375 C 1089.167969 62.878906 1089.117188 62.738281 1089.089844 62.558594 C 1089.066406 62.429688 1089.054688 62.171875 1089.054688 61.78125 L 1089.054688 59.972656 L 1088.554688 59.972656 L 1088.554688 59.101562 L 1089.054688 59.101562 L 1089.054688 58.28125 L 1090.148438 57.636719 L 1090.148438 59.101562 Z M 1094.394531 63.238281 L 1094.394531 62.621094 C 1094.242188 62.839844 1094.046875 63.015625 1093.800781 63.148438 C 1093.554688 63.277344 1093.296875 63.34375 1093.023438 63.34375 C 1092.746094 63.34375 1092.496094 63.28125 1092.273438 63.160156 C 1092.050781 63.035156 1091.894531 62.863281 1091.792969 62.644531 C 1091.695312 62.421875 1091.644531 62.117188 1091.644531 61.726562 L 1091.644531 59.101562 L 1092.738281 59.101562 L 1092.738281 61.007812 C 1092.738281 61.589844 1092.757812 61.945312 1092.796875 62.078125 C 1092.839844 62.210938 1092.910156 62.316406 1093.019531 62.390625 C 1093.125 62.46875 1093.261719 62.507812 1093.425781 62.507812 C 1093.613281 62.507812 1093.78125 62.453125 1093.929688 62.351562 C 1094.078125 62.25 1094.179688 62.121094 1094.234375 61.96875 C 1094.289062 61.816406 1094.316406 61.445312 1094.316406 60.851562 L 1094.316406 59.101562 L 1095.40625 59.101562 L 1095.40625 63.238281 Z M 1096.140625 62.074219 L 1097.238281 61.910156 C 1097.285156 62.121094 1097.378906 62.28125 1097.523438 62.390625 C 1097.664062 62.5 1097.867188 62.554688 1098.125 62.554688 C 1098.40625 62.554688 1098.617188 62.503906 1098.761719 62.398438 C 1098.859375 62.324219 1098.90625 62.226562 1098.90625 62.105469 C 1098.90625 62.023438 1098.878906 61.953125 1098.828125 61.898438 C 1098.773438 61.847656 1098.648438 61.796875 1098.460938 61.753906 C 1097.578125 61.558594 1097.019531 61.382812 1096.78125 61.21875 C 1096.453125 60.996094 1096.292969 60.683594 1096.292969 60.289062 C 1096.292969 59.929688 1096.433594 59.625 1096.714844 59.382812 C 1097 59.136719 1097.4375 59.015625 1098.03125 59.015625 C 1098.597656 59.015625 1099.019531 59.109375 1099.292969 59.292969 C 1099.566406 59.476562 1099.757812 59.753906 1099.863281 60.113281 L 1098.832031 60.304688 C 1098.789062 60.144531 1098.703125 60.019531 1098.582031 59.933594 C 1098.457031 59.847656 1098.28125 59.804688 1098.050781 59.804688 C 1097.761719 59.804688 1097.554688 59.84375 1097.429688 59.925781 C 1097.34375 59.984375 1097.304688 60.054688 1097.304688 60.148438 C 1097.304688 60.226562 1097.339844 60.292969 1097.410156 60.347656 C 1097.511719 60.417969 1097.851562 60.523438 1098.4375 60.652344 C 1099.023438 60.789062 1099.429688 60.949219 1099.660156 61.140625 C 1099.890625 61.335938 1100.003906 61.609375 1100.003906 61.957031 C 1100.003906 62.335938 1099.847656 62.660156 1099.527344 62.933594 C 1099.214844 63.207031 1098.742188 63.34375 1098.125 63.34375 C 1097.558594 63.34375 1097.113281 63.226562 1096.785156 63 C 1096.457031 62.773438 1096.242188 62.464844 1096.140625 62.074219 "/>
<path style=" stroke:none;fill-rule:evenodd;fill:rgb(100%,100%,100%);fill-opacity:1;" d="M 665.246094 87.75 L 664.15625 87.75 L 664.15625 83.617188 C 663.757812 83.992188 663.285156 84.269531 662.746094 84.449219 L 662.746094 83.453125 C 663.03125 83.359375 663.339844 83.183594 663.671875 82.921875 C 664.007812 82.660156 664.238281 82.355469 664.359375 82.011719 L 665.246094 82.011719 Z M 665.246094 87.75 "/>
<path style=" stroke:none;fill-rule:evenodd;fill:rgb(100%,100%,100%);fill-opacity:1;" d="M 665.914062 123.460938 L 665.914062 124.472656 L 662.078125 124.472656 C 662.121094 124.085938 662.246094 123.722656 662.453125 123.378906 C 662.660156 123.035156 663.070312 122.578125 663.679688 122.007812 C 664.175781 121.546875 664.476562 121.234375 664.585938 121.070312 C 664.738281 120.847656 664.8125 120.621094 664.8125 120.402344 C 664.8125 120.15625 664.746094 119.96875 664.617188 119.835938 C 664.484375 119.707031 664.304688 119.640625 664.074219 119.640625 C 663.847656 119.640625 663.664062 119.710938 663.53125 119.847656 C 663.398438 119.984375 663.320312 120.214844 663.296875 120.535156 L 662.207031 120.425781 C 662.273438 119.820312 662.472656 119.390625 662.816406 119.125 C 663.160156 118.863281 663.589844 118.734375 664.101562 118.734375 C 664.664062 118.734375 665.105469 118.886719 665.429688 119.191406 C 665.753906 119.492188 665.914062 119.871094 665.914062 120.324219 C 665.914062 120.582031 665.867188 120.828125 665.773438 121.0625 C 665.683594 121.292969 665.535156 121.539062 665.335938 121.792969 C 665.203125 121.960938 664.964844 122.203125 664.617188 122.523438 C 664.273438 122.839844 664.050781 123.050781 663.960938 123.15625 C 663.867188 123.257812 663.792969 123.359375 663.738281 123.460938 Z M 665.914062 123.460938 "/>
<path style="fill:none;stroke-width:1.5;stroke-linecap:butt;stroke-linejoin:miter;stroke:rgb(100%,100%,100%);stroke-opacity:1;stroke-miterlimit:2.613;" d="M -0.00185946 -0.00184038 L 78.925346 -0.00184038 L 78.925346 69.099653 C 78.925346 73.777257 75.098572 77.60403 70.420969 77.60403 L 8.502517 77.60403 C 3.828835 77.60403 -0.00185946 73.777257 -0.00185946 69.099653 Z M -0.00185946 -0.00184038 " transform="matrix(0.99627,0,0,-0.99627,599.208884,127.740354)"/>
<path style=" stroke:none;fill-rule:evenodd;fill:rgb(100%,100%,100%);fill-opacity:1;" d="M 619.378906 55.839844 L 657.003906 55.839844 L 657.003906 64.933594 L 619.378906 64.933594 Z M 619.378906 55.839844 "/>
<path style=" stroke:none;fill-rule:evenodd;fill:rgb(0%,0%,0.392151%);fill-opacity:1;" d="M 628.355469 61.390625 L 629.476562 61.277344 C 629.546875 61.65625 629.679688 61.929688 629.886719 62.105469 C 630.09375 62.28125 630.371094 62.371094 630.71875 62.371094 C 631.089844 62.371094 631.367188 62.292969 631.554688 62.136719 C 631.742188 61.980469 631.835938 61.796875 631.835938 61.585938 C 631.835938 61.449219 631.796875 61.335938 631.71875 61.238281 C 631.640625 61.144531 631.503906 61.0625 631.304688 60.996094 C 631.171875 60.945312 630.867188 60.863281 630.386719 60.746094 C 629.773438 60.589844 629.339844 60.402344 629.09375 60.179688 C 628.742188 59.863281 628.570312 59.476562 628.570312 59.027344 C 628.570312 58.734375 628.652344 58.460938 628.816406 58.207031 C 628.980469 57.953125 629.214844 57.761719 629.527344 57.628906 C 629.835938 57.496094 630.207031 57.429688 630.644531 57.429688 C 631.359375 57.429688 631.898438 57.585938 632.257812 57.90625 C 632.617188 58.222656 632.808594 58.644531 632.824219 59.175781 L 631.671875 59.214844 C 631.621094 58.917969 631.515625 58.707031 631.355469 58.578125 C 631.195312 58.449219 630.953125 58.386719 630.628906 58.386719 C 630.300781 58.386719 630.039062 58.453125 629.851562 58.59375 C 629.730469 58.679688 629.667969 58.800781 629.667969 58.949219 C 629.667969 59.082031 629.726562 59.199219 629.839844 59.296875 C 629.984375 59.417969 630.335938 59.546875 630.898438 59.679688 C 631.457031 59.8125 631.871094 59.949219 632.136719 60.089844 C 632.402344 60.230469 632.613281 60.425781 632.765625 60.671875 C 632.917969 60.917969 632.992188 61.21875 632.992188 61.578125 C 632.992188 61.90625 632.902344 62.210938 632.722656 62.5 C 632.539062 62.785156 632.28125 62.996094 631.949219 63.132812 C 631.617188 63.273438 631.203125 63.34375 630.707031 63.34375 C 629.988281 63.34375 629.433594 63.175781 629.046875 62.84375 C 628.660156 62.511719 628.429688 62.027344 628.355469 61.390625 M 635.257812 63.238281 L 635.257812 58.496094 L 633.566406 58.496094 L 633.566406 57.53125 L 638.09375 57.53125 L 638.09375 58.496094 L 636.414062 58.496094 L 636.414062 63.238281 Z M 638.824219 63.238281 L 638.824219 57.53125 L 640.558594 57.53125 L 641.578125 61.425781 L 642.589844 57.53125 L 644.324219 57.53125 L 644.324219 63.238281 L 643.257812 63.238281 L 643.253906 58.746094 L 642.128906 63.238281 L 641.019531 63.238281 L 639.898438 58.746094 L 639.894531 63.238281 Z M 648.03125 63.238281 L 646.941406 63.238281 L 646.941406 59.109375 C 646.542969 59.480469 646.070312 59.761719 645.527344 59.941406 L 645.527344 58.945312 C 645.8125 58.851562 646.125 58.671875 646.457031 58.414062 C 646.792969 58.152344 647.019531 57.847656 647.144531 57.5 L 648.03125 57.5 Z M 648.03125 63.238281 "/>
<path style="fill:none;stroke-width:1.5;stroke-linecap:butt;stroke-linejoin:miter;stroke:rgb(100%,100%,100%);stroke-opacity:1;stroke-miterlimit:2.613;" d="M -0.00182453 -0.00184038 L 59.528814 -0.00184038 L 59.528814 69.099653 C 59.528814 73.777257 55.702041 77.60403 51.024437 77.60403 L 8.502552 77.60403 C 3.82887 77.60403 -0.00182453 73.777257 -0.00182453 69.099653 Z M -0.00182453 -0.00184038 " transform="matrix(0.99627,0,0,-0.99627,419.00963,127.740354)"/>
<path style=" stroke:none;fill-rule:evenodd;fill:rgb(100%,100%,100%);fill-opacity:1;" d="M 429.851562 55.839844 L 467.476562 55.839844 L 467.476562 64.933594 L 429.851562 64.933594 Z M 429.851562 55.839844 "/>
<path style=" stroke:none;fill-rule:evenodd;fill:rgb(0%,0%,0.392151%);fill-opacity:1;" d="M 437.140625 61.136719 L 438.253906 61.476562 C 438.082031 62.105469 437.796875 62.574219 437.398438 62.878906 C 437 63.183594 436.496094 63.335938 435.882812 63.335938 C 435.125 63.335938 434.5 63.074219 434.011719 62.558594 C 433.527344 62.039062 433.28125 61.332031 433.28125 60.433594 C 433.28125 59.480469 433.527344 58.746094 434.019531 58.21875 C 434.507812 57.691406 435.152344 57.429688 435.953125 57.429688 C 436.652344 57.429688 437.21875 57.636719 437.652344 58.050781 C 437.914062 58.292969 438.109375 58.644531 438.238281 59.101562 L 437.097656 59.375 C 437.03125 59.078125 436.890625 58.84375 436.675781 58.671875 C 436.460938 58.503906 436.203125 58.417969 435.894531 58.417969 C 435.472656 58.417969 435.128906 58.570312 434.863281 58.871094 C 434.601562 59.175781 434.46875 59.667969 434.46875 60.347656 C 434.46875 61.066406 434.597656 61.582031 434.859375 61.886719 C 435.117188 62.195312 435.457031 62.347656 435.871094 62.347656 C 436.179688 62.347656 436.441406 62.25 436.664062 62.054688 C 436.882812 61.859375 437.042969 61.554688 437.140625 61.136719 M 438.980469 61.121094 C 438.980469 60.757812 439.070312 60.40625 439.25 60.0625 C 439.429688 59.722656 439.683594 59.464844 440.011719 59.285156 C 440.339844 59.105469 440.703125 59.015625 441.109375 59.015625 C 441.734375 59.015625 442.246094 59.21875 442.644531 59.625 C 443.046875 60.03125 443.246094 60.546875 443.246094 61.167969 C 443.246094 61.792969 443.042969 62.3125 442.640625 62.726562 C 442.238281 63.136719 441.730469 63.34375 441.117188 63.34375 C 440.738281 63.34375 440.378906 63.257812 440.03125 63.085938 C 439.691406 62.914062 439.429688 62.664062 439.25 62.332031 C 439.070312 62 438.980469 61.597656 438.980469 61.121094 M 440.105469 61.179688 C 440.105469 61.589844 440.203125 61.90625 440.394531 62.121094 C 440.589844 62.339844 440.832031 62.449219 441.117188 62.449219 C 441.398438 62.449219 441.640625 62.339844 441.832031 62.121094 C 442.023438 61.90625 442.121094 61.585938 442.121094 61.171875 C 442.121094 60.765625 442.023438 60.453125 441.832031 60.234375 C 441.640625 60.015625 441.398438 59.90625 441.117188 59.90625 C 440.832031 59.90625 440.589844 60.015625 440.394531 60.234375 C 440.203125 60.453125 440.105469 60.769531 440.105469 61.179688 M 447.867188 63.238281 L 446.773438 63.238281 L 446.773438 61.132812 C 446.773438 60.683594 446.75 60.398438 446.703125 60.265625 C 446.65625 60.136719 446.582031 60.035156 446.476562 59.960938 C 446.367188 59.886719 446.242188 59.851562 446.09375 59.851562 C 445.902344 59.851562 445.730469 59.902344 445.578125 60.007812 C 445.425781 60.109375 445.320312 60.25 445.265625 60.417969 C 445.207031 60.589844 445.179688 60.90625 445.179688 61.371094 L 445.179688 63.238281 L 444.089844 63.238281 L 444.089844 59.101562 L 445.101562 59.101562 L 445.101562 59.710938 C 445.464844 59.246094 445.917969 59.015625 446.472656 59.015625 C 446.710938 59.015625 446.933594 59.058594 447.132812 59.144531 C 447.335938 59.234375 447.488281 59.34375 447.589844 59.476562 C 447.695312 59.613281 447.765625 59.765625 447.804688 59.9375 C 447.847656 60.109375 447.867188 60.351562 447.867188 60.671875 Z M 448.582031 62.074219 L 449.683594 61.910156 C 449.730469 62.121094 449.824219 62.28125 449.96875 62.390625 C 450.109375 62.5 450.308594 62.554688 450.566406 62.554688 C 450.847656 62.554688 451.0625 62.503906 451.207031 62.398438 C 451.300781 62.324219 451.347656 62.226562 451.347656 62.105469 C 451.347656 62.023438 451.320312 61.953125 451.269531 61.898438 C 451.214844 61.847656 451.09375 61.796875 450.90625 61.753906 C 450.023438 61.558594 449.460938 61.382812 449.226562 61.21875 C 448.898438 60.996094 448.734375 60.683594 448.734375 60.289062 C 448.734375 59.929688 448.875 59.625 449.160156 59.382812 C 449.441406 59.136719 449.878906 59.015625 450.472656 59.015625 C 451.039062 59.015625 451.460938 59.109375 451.734375 59.292969 C 452.011719 59.480469 452.203125 59.753906 452.304688 60.113281 L 451.277344 60.304688 C 451.234375 60.144531 451.148438 60.019531 451.023438 59.933594 C 450.902344 59.847656 450.722656 59.804688 450.492188 59.804688 C 450.203125 59.804688 449.996094 59.84375 449.871094 59.925781 C 449.789062 59.984375 449.746094 60.054688 449.746094 60.148438 C 449.746094 60.226562 449.78125 60.292969 449.855469 60.347656 C 449.953125 60.417969 450.296875 60.523438 450.878906 60.65625 C 451.464844 60.789062 451.871094 60.949219 452.105469 61.140625 C 452.335938 61.335938 452.449219 61.609375 452.449219 61.957031 C 452.449219 62.335938 452.289062 62.660156 451.972656 62.933594 C 451.65625 63.207031 451.1875 63.34375 450.566406 63.34375 C 450.003906 63.34375 449.554688 63.226562 449.226562 63 C 448.898438 62.773438 448.683594 62.464844 448.582031 62.074219 M 453.152344 61.121094 C 453.152344 60.757812 453.238281 60.40625 453.417969 60.0625 C 453.597656 59.722656 453.851562 59.464844 454.179688 59.285156 C 454.507812 59.105469 454.875 59.015625 455.277344 59.015625 C 455.90625 59.015625 456.414062 59.21875 456.816406 59.625 C 457.214844 60.03125 457.414062 60.546875 457.414062 61.167969 C 457.414062 61.792969 457.210938 62.3125 456.808594 62.726562 C 456.40625 63.136719 455.898438 63.34375 455.285156 63.34375 C 454.910156 63.34375 454.546875 63.257812 454.203125 63.085938 C 453.859375 62.914062 453.597656 62.664062 453.417969 62.332031 C 453.238281 62 453.152344 61.597656 453.152344 61.121094 M 454.273438 61.179688 C 454.273438 61.589844 454.371094 61.90625 454.566406 62.121094 C 454.761719 62.339844 455 62.449219 455.285156 62.449219 C 455.570312 62.449219 455.808594 62.339844 456 62.121094 C 456.195312 61.90625 456.292969 61.585938 456.292969 61.171875 C 456.292969 60.765625 456.195312 60.453125 456 60.234375 C 455.808594 60.015625 455.570312 59.90625 455.285156 59.90625 C 455 59.90625 454.761719 60.015625 454.566406 60.234375 C 454.371094 60.453125 454.273438 60.769531 454.273438 61.179688 M 458.273438 57.53125 L 459.367188 57.53125 L 459.367188 63.238281 L 458.273438 63.238281 Z M 462.878906 61.933594 L 463.972656 62.117188 C 463.832031 62.515625 463.609375 62.820312 463.308594 63.03125 C 463.007812 63.238281 462.628906 63.34375 462.175781 63.34375 C 461.457031 63.34375 460.921875 63.109375 460.578125 62.636719 C 460.308594 62.261719 460.167969 61.785156 460.167969 61.210938 C 460.167969 60.523438 460.347656 59.988281 460.707031 59.597656 C 461.0625 59.210938 461.515625 59.015625 462.066406 59.015625 C 462.679688 59.015625 463.164062 59.21875 463.519531 59.625 C 463.875 60.03125 464.042969 60.65625 464.027344 61.492188 L 461.292969 61.492188 C 461.300781 61.816406 461.390625 62.070312 461.558594 62.25 C 461.726562 62.429688 461.933594 62.523438 462.183594 62.523438 C 462.355469 62.523438 462.5 62.476562 462.617188 62.382812 C 462.730469 62.289062 462.820312 62.140625 462.878906 61.933594 M 462.941406 60.824219 C 462.933594 60.507812 462.855469 60.265625 462.699219 60.101562 C 462.542969 59.933594 462.355469 59.851562 462.132812 59.851562 C 461.894531 59.851562 461.695312 59.941406 461.542969 60.113281 C 461.386719 60.289062 461.3125 60.527344 461.3125 60.824219 Z M 462.941406 60.824219 "/>
<g clip-path="url(#clip2)" clip-rule="nonzero">
<path style=" stroke:none;fill-rule:nonzero;fill:rgb(54.902649%,82.745361%,87.451172%);fill-opacity:1;" d="M 1141.65625 127.046875 C 1141.65625 128.375 1141.113281 129.585938 1140.234375 130.460938 C 1139.355469 131.339844 1138.144531 131.886719 1136.820312 131.886719 L 143.417969 131.886719 C 142.1875 131.886719 141.066406 131.382812 140.25 130.566406 C 139.4375 129.75 138.929688 128.628906 138.929688 127.398438 L 138.929688 76.8125 C 138.929688 75.582031 139.4375 74.460938 140.25 73.644531 C 141.066406 72.832031 142.1875 72.324219 143.417969 72.324219 L 308.308594 72.324219 L 309.320312 72.183594 C 311.648438 71.566406 313.832031 70.710938 315.867188 69.597656 C 317.925781 68.472656 319.808594 67.101562 321.507812 65.476562 L 321.554688 65.429688 C 323.972656 63.03125 325.988281 60.941406 328.003906 58.851562 C 330.003906 56.78125 332.003906 54.710938 334.332031 52.398438 L 338.0625 48.683594 C 338.773438 47.972656 339.660156 47.308594 340.679688 46.753906 L 340.679688 46.738281 C 341.585938 46.246094 342.585938 45.863281 343.644531 45.644531 C 344.957031 45.371094 346.34375 45.234375 347.699219 45.183594 C 348.167969 45.167969 348.640625 45.160156 349.105469 45.160156 C 350.046875 45.160156 350.96875 45.191406 351.835938 45.234375 L 352.039062 45.25 L 1136.820312 45.25 C 1138.144531 45.25 1139.355469 45.796875 1140.234375 46.675781 C 1141.113281 47.554688 1141.65625 48.761719 1141.65625 50.089844 Z M 1143.050781 43.859375 C 1141.378906 42.1875 1139.167969 41.265625 1136.820312 41.265625 L 352.191406 41.265625 L 352.039062 41.253906 C 350.976562 41.199219 350.015625 41.175781 349.105469 41.175781 C 348.589844 41.175781 348.066406 41.183594 347.546875 41.203125 C 345.828125 41.269531 344.242188 41.449219 342.835938 41.742188 C 341.4375 42.03125 340.070312 42.535156 338.78125 43.234375 L 336.695312 44.367188 L 336.695312 44.597656 C 336.179688 44.992188 335.695312 45.414062 335.246094 45.859375 L 331.519531 49.578125 C 329.171875 51.90625 327.128906 54.023438 325.152344 56.070312 L 325.117188 56.105469 C 323.15625 58.136719 321.125 60.238281 318.746094 62.601562 L 318.726562 62.621094 C 317.308594 63.976562 315.703125 65.144531 313.957031 66.101562 C 312.289062 67.011719 310.460938 67.742188 308.527344 68.269531 L 308.035156 68.339844 L 143.417969 68.339844 C 141.164062 68.339844 139.039062 69.222656 137.433594 70.828125 C 135.828125 72.433594 134.945312 74.558594 134.945312 76.8125 L 134.945312 127.398438 C 134.945312 129.652344 135.828125 131.777344 137.433594 133.382812 C 139.039062 134.988281 141.164062 135.871094 143.417969 135.871094 L 1136.820312 135.871094 C 1139.167969 135.871094 1141.378906 134.953125 1143.050781 133.28125 C 1144.722656 131.609375 1145.644531 129.394531 1145.644531 127.046875 L 1145.644531 50.089844 C 1145.644531 47.742188 1144.722656 45.53125 1143.050781 43.859375 "/>
</g>
</g>
</svg>
