<?xml version="1.0" encoding="utf-8"?>
<!-- Generator: Adobe Illustrator 25.0.0, SVG Export Plug-In . SVG Version: 6.00 Build 0)  -->
<svg version="1.1" id="Layer_1" xmlns="http://www.w3.org/2000/svg" xmlns:xlink="http://www.w3.org/1999/xlink" x="0px" y="0px"
	 viewBox="0 0 1000 1000" style="enable-background:new 0 0 1000 1000;" xml:space="preserve">
<g fill="#eaeaea">
	<path d="M248.3,650.1c12.2-12.3,23.9-24.4,35.8-36.2c7.6-7.6,15.4-14.9,23.2-22.3c5.4-5.1,10.4-6.5,16.4-0.1
		c4.5,4.8,10.2,8.4,17.8,14.6c6.3-7.4,12.6-14.3,18.2-21.7c1.2-1.5,0.1-4.8,0-7.3c0-0.2-0.4-0.4-0.6-0.6
		c-17.2-21.4-17.4-21.6-37.1-3c-46.8,44.4-93.4,88.9-139.9,133.6c-8.3,8-16.6,12.3-29.1,11.7c-28.1-1.3-56.3-0.4-85.2-0.4
		c0-32.7,0-63,0-94.8c11.4,0,23.1-1.3,34.4,0.3c22.7,3.3,38.3-6.3,54-21.9c55.8-55.6,112.9-109.8,169.5-164.6
		c11.4-11,19.3-11.1,30.4,0.3c43.5,44.8,87,89.7,130.4,134.7c9,9.4,9.4,11.8,0.4,21c-27.7,28.2-55.7,56-83.7,83.9
		c-17.1,17-34.3,34-51.4,51c-7.7,7.6-18.1,7.6-25.9,0c-23.1-23-46.2-45.9-69.2-69C253.9,656.6,251.5,653.7,248.3,650.1z"/>
	<path d="M750.4,512.5c-18.9,20.5-37.6,41.2-56.7,61.6c-5.3,5.6-11.1,4.6-19.1-2.2c-13.1-11.1-13.2-11.2-25.5,1.3
		c-13,13.2-10.9,9.3-0.7,21.5c3.3,4,7.4,7.4,11.1,11.1c1,1,2.1,1.9,4.1,3.6c7.9-7.3,15.9-14.3,23.6-21.6
		c45.4-43.8,90.8-87.6,135.9-131.7c7.2-7.1,14.4-9.5,24.6-9.1c26.1,1.1,52.4,0.6,78.5,0.3c6.7-0.1,9.1,1.6,9,8.7
		c-0.4,28.2-0.2,56.4-0.2,85.7c-16.3,0-32,1-47.5-0.3c-13.6-1.2-22.6,4.2-31.8,13.2C794.8,614,733.4,673,672,732.1
		c-7.1,6.8-14.3,6.1-22.7-2.3c-24.9-24.9-49.7-49.9-74.4-74.9c-19.2-19.4-38.2-39-57.3-58.6c-11.6-11.9-11.4-15.5,0.4-27.3
		c43.4-43.3,86.8-86.8,130.2-130.2c12-12,18.5-12,30.6,0.1c22.2,22.3,44.4,44.4,66.6,66.6c2.9,2.9,5.6,5.9,8.3,8.9
		C752.7,513.8,751.5,513.2,750.4,512.5z"/>
	<path d="M390,461.3c18.9-3.3,37.7-6.7,58.6-10.4c-64-53.3-92.7-118.1-73.7-198.9c8.4-35.8,28.8-65.3,60-86.7
		c-25.8,54-31.9,109.1-11.3,165.9c10.5,29.1,27.1,54.4,49.8,75.4c1-0.1,2-0.2,3-0.4c0-14.3,0.1-28.6,0-42.9
		c-0.3-24.1-0.8-48.3-1.2-72.4c-0.7-42.8-1.4-85.5-1.7-128.3c0-3.2,2.5-7.3,5.1-9.4c6.3-5.3,13.4-9.7,19.7-15
		c-33.8,1.5-48.7-9.9-45-37.1c16.8,18.7,33.6,19.3,48.6,2.7c9.6,4.4,18.4,11.5,26.9,11.3c8.5-0.3,16.8-8,25.2-12.5
		c7.7,17.9-12.2,35.5-44.2,36.6c6.4,4,10.8,7.5,15.9,9.6c6.3,2.6,7.6,6.6,7.4,12.8c-1.3,35.7-2.4,71.5-3.4,107.2
		c-1.2,44.5-2.3,89-3.4,133.4c0,1.7,0.2,3.5,0.5,7.6c38.5-30.3,60-68.6,68.3-114.7c8.3-45.9-1.3-89.4-21.7-132.7
		c76.9,39,97.1,227.7-13.9,287.4c17.8,11,38.6,8.2,58,15.4c-11,8-22.8,10.9-34.7,13c-16.1,2.9-32.2,5.1-48.4,0.5
		c-2.3-0.6-6,1.5-8.2,3.3c-8.4,7.1-16.5,14.6-24.7,22c-6.9-6.7-13.3-13.8-20.7-19.7c-3.9-3.1-9.5-5.8-14.3-5.8
		c-21.6-0.3-43.1,0.2-63.5-8.6c-4.4-1.9-8.6-4.2-12.8-6.3C389.8,463,389.9,462.2,390,461.3z"/>
	<path d="M654.7,750c-19.4,0-38.9,0.3-58.3-0.3c-2.7-0.1-5.9-4-7.9-6.8c-14.4-20.1-32.6-34.6-57-40.5c-1.3-0.3-2.7-0.5-4.8-0.3
		c18.6,15.1,30.5,33.4,24.1,57.8c-6.3,23.8-23,37.6-47.8,41c0,25.8,0,51,0,76.3c0,4.9-0.1,9.9-0.6,14.8c-0.8,7.5-4.6,9.2-10.1,4
		c-9.3-8.7-18.1-18-27-27.1c-37-37.8-74-75.6-110.9-113.5c-7.3-7.5-6.9-14.6,0.4-21.7c43.2-42.3,86.4-84.7,129.4-127.2
		c15.6-15.4,21-15.7,36.3-0.2c43,43.3,85.9,86.6,128.7,130c3,3,5,7,7.4,10.6C656,747.9,655.4,748.9,654.7,750z M464.5,788.9
		c-22.4-29.6-22.4-56.6,2.8-82.5c-15.9,3.6-31.4,12.7-40.6,23.6c-8.4,10-10.6,23.4-3.8,33.2C432.4,776.9,447,782.9,464.5,788.9z"/>
	<path d="M931.9,632.8c1.1,30.5,2.2,59.8,2.9,89.1c0,1.7-3.8,4.9-5.8,4.9c-32.8-0.7-65.7-1.8-98.5-3c-2.1-0.1-4.7-1-6.2-2.4
		c-21.1-20.4-42-40.9-63.9-62.3c24.4-23.3,47.4-45.3,70.8-67.7c10.2,11.1,21.5,23.1,32.4,35.4c3.7,4.2,7.6,6.2,13.5,6.1
		C894.9,632.5,912.6,632.8,931.9,632.8z"/>
	<path d="M239,511.1c-20.8,19.8-42.3,40.4-64.6,61.7c-10.9-10-21.5-19.2-31.6-29.1c-6.8-6.7-13.9-10.2-23.9-9.5
		c-13.9,0.9-27.9,0.5-41.8,0c-2.4-0.1-6.6-3.2-6.7-5c-0.8-27.6-1.1-55.2-1.5-82.7c0-0.8,0.5-1.6,1.2-3.4c4.3,0,8.9,0,13.4,0
		c27.6,0,55.2-0.1,82.8,0.1c3.2,0,7.5,0.6,9.5,2.7C196.8,466.9,217.4,488.6,239,511.1z"/>
	<path d="M427.3,154.8c-48.8,27.5-71.1,72.5-82.2,123.9c-11.2,51.5-8.2,101.8,20.1,150.4c-2.8-0.7-6.2-0.7-8.4-2.2
		c-28.2-18.6-48.1-44.1-57.2-76.6c-15.7-56.7-6.8-109.3,31.7-154.6c22.1-26,51.5-40.2,85.8-43.4c2-0.2,4.1-0.2,6.1-0.1
		c0.8,0,1.6,0.4,2.4,0.6C426.1,153.5,426.7,154.1,427.3,154.8z"/>
	<path d="M643.9,431.2c27.3-46.3,32.2-96,23-147.4c-9.3-51.8-31.3-96.4-77.6-126.2c0.7-1.1,1.3-2.3,2-3.4
		c11.8,3.1,24.2,4.7,35.2,9.4c46.7,20,72.8,57.2,84,105.4c8.6,36.8,5.2,72.9-11.6,107.1C687.1,400.4,669.5,419.1,643.9,431.2z"/>
	<path d="M77,609.8c-14.3,0-28.5-0.1-42.8,0C21.1,610,12,603.4,5.9,592.6c-5.9-10.5-5-21,2-31.2c7.2-10.6,15.8-16.2,29.5-15.8
		c27.3,0.8,54.7,0.1,82-0.4c7.1-0.1,12.2,2.1,16.5,7.6c5.7,7.3,11.8,14.4,17.9,21.4c2.9,3.3,2.8,5.7-0.4,8.8
		c-7.6,7.6-14.7,15.8-22.5,23.1c-2.2,2.1-6.2,2.9-9.4,3c-14.8,0.3-29.7,0.1-44.5,0.1C77,609.4,77,609.6,77,609.8z"/>
	<path d="M925.6,556.5c15.1,0,30.2-0.1,45.3,0c14.2,0.1,26.7,13,27.1,27c0.2,8.3-0.7,15.9-5.7,23.1c-5.9,8.5-13.1,13.3-23.8,13.4
		c-29.3,0.1-58.6,0.6-87.9,1.2c-5.5,0.1-9-1.6-12.4-6c-6.2-8-13-15.6-20.1-22.9c-4.3-4.5-4.9-7.8,0.1-12.2
		c7.7-6.6,14.7-13.9,22.5-20.4c2.1-1.8,5.8-2.3,8.8-2.4c15.4-0.2,30.8-0.1,46.2-0.1C925.6,557,925.6,556.7,925.6,556.5z"/>
</g>
</svg>
