<?xml version="1.0" encoding="utf-8"?>
<!-- Generator: Adobe Illustrator 25.0.0, SVG Export Plug-In . SVG Version: 6.00 Build 0)  -->
<svg version="1.1" id="Layer_1" xmlns="http://www.w3.org/2000/svg" xmlns:xlink="http://www.w3.org/1999/xlink" x="0px" y="0px"
	 viewBox="0 0 1000 1000" style="enable-background:new 0 0 1000 1000;" xml:space="preserve">
<style type="text/css">
	.st0{fill:#A6CD3A;}
	.st1{fill:#eaeaea;}
</style>
<g>
	<path class="st0" d="M211,392.8c4,0.6,8,1,11.9,1.9c43,9.7,70.9,35.7,83.6,77.8c2,6.8-1.8,13.4-8.2,15.1c-6.9,1.8-13.1-2-15.2-9
		c-10.3-33.9-32.8-54.7-67.7-60.8c-26.2-4.6-49.7,3-69.4,20.9c-15.4,13.9-24,31.5-26.5,52.1c-0.4,3-0.4,6.1-0.5,9.1
		c-0.2,7.1-5.3,12.1-12.6,11.9c-6.3-0.1-11.6-5.6-11.3-12.2c0.5-11.7,1.8-23.3,5.9-34.3c14.2-38.1,41.2-61.6,80.9-70.6
		c3.2-0.7,6.5-1,9.7-1.5c0.4-0.1,0.9,0.1,1.2-0.5C198.8,392.8,204.9,392.8,211,392.8z"/>
	<path class="st1" d="M1000,550c-4.4,1.5-8.9,3-13.7,3.4c-14.3,1.1-27.3-9.7-28.6-23.9c-0.2-1.7-0.2-3.3-0.2-5
		c-0.1-12-0.2-24-0.1-35.9c0-1.9-0.7-2.2-2.3-2.2c-4,0.1-8.1,0-12.2,0.1c-1.4,0-2-0.3-2-1.9c0.1-3.7,0.1-7.3,0-11
		c0-1.5,0.5-1.9,2-1.9c4.2,0.1,8.4,0,12.6,0.1c1.6,0,1.9-0.5,1.9-1.9c-0.1-4.7,0-9.5-0.1-14.2c0-1.1,0.3-1.8,1.3-2.3
		c5.2-2.8,10.8-4.6,16.7-5.2c1.5-0.1,1.8,0.3,1.7,1.7c-0.1,6.6,0,13.3-0.1,19.9c0,1.6,0.3,2.1,2,2c3.5-0.2,7,0,10.5-0.2
		c1.4-0.1,2,0.5,2.6,1.6c1.8,3.6,2.9,7.3,3.5,11.3c0.3,1.8-0.4,1.8-1.8,1.8c-5,0-10.1,0-15.1,0c-1,0-1.8-0.1-1.7,1.4
		c0.3,12.1-0.3,24.3,0.4,36.4c0.2,2.8,0.9,5.4,2.1,7.9c2.8,5.8,8,8,14.8,6.3c1.9-0.5,3.8-1.1,5.7-1.6
		C1000,541.1,1000,545.5,1000,550z"/>
	<path class="st0" d="M106.8,607.3c-28.1-0.4-52.7-9.9-73.4-29c-2-1.9-4-3.8-5.8-5.9c-4.5-4.9-4.3-12.2,0.3-16.7
		c4.6-4.5,11.8-4.7,16.5-0.1c7.2,7,14.7,13.5,23.7,18.2c14.3,7.4,29.5,10.7,45.6,9.2c34.6-3.1,63-26,73.1-59
		c2.4-7.9,3.5-15.9,3.5-24.1c0-6,4.7-11.1,10.5-11.7c6.3-0.6,11.9,3.2,13.2,9.2c0.7,3.3,0.3,6.7,0.1,10c-1.7,22-9.1,41.8-22.9,59
		c-17.4,21.7-39.9,34.9-67.3,39.5C118.3,606.8,112.6,607.3,106.8,607.3z"/>
	<path class="st1" d="M354.3,517.7c0-10.8,0-21.7,0-32.5c0-1-0.1-1.9,1-2.5c10.8-6.2,22.1-10.8,34.8-10.5c8.8,0.2,16.8,2.7,23.8,8.1
		c1,0.8,1.7,0.8,2.7,0.2c8.3-4.9,17.1-8.3,27-8.3c21.8,0,38,14.7,39.1,36.5c0.7,14.1,0.2,28.2,0.3,42.4c0,1.2-0.5,1.4-1.5,1.4
		c-5.5,0-11-0.1-16.5,0c-1.7,0-1.6-0.8-1.6-2c0-13.3,0-26.6,0-39.8c0-9.7-6.1-17.8-15.1-19.9c-7.2-1.7-13.5,0.4-19.4,4.5
		c-0.8,0.5-0.8,1.1-0.8,1.9c0.6,17.6,0.3,35.3,0.4,52.9c0,1.9-0.5,2.4-2.4,2.4c-5-0.1-10.1-0.1-15.1,0c-1.7,0-2.2-0.4-2.1-2.2
		c0.1-12.7-0.2-25.5,0.1-38.2c0.4-13.3-11.1-22.9-24.6-21.9c-3,0.2-5.8,1-8.7,2c-1.6,0.6-2,1.4-2,3c0.1,18.1,0,36.2,0.1,54.3
		c0,2.4-0.5,3.1-3,3c-4.9-0.2-9.8-0.1-14.7,0c-1.6,0-1.9-0.5-1.9-1.9C354.3,539.5,354.3,528.6,354.3,517.7z"/>
	<path class="st1" d="M585.1,498.7c0-16.6,0-33.1,0-49.7c0-1.5,0.5-2.3,1.8-3c4.9-2.5,10.1-4.2,15.7-4.8c1.8-0.2,2,0.4,2,1.9
		c-0.1,9.9,0,19.8-0.1,29.8c0,2,0.4,2.1,2.3,1.6c14.5-3.9,28.1-2.4,39.8,7.8c14.3,12.4,16.8,35.4,6,51.8c-7.3,11.2-18,17-31,19.1
		c-11.6,1.8-23,0.5-34.3-2c-1.6-0.3-2-0.9-2-2.5C585.2,532,585.2,515.3,585.1,498.7C585.1,498.7,585.1,498.7,585.1,498.7z
		 M604.4,512.5c0.1,0,0.1,0,0.2,0c0,6.4,0,12.8,0,19.2c0,1.2,0.1,2,1.6,2.2c7.2,0.9,14.2,0.1,20.8-2.8c13.8-6.1,17.2-24.2,6.4-34.5
		c-7.5-7.2-19.3-8.2-27.9-5.2c-1.2,0.4-1.1,1.2-1.1,2.1C604.5,499.9,604.4,506.2,604.4,512.5z"/>
	<path class="st0" d="M-0.6,499.9c0-50.1,34.7-93.3,83.9-104.4c3.7-0.8,7.2-1.9,10.9-0.1c4.6,2.2,7.3,6.6,7.1,11.6
		c-0.2,4.8-3.4,9.1-8.1,10.6c-4.4,1.5-9.1,2-13.5,3.7c-31.4,11.9-50.1,34.3-55.6,67.4c-1.8,10.6-0.5,21.1,1.5,31.6
		c1.3,6.7-3,12.8-9.4,14c-6.5,1.2-12.6-2.9-14-9.5C0.5,516.6-0.7,508.3-0.6,499.9z"/>
	<path class="st0" d="M202.4,440.5c29.5,0,54.3,21.2,58.7,49.9c1.8,11.4,0.7,22.5-3.7,33.2c-2.2,5.4-7.3,8.3-13,7.7
		c-5.2-0.6-9.3-4.7-10.2-10.3c-0.4-2.4,0.2-4.7,1.1-6.9c8.6-21.4-3.5-44.2-26.1-49c-15-3.2-30.4,4-38.4,18c-2.8,4.9-6.9,6.9-12.5,6
		c-4.6-0.7-8.5-4.5-9.5-9.4c-0.7-3.5,0.1-6.7,1.9-9.6c9.4-15.7,23.2-25.1,41.1-28.6C195.5,440.7,199.1,440.3,202.4,440.5z"/>
	<path class="st0" d="M106.5,559.5c-29.2,0.1-53.9-21-58.5-49.9c-1.8-11.2-1-22.2,3.8-32.7c2.1-4.6,5.8-7,10.9-7.1
		c4.7-0.1,8.2,2.1,10.5,6.1c2,3.6,1.9,7.2,0.4,11c-4.6,12-3.1,23.5,4.3,33.9c15.5,21.5,47.2,19.4,60.4-4c2.6-4.6,6.4-6.3,11.4-5.9
		c4.8,0.4,8.1,3,9.9,7.4c1.7,4,0.9,8-1.3,11.6c-9.3,15.8-23.1,25.2-41.1,28.7c-2.1,0.4-4.2,0.7-6.4,0.8
		C109.6,559.6,108,559.5,106.5,559.5z"/>
	<path class="st1" d="M534.1,470.9c23,0.1,41.4,18.6,41.3,41.6c-0.1,22.7-18.7,41.1-41.7,41.1c-23-0.1-41.2-18.7-41.2-42
		C492.7,489.3,511.4,470.9,534.1,470.9z M512,512.1c-0.1,11.9,9.6,21.9,21.4,22c12.3,0.2,22.3-9.3,22.5-21.4
		c0.2-12.3-9.5-22.3-21.7-22.4C522.1,490.3,512.2,500,512,512.1z"/>
	<path class="st1" d="M907.8,516.8c-6.8,0-13.6,0-20.4,0c-3,0-3.3,0.4-2.8,3.4c2,11.4,11.1,18.1,23.2,17.2
		c6.3-0.5,12.1-2.4,17.4-5.8c1.1-0.7,1.8-0.6,2.7,0.2c2.9,2.5,5.4,5.3,7.6,8.5c0.9,1.4,0.8,2.1-0.4,3.2c-8.2,7-17.7,10.2-28.4,10.5
		c-11,0.3-21.1-2.3-29.3-10c-6.5-6.1-10.1-13.9-11.6-22.6c-1.7-10.4-1.4-20.6,3.6-30.1c6.7-12.8,17.6-19.2,31.9-20
		c7.9-0.4,15.5,1,22.3,5.3c9,5.8,13,14.6,14.4,24.9c0.2,1.8,0.4,3.6,0.4,5.5c0,5.6-4.1,9.8-9.8,9.9
		C921.7,516.8,914.7,516.8,907.8,516.8z M902.8,503.2c5.4,0,10.7,0,16.1,0c1.2,0,2.1-0.3,2.1-1.7c0.2-6.7-4.6-13.9-11-15.6
		c-10.4-2.7-21.5,0.3-24.7,14.7c-0.4,1.9,0.2,2.6,2.2,2.6C892.5,503.2,897.6,503.2,902.8,503.2z"/>
	<path class="st1" d="M781.3,517.8c0-10.8,0-21.7,0-32.5c0-1.2,0.1-2.1,1.3-2.8c8.7-5,17.7-8.8,27.8-10c25.1-3.1,44.6,13.5,45,38.7
		c0.2,13.2,0,26.4,0.1,39.6c0,1.4-0.4,1.8-1.8,1.8c-5.3-0.1-10.6-0.1-15.8,0c-1.7,0-2-0.6-2-2.1c0.1-12.8-0.2-25.6,0.1-38.5
		c0.3-13.6-11.2-22.7-24.4-21.9c-3,0.2-5.8,1-8.7,1.9c-1.8,0.6-2.2,1.5-2.2,3.3c0.1,18.2,0,36.3,0.1,54.5c0,2.3-0.6,2.8-2.8,2.7
		c-4.8-0.2-9.6-0.1-14.4,0c-1.8,0-2.3-0.4-2.3-2.3C781.3,539.4,781.3,528.6,781.3,517.8z"/>
	<path class="st1" d="M697.8,517.6c0-10.8,0-21.7,0-32.5c0-1.2,0.2-2.1,1.4-2.8c8.8-5,18-8.9,28.3-10c24.2-2.6,44,13.1,44.4,38.7
		c0.2,13,0,26.1,0.1,39.1c0,1.8-0.4,2.3-2.3,2.3c-5-0.1-10.1-0.1-15.1,0c-1.8,0-2.1-0.5-2.1-2.2c0.1-12.2-0.4-24.4,0.1-36.6
		c0.8-18.1-15.7-26.8-30.2-22.6c-5,1.5-5,1.4-5,6.7c0,17.5,0,35,0,52.4c0,1.9-0.6,2.4-2.4,2.4c-5-0.1-9.9-0.1-14.9,0
		c-1.7,0-2.2-0.4-2.2-2.1C697.8,539.5,697.8,528.6,697.8,517.6z"/>
	<path class="st0" d="M295.1,511.9c7.7,0,13.5,7,11.6,14.6c-3.8,15.5-10.9,29.4-21.1,41.7c-16.2,19.4-36.8,31.8-61.6,37
		c-2.2,0.5-4.4,0.9-6.5,1.1c-6.5,0.7-12.4-3.9-13.2-10.1c-0.9-6.7,3.5-12.6,10.3-13.7c19.2-3,35.5-11.4,48.8-25.4
		c9.6-10,16.1-21.8,19.8-35.1C284.9,515.5,289.2,511.9,295.1,511.9z"/>
	<path class="st1" d="M688.3,512.4c0,12.7-0.1,25.3,0.1,38c0,2.2-0.7,2.6-2.7,2.6c-4.9-0.1-9.8-0.1-14.7,0c-1.9,0.1-2.4-0.4-2.4-2.3
		c0.1-21.4,0.1-42.7,0-64.1c0-2.4,0-4.9-0.1-7.3c0-1.1,0.4-1.7,1.4-2.3c5.2-2.9,10.8-4.5,16.7-5.2c1.6-0.2,1.7,0.5,1.7,1.8
		C688.3,486.5,688.3,499.4,688.3,512.4z"/>
	<path class="st1" d="M678.2,464.3c-6.3,0-11.5-5.2-11.5-11.5c0-6.6,5.2-11.7,11.8-11.7c6.5,0.1,11.8,5.4,11.7,11.8
		C690.1,459.2,684.7,464.3,678.2,464.3z"/>
</g>
</svg>
