<?xml version="1.0" encoding="utf-8"?>
<!-- Generator: Adobe Illustrator 25.0.0, SVG Export Plug-In . SVG Version: 6.00 Build 0)  -->
<svg version="1.1" id="Layer_1" xmlns="http://www.w3.org/2000/svg" xmlns:xlink="http://www.w3.org/1999/xlink" x="0px" y="0px"
	 viewBox="0 0 1000 1000" style="enable-background:new 0 0 1000 1000;" xml:space="preserve">
<style type="text/css">
	.st0{fill:#EAEAEA;}
	.st1{fill:#FF8585;}
	.st2{fill:#FF8585;}
</style>
<path class="st0" d="M319.8,2.9c0,72.7,0.4,142.6-0.3,212.5c-0.1,13.8,3.3,18.3,17.4,17.5c24.7-1.5,21.4,3.1,21.5-22.2
	c0.2-64.4,0.1-128.7,0.1-193.1c0-4.9,0-9.9,0-17.4c23.4,13.4,44.8,25.5,66,38.1c7.2,4.3,14.4,6.3,22.9,6.3
	c35.5-0.3,70.9-0.3,106.4,0c8.4,0.1,15.6-1.9,22.9-6.2c21.1-12.6,42.6-24.7,66.1-38.1c0,8,0,13.4,0,18.8c0,66.4,0.2,132.8-0.2,199.1
	c-0.1,10.9,2.1,15.1,14,14.8c24.7-0.8,24.7,0,24.7-24.9c0-67.4,0-134.8,0-202.3c25.1,7.1,37.2,21.7,37.2,45.7
	c0,7.1,1.5,12.3,7.7,16.7c27.5,19.8,55,39.8,81.9,60.4c7.7,5.9,11.2,4.3,16.5-2.9c18.5-25,18.7-24.8,43.5-6.5
	c22,16.2,43.9,32.7,66.1,48.6c6,4.3,8.3,9,8.2,16.4c-0.3,64.9-0.3,129.7,0,194.6c0.1,8.8-2.8,13.6-10.2,18.1
	c-27.8,16.7-54.9,34.4-82.7,51.1c-8,4.8-10.7,10.2-10.7,19.4c0.4,64.9,0.2,129.7,0.2,194.6c0,164-119,306-279.5,333.3
	c-163.4,27.8-322.1-64.1-377.6-218.6c-13.3-37.1-20-75.2-20-114.6c0.1-64.9-0.2-129.7,0.2-194.6c0.1-9.2-2.6-14.6-10.6-19.4
	c-27.8-16.6-55-34.3-82.7-51c-7.4-4.4-10.3-9.3-10.3-18.1c0.4-64.9,0.3-129.7,0.1-194.6c0-7.4,2.1-12.1,8.2-16.4
	c27.9-20.1,55.8-40.4,83.1-61.4c7.6-5.8,10.5-3.1,15.2,3c19.1,25.3,19.3,25.2,44.8,6.4c21.2-15.6,42.4-31.3,63.6-46.9
	c4.4-3.3,10.4-6,8.9-12.8C275.4,25.9,298.5,16.8,319.8,2.9z M341.4,484.8c-29.1,29.9-52.8,63.2-66.1,103.3
	c-0.2-55.7-0.6-111.4-0.4-167.1c0-8.7-2.6-13.7-10.1-18.1c-31.9-18.7-63.2-38.3-95.1-56.9c-8.6-5-11.8-10.6-11.3-20.5
	c0.8-18.7,0.2-37.5,0.2-56.2c0-24,0-23.5-24.5-23.7c-9.9-0.1-13,2.7-12.7,12.8c0.7,28.3,0.5,56.7,0.1,85.1
	c-0.1,8.5,2.3,13.7,9.8,18.2c26.5,15.9,52,33.3,78.9,48.5c12,6.8,15.1,14.7,15,27.8c-0.6,73.9-0.3,147.9-0.3,221.8
	c0,16.2,1.2,32.3,3.7,48.4c21.5,134.6,146.6,235.8,283.3,229c142-7.1,257.9-119,263.2-257.7c3.1-80.9,1.2-162,0.8-243.1
	c-0.1-12.8,3.9-19.9,15-26.2c26.7-15.4,52.4-32.7,78.9-48.5c7.6-4.5,10-9.7,9.8-18.2c-0.5-24.3-0.2-48.6-0.2-72.9
	c0-25.3,0-24.8-24.6-25c-10.2-0.1-12.8,3.3-12.5,13.1c0.7,22.8-0.2,45.6,0.4,68.4c0.2,8.6-2.4,13.7-10,18.2
	c-31.9,18.7-63.2,38.4-95.1,56.9c-8.6,5-11.5,10.5-11.5,20.4c0.3,55.2-0.1,110.4-0.3,165.6c-13.4-39.9-36.9-73.4-66.1-103.2
	c0-44.1-0.3-88.1,0.2-132.2c0.1-9.1-2.1-12.1-11.7-12.3c-34.1-0.5-34.1-0.9-34.1,33.7c0,0.5-0.1,1,0,1.5
	c2.2,12.4-2.5,16.3-15.4,16.1c-64.3-0.7-128.6-0.9-192.9,0.1c-15.6,0.2-19.5-3.9-18.9-19.2c1.3-32.5,0.4-32-32.1-32.2
	c-10.8-0.1-13.5,3.2-13.4,13.7C341.7,397.6,341.4,441.2,341.4,484.8z"/>
<path class="st0" d="M362.2,495.5c92.2,0,184.3,0,276.5,0c3.8-0.4,1.5-1.8,0.5-3c-73.6-66.7-203.9-66.7-277.6,0
	C360.7,493.7,358.4,495.1,362.2,495.5z M501,733c-46,0-92,0.3-138-0.2c-12.2-0.1-16,2-8.7,13.9c33.8,54.9,83.4,84,147.2,83.7
	c63.2-0.3,112.2-29.6,145.4-84.1c6.3-10.3,4.5-13.6-7.8-13.4C593,733.3,547,733,501,733z M504,880.6c24.4,0.5,52.1-4.9,78.6-15.8
	c56-23.1,96-62.7,119.9-118.4c1.7-4.1,7.8-10.1-1.5-13.1c-16.3-5.1-29,0.5-37.2,15c-35.5,63-89.5,97.4-161.7,98
	c-72.9,0.6-128.1-33.2-163.8-96.8c-7.2-12.9-14.5-17.8-29.1-17c-12.4,0.8-16.1,2.3-10.5,15.3C333.3,828.1,411.9,880.4,504,880.6z
	 M500.5,672.6c67.9,0,135.7,0.1,203.6-0.1c15.5,0,18.1-4.4,15.3-19.6c-2.1-11.4-10.2-7.8-16.4-7.8c-134.7-0.2-269.4-0.1-404.1-0.1
	c-2.5,0-5.1,0.2-7.6,0c-6.3-0.5-8.8,2.4-10,8.5c-2.9,15.2-0.2,19.1,15.7,19.1C364.8,672.6,432.6,672.6,500.5,672.6z M500.5,688.5
	c-67.8,0-135.6-0.1-203.3,0.3c-4.5,0-14.8-5-12.9,6c1.4,8.2-2.8,21.4,14.4,21.4c134.5-0.4,269.1-0.4,403.6,0
	c17.1,0,12.9-13.1,14.4-21.3c2-11.1-8.4-6-12.8-6.1C636,688.4,568.3,688.5,500.5,688.5z M499.7,628.1c67.3,0,134.6,0.1,201.9-0.2
	c5.2,0,15.3,4.5,13.6-7.6c-1.2-8.6,1.2-20-14.3-19.9c-133.6,0.3-267.2,0.3-400.7,0c-15.6,0-12.9,11.6-14.3,20
	c-1.9,12.1,8.3,7.5,13.5,7.6C366.1,628.2,432.9,628.1,499.7,628.1z M703.8,584.1c-5.6-26.1-6.6-27-31.1-27c-114.9,0-229.8,0-344.7,0
	c-24.1,0-25.7,1.4-30.8,27C432.7,584.1,568.2,584.1,703.8,584.1z M320,538.8c120.9,0,240.4,0,360.8,0c-9-18.3-19.8-27.5-41.4-27.2
	c-92.7,1.4-185.4,1.4-278,0C339.8,511.3,329.1,520.6,320,538.8z"/>
<path class="st1" d="M501,733c46,0,92,0.3,138-0.2c12.3-0.1,14.1,3.2,7.8,13.4c-33.3,54.5-82.2,83.7-145.4,84.1
	c-63.8,0.3-113.3-28.8-147.2-83.7c-7.3-11.9-3.5-14,8.7-13.9C409,733.3,455,733,501,733z"/>
<path class="st1" d="M504,880.6c-92.1-0.2-170.7-52.5-205.3-132.8c-5.6-13-1.9-14.5,10.5-15.3c14.6-0.9,21.9,4.1,29.1,17
	c35.7,63.6,90.9,97.3,163.8,96.8c72.2-0.6,126.2-35.1,161.7-98c8.2-14.5,20.9-20.1,37.2-15c9.4,2.9,3.3,9,1.5,13.1
	c-23.9,55.7-63.9,95.3-119.9,118.4C556.1,875.7,528.4,881.1,504,880.6z"/>
<path class="st2" d="M500.5,672.6c-67.9,0-135.7,0-203.6,0c-15.9,0-18.6-3.9-15.7-19.1c1.2-6.1,3.7-9,10-8.5c2.5,0.2,5.1,0,7.6,0
	c134.7,0,269.4,0,404.1,0.1c6.2,0,14.3-3.6,16.4,7.8c2.8,15.1,0.2,19.5-15.3,19.6C636.2,672.6,568.3,672.6,500.5,672.6z"/>
<path class="st2" d="M500.5,688.5c67.8,0,135.6-0.1,203.3,0.3c4.4,0,14.8-5,12.8,6.1c-1.4,8.2,2.8,21.4-14.4,21.3
	c-134.5-0.4-269.1-0.4-403.6,0c-17.1,0-12.9-13.1-14.4-21.4c-1.9-11,8.4-6,12.9-6C364.9,688.4,432.7,688.5,500.5,688.5z"/>
<path class="st2" d="M499.7,628.1c-66.8,0-133.6,0.1-200.4-0.2c-5.2,0-15.4,4.5-13.5-7.6c1.3-8.4-1.3-20,14.3-20
	c133.6,0.3,267.2,0.3,400.7,0c15.5,0,13.1,11.4,14.3,19.9c1.7,12.1-8.4,7.6-13.6,7.6C634.3,628.2,567,628.1,499.7,628.1z"/>
<path class="st2" d="M703.8,584.1c-135.6,0-271.1,0-406.7,0c5.1-25.6,6.8-27,30.8-27c114.9,0,229.8,0,344.7,0
	C697.2,557.1,698.3,558,703.8,584.1z"/>
<path class="st2" d="M638.7,495.5c-92.2,0-184.3,0-276.5,0c-0.2-1-0.4-2-0.5-3c73.6-66.7,203.9-66.7,277.6,0
	C639.1,493.5,638.9,494.5,638.7,495.5z"/>
<path class="st2" d="M320,538.8c9-18.2,19.8-27.5,41.3-27.1c92.7,1.4,185.4,1.4,278,0c21.5-0.3,32.4,8.9,41.4,27.2
	C560.5,538.8,440.9,538.8,320,538.8z"/>
<path class="st1" d="M361.7,492.5c0.2,1,0.4,2,0.5,3C358.4,495.1,360.7,493.7,361.7,492.5z"/>
<path class="st1" d="M638.7,495.5c0.2-1,0.4-2,0.5-3C640.2,493.7,642.6,495.1,638.7,495.5z"/>
</svg>
