<?xml version="1.0" encoding="utf-8"?>
<!-- Generator: Adobe Illustrator 25.0.0, SVG Export Plug-In . SVG Version: 6.00 Build 0)  -->
<svg version="1.1" id="Layer_1" xmlns="http://www.w3.org/2000/svg" xmlns:xlink="http://www.w3.org/1999/xlink" x="0px" y="0px"
	 viewBox="0 0 1000 1000" style="enable-background:new 0 0 1000 1000;" xml:space="preserve">
<style type="text/css">
	.st0{fill:#eaeaea;}
	.st1{fill:#eaeaea;}
	.st2{fill:#F9A71E;}
	.st3{fill:#56C5D0;}
</style>
<g>
	<path class="st0" d="M494.4,393c15.6,9.4,29.9,19.1,43.1,30.5c3.2,2.8,6.2,5.9,9.3,8.8c8.8,8.1,11.7,18.2,10.2,29.8
		c-0.8,6.8-5.9,10-11.3,12.8c-11.5,6-23,11.9-34.6,17.6c-3.6,1.8-5.5,3.8-4.9,8c0.4,3,0.1,6,0.1,9.7c11.1-5.1,21.6-9.9,32.1-14.8
		c6.4-2.9,12.8-5.7,19-8.8c3-1.5,3.5-0.6,3.5,2.4c-0.2,6.9-0.2,13.7,0,20.6c0.1,3-0.9,4.5-3.7,5.8c-31.1,14.2-62.2,28.6-93.3,42.9
		c-34.3,15.8-68.5,31.6-102.8,47.4c-1.1,0.5-2.2,0.9-3.9,1.6c0-9.2,0-18,0-26.7c0-2.6,2.2-2.6,3.8-3.3
		c40.2-18.6,80.4-37.1,120.6-55.6c0.7-0.3,1.4-0.6,2.1-0.9c10.9-5,10.9-5,10.6-17.2c-0.1-2.7-0.5-3.4-3.3-2.4
		c-6.4,2.4-13.1,4.2-20.1,3.5c-10-1-15.8-6.7-17.1-16.6c-1.3-10.6,0.4-20.5,6.6-29.6c9.2-13.5,19.9-25.8,31.4-37.4
		c2-2,2.8-4,2.7-6.8C494.2,407.4,494.4,400.7,494.4,393z M505.9,473.5c7-2.1,15-6.3,19.5-10.2c7.9-6.9,7.1-13.6-2.3-18.5
		c-4.6-2.4-9.7-3.4-14.7-4.6c-2.2-0.5-2.5,0.4-2.5,2.3C506,452.8,505.9,463,505.9,473.5z M494.3,450.7c-0.4-0.2-0.8-0.4-1.2-0.6
		c-6.6,6.7-13.2,13.4-19.7,20.2c-0.9,1-1.7,2.2-2.3,3.4c-2.2,4.4-0.9,7,3.9,7.7c5.8,0.8,11.5-0.3,17.2-1.5c1.6-0.4,2.1-1.2,2.1-2.9
		C494.3,468.2,494.3,459.4,494.3,450.7z"/>
	<path class="st1" d="M103.6,484.7c0,8.6-0.1,16.5,0.1,24.4c0.1,2.9-0.9,4.2-3.5,5.4c-22.5,10.5-44.9,21.1-67.3,31.7
		c-3.2,1.5-6.4,2.9-9.1,5.3c-4.9,4.3-6.7,10.3-4.6,16c1.8,5,5.7,7.1,13,7.1c4.6,0,9-1,13.3-2.9c27.2-12.7,54.3-25.3,81.6-37.8
		c3.1-1.4,4.2-3,4.1-6.4c-0.2-41-0.1-82-0.3-123c0-3.6,1-5.4,4.4-6.6c7.1-2.6,14-5.8,21-8.8c1,1.6,0.5,3.1,0.5,4.5
		c0,46.2-0.1,92.4,0.1,138.5c0,11.3-4.8,18.6-15,23.2c-27.6,12.5-55.1,25.2-82.6,37.8c-10.1,4.6-20.7,7.3-31.9,6.3
		c-11-1.1-18.8-6.6-23-16.9c-3.8-9-5.2-18.5-4.1-28.2c1.6-15.1,9.4-26.2,23.2-32.6c25.9-12.1,51.9-24,77.9-36
		C102,485.4,102.5,485.2,103.6,484.7z"/>
	<path class="st0" d="M239,503.8c-7.6,3.9-14.7,7.6-22.1,10.7c-9.2,3.8-18.4,7.1-28.4,8.4c-3.7,0.5-7.3,0.3-10.9-0.7
		c-5.8-1.6-9.2-5.8-9.6-11.5c-0.8-11.2-1-22.5,2.9-33.4c6.7-19.1,22.7-26.5,43.8-20.2c15,4.4,25.6,14.2,33.5,27.3
		c3.9,6.5,6.9,13.6,9,20.9c4,13.5-3,30.4-15.5,36.2c-27.9,13-55.9,25.6-84.5,38.7c0-9.4-0.1-18.4,0.1-27.5c0-2.1,2.3-2.2,3.8-2.8
		c23.3-10.8,46.7-21.5,70-32.3C239.4,513.8,239.4,513.8,239,503.8z M202,479.3c-1.4-0.2-3.9,0.5-6.4,0.9
		c-8.8,1.6-12.7,7.4-11.4,16.1c0.4,2.3,1.1,2.8,3.3,2c9.2-3.6,18.4-7.2,27.7-10.6c2.5-0.9,2.2-2,0.9-3.5
		C212.7,480.1,208.1,479.5,202,479.3z"/>
	<path class="st2" d="M734.2,546.4c10.5-13.3,21.7-26,34.2-37.4c50.3-45.7,105.9-83.2,169.3-108.5c13.2-5.2,26.7-9.5,41.1-9.9
		c3.3-0.1,6.7-0.1,10,0.8c8.8,2.3,12.6,8.2,10.7,17.1c-2.3,10.6-8.1,19.3-14.5,27.7c-16.6,21.9-36.9,40.1-58.1,57.5
		c-0.8,0.7-1.6,1.4-2.3,2.1c-1.1,0.8-2.2,1.7-3.3,2.5c-0.7,0-1.5,0-2.3,0c0.5-1.8,2-2.4,3.2-3.3c17.8-14.7,34.9-30.2,48.3-49.1
		c4.4-6.2,8.3-12.8,9.8-20.5c1.4-7-1.8-12-8.6-13.8c-4.4-1.2-8.8-1.1-13.2-0.5c-11.6,1.5-22.6,5-33.4,9.3
		c-45.5,18.5-86.1,45.1-123.7,76.3c-16.5,13.7-31.9,28.4-44.4,45.9c-4.2,5.9-7.9,12-9.6,19.1c-2.1,8.6,2,14.4,10.7,15.5
		c4.9,0.6,9.8,0.3,14.6-0.5c16.8-3,32.4-9.5,47.8-16.5c0.9-0.4,2.3-2.5,3.3-0.4c0.7,1.5-1.1,1.9-2.1,2.4
		c-18.4,9.3-37.2,17.7-57.1,23c-9.9,2.6-19.9,5-30.2,3c-9.9-2-14-8.1-11.8-17.9c1.2-5.4,3.6-10.3,6.3-15.1c0.6-1.2,1.8-2.1,1.7-3.6
		l0,0c0.8-0.1,0.9-0.7,1-1.3c0.8-1,2.2-1.6,1.8-3.2c0,0-0.1,0-0.1,0C733.9,547.4,734,546.9,734.2,546.4z"/>
	<path class="st3" d="M733.3,547.1c0.4,1.6-1,2.3-1.8,3.2c-0.3,0.5-0.7,0.9-1,1.3c0,0,0,0,0,0c-6.8,2.3-12,6.9-17.5,11.2
		c-4.6,3.6-8.7,7.7-11.2,13c-2.8,6-1.3,10.9,4.4,14.4c4.9,3,10.3,4.4,15.9,5.2c19.2,2.9,38.4,1.4,57.4-1.2
		c32.4-4.3,64-12.1,94.9-22.7c25-8.6,49.4-18.5,71.5-33.2c7-4.7,13.7-9.8,18.1-17.2c4.2-7,2.5-13-4.6-16.9c-2.5-1.4-5.3-2.4-8.1-3.1
		c-9.8-2.6-19.9-2.7-29.9-2.9c1.1-0.8,2.2-1.7,3.3-2.5c13,0.2,25.9-0.8,38.9,1c7.1,1,14.2,2.4,20.5,5.8c8.4,4.6,10.5,11.6,5.7,19.9
		c-6.3,10.8-16.3,17.6-26.6,24c-32,19.9-67,32.7-102.8,43.6c-29.6,9-59.8,15.8-90.5,19.8c-24.4,3.1-48.9,5.4-73.3,0.3
		c-4.2-0.9-8.3-2.2-12-4.2c-8.7-4.8-10.7-12.2-5.5-20.7c5.1-8.3,12.6-14,20.4-19.4C710.1,558.6,721.1,551.8,733.3,547.1z"/>
	<path class="st0" d="M334.6,467.6c11.5,6.7,21.9,13.8,31.9,21.4c8.8,6.6,17,13.9,24.3,22.1c7.3,8.3,7.1,18,5.8,27.6
		c-0.8,5.8-6.4,8.6-11.4,11c-16.3,7.9-32.5,15.9-48.9,23.6c-7.3,3.5-15.1,5.8-23.3,5.7c-10.4-0.1-16.9-5.5-18.7-15.7
		c-1.8-9.9-0.6-19.4,4.9-28.1c9.2-14.7,20.7-27.5,32.8-39.8c2.1-2.2,2.9-4.2,2.9-7.2C334.5,481.6,334.6,474.9,334.6,467.6z
		 M319.9,556.4c0.7-0.1,2.3-0.1,3.8-0.5c18.6-5,34.9-14.8,51.4-24.3c2.2-1.2,0.9-2.4,0.2-3.6c-4.8-7.6-11.4-13.4-18.9-18.3
		c-1.5-1-2.6-1-4.1,0.1c-11.5,8.3-23,16.7-32.7,27.1c-2.8,3-5.4,6.2-7,10.1C310.1,552.9,312.6,556.5,319.9,556.4z"/>
	<path class="st0" d="M434.4,387.9c0,11.7,0,22.8,0,33.9c0,34.3,0,68.5,0.1,102.8c0,3.3-0.7,5.2-4,6.5c-6.1,2.4-12.1,5.1-17.8,8.1
		c-4.3,2.3-4.4,0.6-4.4-3.1c0.1-34.3,0.1-68.5,0.1-102.8c0-10.1,0-20.1,0-30.2c0-1.6-0.4-3.3,1.7-4.2
		C418.1,395.4,426.1,391.7,434.4,387.9z"/>
	<path class="st1" d="M291.7,388.4c0,2.1,0,3.5,0,4.8c0,43.9,0,87.8,0.1,131.7c0,3.5-1,5.1-4.2,6.3c-7.2,2.8-14.2,6-21.8,9.3
		c0-1.9,0-3.2,0-4.5c0-44,0-88.1-0.1-132.1c0-3.2,0.9-4.8,3.9-6C276.9,395.1,283.9,391.9,291.7,388.4z"/>
	<path class="st3" d="M734.2,546.4c-0.2,0.4-0.3,0.9-0.9,0.7C733.3,546.6,733.6,546.4,734.2,546.4z"/>
</g>
</svg>
