<?xml version="1.0" encoding="utf-8"?>
<!-- Generator: Adobe Illustrator 25.0.0, SVG Export Plug-In . SVG Version: 6.00 Build 0)  -->
<svg version="1.1" id="Layer_1" xmlns="http://www.w3.org/2000/svg" xmlns:xlink="http://www.w3.org/1999/xlink" x="0px" y="0px"
	 viewBox="0 0 1000 1000" style="enable-background:new 0 0 1000 1000;" xml:space="preserve">
<style type="text/css">
	.st0{fill:#eaeaea;}
	.st1{fill:url(#SVGID_1_);}
</style>
<g>
	<path class="st0" d="M184.6,935.1c1.2-6.4,2.6-12.8,3.4-19.3c0.4-3.4,2-4.3,5-3.8c3.7,0.6,1.3,3,1,4.5c-1.7,9.7-3.8,19.3-5.5,29
		c-0.5,2.6-1,4.1-4.2,4.1c-3.4,0-3.7-2.1-4.2-4.3c-1.6-7.1-3.1-14.1-5.7-21.1c-1.6,7.3-3.4,14.6-4.8,22c-0.5,2.9-1.9,3.2-4.3,3.3
		c-2.5,0.1-3.4-1-3.8-3.3c-1.9-10.2-4-20.5-5.9-30.7c-0.2-1.2-1.4-3.4,1.3-3.5c1.9-0.1,4.2-1,4.8,2.5c0.9,6.2,2.3,12.3,3.7,20
		c3.3-6.7,3.6-12.6,5-18.2c0.7-2.7,1.1-4.4,4.5-4.6c4-0.2,4.3,2.2,4.9,4.9c1.3,6.2,2.5,12.4,3.8,18.6
		C183.9,935.2,184.3,935.1,184.6,935.1z"/>
	<path class="st0" d="M196.2,935.9c-0.1-8.7,4.6-14.3,11.6-14.3c6.4,0.1,11.1,5.7,11.3,13.6c0.2,8.3-4.7,14.5-11.5,14.6
		C200.7,949.8,196.2,944.4,196.2,935.9z M213,935.6c-0.4-3.7-0.6-8.1-5.6-7.9c-4.7,0.2-5.3,4.4-5.2,8.2c0.1,3.8,0.7,8,5.6,7.9
		C212.7,943.6,212.6,939.2,213,935.6z"/>
	<g>
		<linearGradient id="SVGID_1_" gradientUnits="userSpaceOnUse" x1="0.3736" y1="447.3167" x2="797.6139" y2="447.3167">
			<stop  offset="0.1056" style="stop-color:#FF9900"/>
			<stop  offset="0.2959" style="stop-color:#F06D17"/>
			<stop  offset="0.5219" style="stop-color:#E13E2E"/>
			<stop  offset="0.7228" style="stop-color:#D51D3F"/>
			<stop  offset="0.8891" style="stop-color:#CE0849"/>
			<stop  offset="1" style="stop-color:#CC014D"/>
		</linearGradient>
		<path class="st1" d="M659.1,798.8c-9.8,12-19.9,22.9-30.2,33.5c-6.9,7.1-14.3,13.7-21.3,20.6c-2.2,2.2-4.2,2.5-7.2,1.8
			c-21.2-4.9-41-12.7-57.2-27.8c-14.9-13.9-20.7-32.2-24.9-51.3c-1.1-5.1-2.2-10.3-2.3-15.5c-0.2-5.5-2.4-6.1-6.6-4.1
			c-14.7,6.8-30.2,11.7-45.7,16.5c-21.4,6.5-43.2,10.9-65.8,7.8c-28.3-4-46.9-24.1-49.4-52.4c-1-11-0.9-22,0.3-33.4
			c-12.3,3.2-23.9,6.5-35.6,9.3c-26.4,6.3-53,11.5-80.3,10.1c-23-1.2-43.1-9.6-58.3-27.2c-10-11.6-13.5-26.3-16.5-41
			c-5-24.8,0.6-48.4,7.6-71.9c7.8-26,18.3-50.9,30.1-75.3c1-2,2.6-3.9,2.6-6.8c-12.9-1-25.8-2.4-38.5-4.9
			c-46.2-9-81.5-34.1-109.9-71.1C19,375.4,3,330.3,0.5,279.9c-0.6-11.8,0.5-23.6,0.6-35.4c0-4.1,1.6-6.5,5.6-8.4
			c21.6-10,43-20.2,64.5-30.4c1-0.5,2.1-0.8,4-1.6c-1,9.7-2.2,18.8-2.8,27.9c-2.6,39.9-1.9,79.6,14.2,117
			c21.9,51,60.1,84.4,113.7,99.8c6.5,1.9,13.1,2.7,19.7,3.6c3.6,0.5,5.5-0.7,7.5-3.7c25.2-38.8,51.9-76.5,80.5-112.9
			c22.8-29,47.8-55.9,73.6-82.2c44.9-45.8,91-90.4,142.6-128.6c45.8-34,95.8-60.5,150.9-76.3c25.4-7.3,51.4-11.4,78-8
			c6.2,0.8,12.3,1.9,18.1,3.9c20.2,7,27.2,18,26.2,41c-1.5,34.4-15.8,64.4-33.1,93.5c-30.4,51-71.5,92.2-116.8,129.6
			c-15.6,12.8-31.5,25.2-47.9,37c-10.5,7.5-20.8,15.3-31.4,22.6c-53.9,36.9-110.2,69.4-172.1,91.3c-29.7,10.5-59.1,22.5-90.4,27.9
			c-20.4,3.6-41,5.7-61.7,6.9c-3.1,0.2-4.9,1.1-6.2,4c-13.5,30.5-24,61.7-29.5,94.9c-10,59.3,41.8,94.7,81.9,93.9
			c20.8-0.4,41.1-4.4,61.2-9.2c2-0.5,3.3-1.2,4-3.5c19.7-69.8,57.9-128.4,107.2-180.9c41.3-43.9,86.8-82.2,139.2-111.9
			c31.7-17.9,65.2-32,100.3-41.4c14.6-3.9,29.7-5.1,44.9-3.4c18.6,2,25.5,10.5,22.2,28.8c-3.5,19.6-12.3,37-23,53.4
			c-24,36.8-54.7,67.6-88.5,95.5c-12.4,10.2-25.1,19.9-37.7,29.7c-14.8,11.5-29.9,22.7-45,33.7c-28.2,20.4-57.5,39-88.1,55.5
			c-26.7,14.5-54,27.9-81.7,40.3c-3.7,1.7-4.7,3.6-4.6,7.3c0.5,14.4,3.6,28.3,12.3,39.8c6.5,8.6,16.6,12.3,27.3,13.6
			c25.7,3.1,50.4-2.1,75-8.2c2.7-0.7,3.1-2.5,3.7-4.6c12.9-50.7,39.9-93.1,76.4-129.9c20.8-21,42.4-40.8,68.8-54.7
			c13.8-7.3,28.4-12.2,43.7-15.2c24.1-4.8,33.2,14.2,30.6,31.2c-1.2,7.9-5,14.6-9.2,21.1c-13.2,20.9-30.2,38.7-47,56.6
			c-35.8,38.1-77.7,68.6-121.3,96.9c-4.1,2.7-5.2,5.1-4,9.8c3.7,14.6,10.4,27.5,21.3,37.7c5.7,5.4,13.1,8.7,20.5,11.6
			c18,7,37,9.7,56.1,11.4C656.1,798.4,657.2,798.5,659.1,798.8z M287.3,458.3c32-1,64-5.5,95.6-14c35.8-9.6,68.6-26.1,100.5-44.4
			c50.3-28.9,100.5-58.1,142.3-99.4c30.4-29.9,60.8-59.7,85.3-94.8c15.2-21.8,27.5-44.9,30.9-71.7c2.2-17.2-0.3-33.4-13.7-46
			c-12.3-11.4-27.5-14.7-43.6-13.4c-34.8,2.7-65.7,17.5-97,31.4c-32.5,14.5-59.2,37.6-86.7,59.2c-18.8,14.8-36.9,30.5-54.3,46.9
			c-13.7,13-27.6,25.7-40.6,39.5c-36.8,39-68.4,81.9-97.9,126.5c-15.6,23.5-30.3,47.6-44.2,72.1c-2.5,4.3-1.6,6,3.2,7
			C273.6,458.6,280.1,457.9,287.3,458.3z M718,386.4c0.2-9.4-4.4-15.7-12.7-18c-9.1-2.4-18.4-2.7-27.7-1.6
			c-24.8,2.9-47.3,12-68.1,25.5c-39.5,25.6-77.1,53.6-109.8,87.5c-22.8,23.6-42.7,49.6-58.7,78.3c-12.6,22.6-22.5,46.5-31.2,70.9
			c-2.4,6.7-5.2,13.3-5.9,20.6c-0.7,7.4,2,9.7,9.1,7.7c3.1-0.9,6.2-2.1,9.1-3.6c16.9-8.5,33.9-16.8,50.6-25.7
			c61.9-33.1,119.1-72.9,168-123.7c29.6-30.8,56.4-63.8,73-103.8C715.8,395.7,717.6,390.9,718,386.4z M674.5,554
			c-0.3,0-1.2,0.1-2.2,0.2c-27.3,1.7-47,17.7-64.5,36.3c-21.7,23.1-36.8,50.5-47,80.6c-3.1,9-5.6,18.1-7.3,27.4
			c-0.6,3.3-1.8,7.4,1.2,9.9c2.9,2.5,6.7,0.9,9.9-0.5c3.7-1.6,7.5-3.2,10.9-5.4c41.6-26.9,77.7-59.3,103.2-102.4
			c5.4-9.1,9.2-18.7,11-29.1C691.7,559.1,687.3,553.8,674.5,554z"/>
		<path class="st0" d="M754.4,821.3c0-1.8,0-3.7,0-5.5c0-24.4,0.1-48.8-0.1-73.2c0-4.2,1.2-5.1,5.2-5.1c14.8,0.1,14.8-0.1,14.8,14.5
			c0,36.6-0.1,73.2,0.1,109.7c0,4.3-1.2,4.9-5.3,5.5c-12.4,1.9-18.7-3-23.7-14.4c-9.6-21.7-21.2-42.4-32-63.6
			c-0.8-1.5-1.6-2.9-3.4-4.3c0,1.8,0,3.6,0,5.4c0,24-0.1,48,0.1,72c0,3.7-0.9,5.2-4.8,4.8c-4.9-0.6-11.5,2.1-14.4-1.1
			c-2.4-2.8-0.8-9.2-0.8-14c0-36.2,0.1-72.4-0.1-108.6c0-4.2,0.9-5.3,5.5-6c11.8-1.7,17.6,2.9,22.5,13.6
			c10.9,23.8,23.3,47,35.1,70.4C753.6,821.4,754,821.3,754.4,821.3z"/>
		<path class="st0" d="M999.6,867c-8.7,0-16.8-0.2-24.8,0.1c-3.2,0.1-3.7-2.1-4.7-4.1c-8.5-17.5-16.9-35.1-25.4-52.6
			c-0.6-1.1-1.1-2.3-2-4.1c-5.8,7.2-11.2,14-16.6,20.7c-1.2,1.5-0.8,3.3-0.9,5c0,10.3-0.1,20.5,0.1,30.8c0.1,3.2-0.6,4.6-4.1,4.3
			c-5.5-0.5-12.7,2.2-16.2-1c-3.3-3-0.9-10.2-0.9-15.6c-0.1-35.6,0-71.2-0.1-106.8c0-4.5,0.6-6.8,5.8-6.1c5,0.6,11.5-2,14.6,1
			c3.1,3,0.9,9.5,0.9,14.5c0.1,13.3,0,26.6,1.1,40.4c1.2-1.5,2.5-3,3.6-4.6c12-15.9,24.1-31.7,36-47.7c1.9-2.6,3.9-3.8,7.2-3.7
			c7.7,0.3,15.4,0.1,24.4,0.1c-2.1,2.6-3.5,4.5-4.9,6.4c-10.7,13.5-21.3,27-32.2,40.3c-2.2,2.7-2.3,4.6-0.7,7.6
			c12.4,22.9,24.5,46,36.8,69C997.5,862.7,998.4,864.6,999.6,867z"/>
		<path class="st0" d="M892.2,867c-6.8,0-13.2-0.2-19.6,0.1c-3,0.1-4-1.2-4.7-3.7c-2-7-4.6-13.9-6.4-21c-1-3.8-2.8-4.7-6.5-4.6
			c-10.8,0.2-21.7,0.3-32.5,0c-4-0.1-5.8,0.9-6.8,4.9c-1.7,6.9-4.1,13.7-5.9,20.6c-0.8,2.9-2,4.1-5.1,3.9c-4.6-0.3-9.3-0.3-13.9,0
			c-4,0.3-4.9-0.7-3.6-4.8c5.8-17.4,11.2-34.9,16.8-52.3c7.2-22.6,14.5-45.2,21.5-67.8c1.1-3.7,2.7-5,6.5-4.6
			c5.9,0.5,13.3-2.3,17.5,1.1c3.8,3.1,4.2,10.4,6,15.9c11.7,35.5,23.3,71.1,34.9,106.6C891,863,891.6,864.9,892.2,867z M853.1,815.7
			c-4.8-15.7-9.5-31.1-14.7-47.8c-5,16.8-9.6,32.2-14.3,47.8C834.1,815.7,843.3,815.7,853.1,815.7z"/>
		<path class="st0" d="M434.2,933.8c1.3-6,2.9-11.9,3.8-18c0.7-5.2,4.3-3.7,7.4-3.9c4-0.3,3,2.6,3,4.7c0.1,9.5,0,19,0,28.4
			c0,2,0.8,4.3-2.8,4.4c-3.6,0.1-2.9-2.2-3-4.2c0-6.8,0-13.5-0.9-20.5c-1.5,6.9-3.1,13.9-4.5,20.8c-0.5,2.2-0.7,3.9-3.8,3.9
			c-3.1-0.1-3.2-1.9-3.7-4.1c-1.2-6-2.5-11.9-3.8-17.9c-0.5,0-1.1,0.1-1.6,0.1c0,5.8,0.1,11.6,0,17.4c0,1.9,1,4.4-2.7,4.5
			c-3.4,0-3-2.2-3-4.3c0-9.7,0-19.4,0-29c0-2.1-0.4-4.6,3-4.2c2.7,0.4,6.3-1.8,7.2,3.4c1,6.2,2.6,12.3,4,18.4
			C433.2,933.8,433.7,933.8,434.2,933.8z"/>
		<path class="st0" d="M860.9,935.4c0-3.5,0.1-7,0-10.4c-0.1-2.4,1.5-3.8,3-2.7c3,2.3,5.7-0.7,7.7-0.2c5.7,1.6,10.9,0.7,16.5,0
			c3.6-0.4,5.2,3.7,5.4,7.1c0.3,5.8,0.1,11.6,0.2,17.4c0.1,2.4-1,2.8-3.1,2.9c-2.5,0.1-2.8-1.3-2.8-3.2c0-4.6,0.1-9.3-0.1-13.9
			c-0.1-2.1,0-4.7-2.8-5c-3-0.3-4.1,1.9-4.2,4.4c-0.3,4.4-0.3,8.9-0.6,13.3c-0.1,1.9,0.9,4.4-2.7,4.4c-3.9,0.1-3.1-2.5-3.1-4.7
			c-0.1-4.3,0-8.5-0.1-12.8c0-2.1,0.2-4.7-2.9-4.7c-2.8,0-4.1,2.1-4.2,4.6c-0.2,4.4-0.1,8.9-0.2,13.3c0,2.1,0.6,4.2-3,4.2
			c-3.6,0-2.9-2.2-2.9-4.3C860.8,941.9,860.9,938.6,860.9,935.4z"/>
		<path class="st0" d="M627.2,949.8c-6.5-0.1-10.2-2.8-11.8-9c-0.3-1.3-1.9-3.2,0.6-3.8c1.8-0.4,4.4-1.5,5.3,1.6
			c0.6,2.2,1.8,3.8,4.1,4.5c3.4,1,6.3,0.2,7.6-3.2c1.2-3.3-0.9-4.9-3.8-5.9c-2.4-0.8-4.8-1.5-7.1-2.5c-4.9-2.3-7.4-7.3-6.1-12.4
			c1.4-5.1,5-7.6,10.2-7.8c6.1-0.3,10.3,2.3,11.7,7.3c0.4,1.3,1.8,3.3-0.4,3.9c-1.7,0.5-4.4,1.7-5.4-1.2c-0.8-2.4-2.4-3.5-4.7-3.6
			c-2.4-0.2-4.9,0.1-5.6,2.9c-0.7,2.7,1.7,3.6,3.6,4.4c2,0.8,4.1,1.3,6,2c6.6,2.6,9.1,7.3,7.7,14.3
			C638.1,946.9,633.9,949.8,627.2,949.8z"/>
		<path class="st0" d="M542.4,946.5c-8,4.9-13.5,2.2-15.1-7.1c-0.6-3.5-0.5-7,0.5-10.3c1.2-4.1,3.6-7.6,8.5-7.3
			c3.3,0.2,6.3,2.5,10,0.5c2-1.1,2.2,1.3,2.2,2.8c0,8.7,0,17.4-0.2,26.1c-0.1,3.9-1.8,7.4-5.9,8.4c-4.1,1.1-8.5,1.4-12.1-1.7
			c-1.8-1.6-3.5-4-2.1-6c1.2-1.7,4.8-0.6,5.7,0.4c2.2,2.6,4.6,3.1,7.1,1.5C543.5,952.2,542.6,949.1,542.4,946.5z M533,935.2
			c0.3,3.6,0.1,8,4.7,8c4.7-0.1,5.1-4.5,5-8.3c-0.1-3.5-0.3-7.7-5-7.5C532.8,927.6,533.3,931.9,533,935.2z"/>
		<path class="st0" d="M683.1,924.9c-1.9,1.2-1.5,4.3-4.8,3.4c-2.6-0.8-3.5,2-3.7,4.1c-0.3,4.4-0.5,8.9-0.6,13.3
			c0,2,0.2,3.8-2.9,3.7c-2.8,0-3.1-1.3-3.1-3.6c0.1-6.8,0-13.5,0.1-20.3c0-1.4-0.5-4,1.8-3.4c5.7,1.7,11.2-1.4,16.8-0.2
			c2.1,0.5,2.1,1.9,2.6,3.3c1.3,4.3,2.7,8.6,4.5,14.4c1.8-5.9,3.3-10.2,4.4-14.6c0.8-3.1,2.8-3.7,5.2-3c3.3,1,0.6,3.3,0.3,4.6
			c-1.8,6.5-4.2,12.8-6.2,19.3c-0.6,2-1.2,3.4-3.8,3.4c-2.6,0-3.1-1.6-3.7-3.6C687.9,938.9,685.5,932.1,683.1,924.9z"/>
		<path class="st0" d="M905.1,947.3c0,3.5-0.1,6.4,0,9.3c0.1,2.2-0.7,3.1-3,3.1c-2.3,0-3-0.8-3-3.1c0.1-10.5,0.1-20.9,0-31.4
			c0-2.1,0.7-4.1,2.8-3c3.2,1.7,5.5,0.4,8.3-0.4c4.2-1.1,7,1.5,8.8,5.1c2.4,4.7,2.1,9.9,1,14.8C918.4,949.3,912.7,951.5,905.1,947.3
			z M905,934.7c0.2,2.6,0.1,4.5,1,6.3c1.1,2.1,2.6,3.6,5,2.7c3.9-1.4,3.6-5,3.6-8.2c0-3.3,0.1-6.8-3.9-8.1c-2.4-0.8-4.1,0.7-4.9,2.9
			C905.3,932,905.2,933.8,905,934.7z"/>
		<path class="st0" d="M291.5,930.7c0.1-5.1,0.9-10,4-14.2c3-4.1,7.2-5.8,12.2-5.1c4.6,0.6,7.8,3.2,9.4,7.6c0.5,1.2,2.1,3.1-0.5,3.7
			c-1.5,0.3-3.7,2.6-5-0.3c-1.5-3.6-4-5.2-7.8-4.2c-4.2,1.2-5.1,4.7-5.6,8.6c-0.4,3.5-0.3,7,0.4,10.4c0.7,3.2,2.6,5.8,6.1,6.2
			c3.3,0.4,5.6-1.6,6.5-4.6c0.8-2.9,2-2.8,4.5-2c3.5,1.1,2,3.1,1.3,5c-1.7,4.4-4.7,7.5-9.7,8c-5.3,0.6-9.5-1.2-12.4-5.7
			C292.4,940,291.5,935.5,291.5,930.7z"/>
		<path class="st0" d="M809.6,931.2c0.1,1.7,0.1,3.5,0.5,5.2c0.7,3.4,2.3,6.4,6,6.9c3.6,0.5,5.8-1.6,6.8-4.9
			c0.8-2.5,1.9-2.6,4.2-1.7c2.5,0.9,2.8,2,1.9,4.3c-1.8,4.6-4.6,8-9.8,8.7c-5.5,0.7-10.1-1-12.7-6c-4.8-8.8-4.6-17.8,0.3-26.5
			c2.6-4.6,7.1-6.4,12.4-5.8c4.8,0.6,8.1,3.3,9.8,7.9c0.4,1.2,1.6,2.9-0.5,3.3c-1.6,0.3-3.7,2.7-5,0c-1.8-3.7-4.3-5.6-8.3-4.3
			c-4.4,1.5-5.1,5.4-5.3,9.4c-0.1,1.2,0,2.3,0,3.5C809.7,931.1,809.6,931.2,809.6,931.2z"/>
		<path class="st0" d="M266.8,923.6c0-3.2,0.1-5.9,0-8.6c-0.1-2.1,0.5-3.2,2.9-3.1c2.1,0.1,3.1,0.6,3.1,3c-0.1,10.6-0.1,21.2,0,31.8
			c0,2-1.3,3.5-2.7,2.5c-3.6-2.5-6.4,0.2-9.6,0.5c-5.6,0.5-9.5-5.5-9.5-14.1c0-8.7,3.8-14.1,9.6-14
			C262.6,921.7,264,923.2,266.8,923.6z M266.9,935.5c-0.9-3.3,0-8.4-5.4-8.1c-4.6,0.3-4.6,4.7-4.6,8.1c0,3.6-0.2,8.4,4.8,8.4
			C266.9,943.9,266.1,938.9,266.9,935.5z"/>
		<path class="st0" d="M592.6,924.1c0-3.4,0.1-6.3,0-9.2c-0.1-2.3,0.7-3,3-3c2.3,0,3,0.8,3,3c-0.1,10.4-0.1,20.9,0,31.3
			c0.1,3.2-2,4.3-3.7,2.9c-2.7-2-4.2-0.6-6.5,0.2c-4.3,1.6-7.6-0.7-9.5-4.5c-2.8-5.9-2.9-12-0.2-17.9
			C581.1,921.1,585.5,920.3,592.6,924.1z M582.8,935.4c0.6,3.8-0.3,8.7,5,8.5c4.9-0.2,4.7-4.8,4.7-8.5c0-1.7-0.4-3.4-0.8-5.1
			c-0.5-1.8-1.8-2.9-3.8-3c-2.3-0.1-3.6,1.4-4.3,3.2C583.1,932.1,583,933.9,582.8,935.4z"/>
		<path class="st0" d="M984.8,938.7c1.2-4.4,2.7-8.7,3.6-13.2c0.6-3,2.2-4,4.8-3.4c3.2,0.8,1.3,2.9,0.8,4.5
			c-2.6,8.9-5.2,17.7-7.9,26.6c-1.2,3.9-3.2,7-8,7c-2.2,0-3.6-0.3-4-2.9c-0.3-2.5,0.8-2.6,2.8-3c3.9-0.8,4.5-3.8,3.5-7.1
			c-2.1-6.8-4.4-13.5-6.3-20.4c-0.3-1.2-3.1-3.6,0.4-4.5c2.6-0.7,4.7-0.2,5.4,3.4c0.8,4.5,2.4,8.8,3.7,13.2
			C984,938.7,984.4,938.7,984.8,938.7z"/>
		<path class="st0" d="M353.3,937c0.1,2.8-0.4,6.3,0.7,9.7c0.8,2.7-1.3,3.4-2.7,2.5c-3-1.9-5.3-0.8-8.2,0.2c-3.6,1.2-7-0.2-8.4-4
			c-1.5-4.1-1.1-8.2,3.2-10.6c2-1.1,4.3-1.5,6.6-2.1c1.9-0.6,4.1-1.1,2.9-3.7c-1.1-2.6-4-2.5-5.3-1.2c-2.1,2-3.9,2.8-6.5,1.6
			c-0.8-0.4-0.5-1.3-0.2-2c1.1-2.9,3-4.9,6.1-5.5c7.8-1.6,11.9,1.5,12.1,9.3C353.4,932.9,353.3,934.6,353.3,937z M345.1,937
			c-1.9,0.9-5.2,0.7-5.1,4.5c0.1,1.9,1.2,3.5,3.2,3.3c3.1-0.3,4.4-2.5,4.4-5.6C347.6,937.7,347.5,936.4,345.1,937z"/>
		<path class="st0" d="M949.2,935.1c0-3.5,0.1-7,0-10.5c-0.1-2.7,2.2-3.4,3.3-2.4c2.8,2.6,4.7,0.7,7.1-0.2c4.4-1.7,9,1,9.4,5.8
			c0.5,6.3,0.2,12.8,0.4,19.2c0,2.2-1.2,2.4-2.9,2.4c-1.8,0-3-0.2-3-2.4c0.1-4.6,0-9.3,0-13.9c0-2.5,0.2-5.6-3.4-5.7
			c-3.8-0.2-4.7,2.8-4.8,5.9c-0.1,4.3-0.2,8.5-0.1,12.8c0.1,2.4-0.5,3.5-3.2,3.4c-2.6,0-2.8-1.3-2.7-3.3
			C949.3,942.5,949.2,938.8,949.2,935.1z"/>
		<path class="st0" d="M522.4,939.1c0,1.2,0.1,2.3,0,3.5c-0.2,2.2,1.8,4.9-0.2,6.5c-1.6,1.3-4,0.4-5.6-1.6c-0.1-0.2-1.8,1-2.8,1.4
			c-4.3,1.9-8.5,0.6-10.3-3.2c-2-4.3-0.3-9.3,4-11.2c1.9-0.8,4-1.3,6-1.9c1.7-0.5,3.6-0.8,2.8-3.3c-0.8-2.4-2.9-2.1-4.8-1.9
			c-1.3,0.2-1.7,1.4-2.6,2.1c-1.4,1.2-3.1,0.6-4.3-0.1c-1.5-0.9-0.5-2.5,0.1-3.6c2.5-4.6,6.8-4.5,11.1-4.1c3.7,0.4,6.1,2.5,6.2,6.4
			c0.2,3.6,0,7.3,0,11C522.2,939.1,522.3,939.1,522.4,939.1z M512.2,944.8c3.3-0.7,4.2-3.1,4.5-6c0.2-2-0.9-2.4-2.5-1.9
			c-2.4,0.9-5.7,0.8-5.3,4.7C509,943.7,510.3,944.7,512.2,944.8z"/>
		<path class="st0" d="M472.5,938.9c0,1.3-0.1,2.7,0,4c0.2,4.1,2.1,10.1-5.6,4.6c-1.1-0.8-1.9,0.9-2.9,1.3c-4.3,1.9-8,1.3-10.4-3
			c-2.4-4.4-0.4-9.5,4.3-11.5c1.6-0.7,3.4-0.9,5-1.5c1.7-0.7,4.9-0.6,3.3-3.9c-1.2-2.5-4.1-2.4-5.4-1.1c-1.9,1.8-3.5,2.8-5.9,1.8
			c-1.2-0.5-0.9-1.6-0.6-2.5c0.9-2.8,2.8-4.5,5.7-5.2c7.8-1.9,12.2,1.4,12.5,9.5C472.6,933.9,472.5,936.4,472.5,938.9
			C472.5,938.9,472.5,938.9,472.5,938.9z M466.7,939.2c0.2-1.6-0.3-2.9-2.1-2.2c-2.4,0.8-5.7,0.6-5.7,4.5c0,2,1.2,3.5,3.2,3.3
			C465.3,944.5,466.4,942.1,466.7,939.2z"/>
		<path class="st0" d="M381.1,941.9c3-1,5.3-2.3,7.2,1.2c1.1,2,3.6,2.2,5.7,1c0.7-0.4,1.7-1.4,1.6-2.1c-0.1-2.6-2.4-2.4-4.2-3.1
			c-3.7-1.4-8.3-1.8-9.2-6.7c-0.8-4.1-0.2-7.7,4.2-9.7c4.5-2.1,10.9-0.9,13.1,2.7c0.6,1,2.2,2.4,0.7,3.5c-1.3,0.9-3.2,2-4.7,0.6
			c-1.1-1.1-2.1-2.3-3.7-2.5c-1.6-0.2-3.3-0.1-3.9,1.6c-0.7,2.1,1.1,2.5,2.6,3c2,0.7,4,1.3,6,2c4,1.4,5.8,4.4,5.3,8.5
			c-0.5,4-2.9,6.7-6.9,7.6C388.3,951.1,384,948.8,381.1,941.9z"/>
		<path class="st0" d="M943.7,937.1c0,2.9-0.6,5.9,0.1,8.7c1.2,4.7-2.3,4.4-3.9,3.3c-2.2-1.6-3.2-1.1-5.2-0.1
			c-4.3,2.1-8.4,0.5-10.1-3.5c-1.9-4.2-0.3-9,3.7-10.8c2.1-1,4.4-1.4,6.6-2.1c1.5-0.4,3.2-0.8,2.7-2.9c-0.5-2.1-2.2-2.5-4.1-2.3
			c-0.7,0.1-1.8,0.2-2.1,0.7c-1.8,2.6-4.7,3.3-6,0.8c-1.3-2.5,1.3-4.9,3.9-6.2c7.3-3.6,13.9,0.2,14.2,8.2c0.1,2.1,0,4.3,0,6.4
			C943.6,937.1,943.6,937.1,943.7,937.1z M937.3,936.5c-3,1.2-7.2,0.4-7.4,5c-0.1,2.1,1.6,3.8,3.9,3.2
			C937.7,943.5,938.2,940.4,937.3,936.5z"/>
		<path class="st0" d="M478.1,936.3c0-3.7,0.1-7.3,0-11c-0.1-2.7,1.9-4.3,3.3-3c3,2.7,4.8,0.4,7.2-0.4c4.4-1.4,8.8,1.1,9.3,6
			c0.6,6.3,0.3,12.7,0.4,19.1c0,2.2-1.3,2.4-3,2.4c-1.8,0-2.9-0.4-2.9-2.5c0.1-4.2,0.1-8.5,0-12.7c-0.1-2.8,0.6-6.6-3.5-6.8
			c-4.7-0.3-4.7,3.7-4.8,7c-0.1,3.9-0.2,7.7-0.1,11.6c0.1,2.4-0.6,3.5-3.3,3.5c-2.5,0-2.8-1.4-2.8-3.3
			C478.1,942.8,478.1,939.5,478.1,936.3z"/>
		<path class="st0" d="M856.5,935.4c0.1,8.6-4.6,14.4-11.6,14.4c-6.8-0.1-11.2-5.6-11.3-14c-0.1-8.2,4.6-14,11.3-14.1
			C851.8,921.5,856.4,927.1,856.5,935.4z M850.7,935.7c-0.5-3.5-0.6-7.8-5.3-8c-5-0.2-5.4,4.1-5.5,7.8c0,3.7,0.1,8,5.1,8.3
			C849.9,944,850.2,939.6,850.7,935.7z"/>
		<path class="st0" d="M552.7,935.5c0.2-2.2,0.2-4.7,1.2-7.1c2.5-5.8,7.3-8.3,12.5-6.3c4.3,1.7,8.2,10.1,6.8,14.3
			c-0.5,1.6-1.6,1.4-2.7,1.4c-2.5,0-5-0.1-7.5,0.1c-1.4,0.1-3.4-1-4,1c-0.6,1.8,0.5,3.4,1.9,4.5c1.5,1.2,3.2,1.4,4.7,0
			c0.6-0.5,0.9-1.3,1.4-1.8c1.6-1.6,3.5-0.5,4.8,0.1c2.2,1.1,0.2,2.7-0.4,3.8c-3.5,5.7-12.2,5.8-16.2,0.2
			C553,942.7,552.7,939.3,552.7,935.5z M563.3,933.5c1.3-0.7,3.9,1.2,3.9-1.8c0-2.6-1.4-4.5-4.3-4.3c-2.5,0.1-3.9,2-3.9,4.3
			C559,935,561.9,932.7,563.3,933.5z"/>
		<path class="st0" d="M642.9,935.4c0.2-1.5,0.4-3.5,0.9-5.3c1.6-6.5,6.8-9.9,12.4-8.2c4.5,1.4,8.8,9.7,7.5,14.4
			c-0.4,1.6-1.4,1.5-2.6,1.5c-2.5,0-5-0.1-7.5,0c-1.4,0.1-3.4-1-4.1,1c-0.6,1.7,0.3,3.4,1.8,4.6c1.6,1.2,3.2,1.2,4.8,0.1
			c0.6-0.4,0.8-1.3,1.4-1.8c1.8-1.7,3.9-0.5,5.2,0.4c1.3,0.9-0.2,2.5-0.9,3.5c-3.4,5.7-12.3,5.8-16.2,0.2
			C643.5,942.8,643.2,939.3,642.9,935.4z M653.7,933.6c0.8-1.5,4,1.7,3.9-2.1c-0.1-2.3-1.4-4.1-3.9-4.2c-2.8-0.1-4.3,1.8-4.3,4.4
			C649.4,934.6,652,932.8,653.7,933.6z"/>
		<path class="st0" d="M763.2,942.1c-1.4,5.3-4.6,7.9-10,7.7c-5.6-0.2-8.3-3.6-9.5-8.5c-1.2-4.8-1-9.6,1.2-14.1
			c2.6-5.2,7.8-7,12.6-4.6c3.9,2,7.5,10.5,6.1,14.1c-0.7,1.9-2.2,1.2-3.4,1.2c-2.1,0.1-4.3-0.1-6.4,0.1c-1.5,0.2-3.8-1.2-4.4,1.3
			c-0.4,1.8,0.6,3.4,2.1,4.4c1.6,1.1,3.7,1.3,4.6-0.4C758.1,939.8,760.5,941.3,763.2,942.1z M753.4,933.5c1.3-0.9,4.3,1.5,4.2-2.1
			c-0.1-2.3-1.4-4.1-4-4.2c-2.5-0.1-3.9,1.5-4.2,3.9C749,934.9,752,932.7,753.4,933.5z"/>
		<path class="st0" d="M776.9,921.7c2.8-0.1,5.6,0.4,7.6,3c0.9,1.1,2.4,2.7,1.1,3.9c-1.2,1-3.3,2.5-5.1,0.3
			c-0.9-1.1-1.9-1.9-3.3-2.1c-1.6-0.2-3.4,0-4,1.5c-0.9,2,1,2.5,2.5,3c2.5,0.9,5.2,1.6,7.6,2.8c4.3,2.1,4.7,6.1,3.3,10
			c-1.9,5.3-6.5,6.1-11.5,5.6c-4.1-0.4-6.7-2.7-8.1-6.5c-0.4-1.2,0.3-1.8,1.4-1.9c1.5-0.1,3.3-1.9,4.5,0.6c0.8,1.7,2.2,2.7,4.1,2.8
			c1.8,0.1,3.6-0.3,4-2.4c0.4-2-1.2-2.6-2.8-3c-1.5-0.4-3-0.9-4.4-1.3c-4.6-1.5-7.3-4.5-6.4-9.5
			C768.3,923.4,771.8,921.5,776.9,921.7z"/>
		<path class="st0" d="M366.6,949.8c-2.3,0.1-5.5-1-7.7-4.2c-0.8-1.2-2.4-2.9-0.7-3.9c1.4-0.8,3.8-2.7,5.4,0.4
			c0.8,1.5,2,2.4,3.6,2.6c1.8,0.2,3.7,0,4.3-2c0.8-2.3-1-2.9-2.7-3.5c-2.4-0.8-4.9-1.4-7-2.6c-3.5-1.9-4.6-5.2-3.6-8.9
			c1.2-4.6,4.7-6.2,9.3-6.1c4,0,7.3,1,8.9,5c0.4,0.9,0.7,1.9-0.6,2.3c-1.4,0.4-2.9,1.7-4.3,0.2c-1-1-1.8-2.1-3.2-2.3
			c-1.8-0.3-3.8-0.3-4.5,1.6c-0.8,2.1,1.2,2.4,2.7,2.9c1.5,0.5,2.9,1,4.4,1.4c4.9,1.4,7.7,4.4,6.7,9.8
			C376.7,947.8,373,949.7,366.6,949.8z"/>
		<path class="st0" d="M730,949.8c-3.9,0.1-6.7-1.6-8.4-5c-2.8-5.7-3-11.5-0.4-17.3c1.7-3.9,4.9-5.8,9.2-5.8c3.8,0,6.8,1.4,8.4,5
			c0.5,1.1,2.4,2.8,0,3.8c-1.4,0.6-3.5,1.8-4.6-0.3c-1.3-2.5-3.1-3.4-5.7-2.4c-2.5,1.1-2.8,3.6-2.9,5.9c-0.1,2.1,0.1,4.2,0.5,6.3
			c0.3,2,1.5,3.5,3.7,3.9c2,0.3,3.6-0.7,4.1-2.4c0.9-3.4,3.1-2.3,4.9-1.6c2.7,1,0.9,2.9,0.3,4.3C737.5,948.2,734.4,950,730,949.8z"
			/>
		<path class="st0" d="M323.5,929.9c0-4.6,0-9.3,0-13.9c0-2.3-0.2-4.2,3.1-4.1c2.9,0.1,2.9,1.8,2.9,3.8c0,9.9,0,19.7,0,29.6
			c0,2.3,0.1,4.2-3.2,4.1c-3.6-0.1-2.8-2.5-2.8-4.4C323.5,940,323.5,934.9,323.5,929.9z"/>
		<path class="st0" d="M223.3,935.7c0-2.9,0-5.8,0-8.7c0-0.8,0-1.5,0-2.3c-0.1-2,1.6-3.5,2.7-2.5c3.7,3.3,8.4-3.7,11.3,1.3
			c0.4,0.7,0.9,5.2-2.9,4.7c-3.6-0.4-4.4,1.8-4.5,4.4c-0.3,4.4-0.5,8.8-0.5,13.3c0,2.3-0.5,3.5-3.2,3.5c-2.5-0.1-2.8-1.3-2.8-3.3
			C223.4,942.7,223.3,939.2,223.3,935.7z"/>
		<path class="st0" d="M246.2,931c0,5-0.1,10,0,15c0.1,2.4-0.6,3.4-3.2,3.4c-2.6,0-2.7-1.4-2.7-3.3c0-10.4,0.1-20.8,0-31.2
			c0-2.2,0.6-3.1,2.9-3.1c2.2,0,3.1,0.7,3,3C246.1,920.2,246.2,925.6,246.2,931z"/>
		<path class="st0" d="M714.8,935.8c0,3.5,0,6.9,0,10.4c0,1.9-0.1,3.3-2.7,3.3c-2.6,0-3.3-0.9-3.3-3.3c0.1-6.9,0.1-13.8,0-20.8
			c0-2.5,0.8-3.3,3.3-3.3c2.6,0,2.7,1.5,2.6,3.4C714.8,928.8,714.8,932.3,714.8,935.8z"/>
		<path class="st0" d="M282.6,932.1c2.5,0.4,5.6-1.4,5.7,3.5c0,5.8-3.9,3.4-6.4,3.6c-2.3,0.2-5.4,1.5-5.5-3.3
			C276.4,929.9,280.5,933,282.6,932.1z"/>
		<path class="st0" d="M714.7,915.4c0.5,2.5-0.7,3.2-3.1,3.1c-2.3,0-2.8-1-2.8-3.1c0-2.1,0.2-3.6,3-3.6
			C714.5,911.8,715.1,913.1,714.7,915.4z"/>
	</g>
</g>
</svg>
