<?xml version="1.0" encoding="utf-8"?>
<!-- Generator: Adobe Illustrator 25.0.0, SVG Export Plug-In . SVG Version: 6.00 Build 0)  -->
<svg version="1.1" id="Layer_1" xmlns="http://www.w3.org/2000/svg" xmlns:xlink="http://www.w3.org/1999/xlink" x="0px" y="0px"
	 viewBox="0 0 1000 1000" style="enable-background:new 0 0 1000 1000;" xml:space="preserve">
<g fill="#eaeaea">
	<path d="M976.3,294.5c0,9.5,0,18.5,0,27.9c7.9,0,15.6,0,23.5,0c0,127.9,0,255.4,0,383.1c-323.6,0-647.1,0-970.9,0
		c0-7.7,0-15.4,0-23.5c-9.6,0-18.9,0-28.7,0c0-1.4,0-2.4,0-3.5c0-126.9,0-253.7-0.1-380.6c0-2.7,0.7-3.5,3.5-3.5
		c323.1,0.1,646.2,0.1,969.2,0.1C973.9,294.5,974.8,294.5,976.3,294.5z M973.8,297c-1.6,0-3.1,0-4.5,0c-116.6,0-233.2,0-349.8,0
		c-204.3,0-408.5,0-612.8,0c-2.5,0-4.1,0-4.1,3.5C2.7,425.7,2.7,551,2.7,676.2c0,1,0.1,2.1,0.2,3.1c323.9,0,647.4,0,971,0
		C973.8,551.9,973.8,424.6,973.8,297z"/>
	<path d="M484.8,535.1c0,17.8,0,35.6,0,53.4c0,17.8,0,35.6,0,53.6c-22.9,0-45.7,0-68.7,0c0-30.8,0-61.5,0-92.7
		c-2.7,0.9-5,1.7-7.3,2.5c-60.8,20.5-126.4-14.4-143.4-76.2c-16.8-61.3,21.4-125.2,83.6-138.5c38.2-8.2,72.2,1.3,100.8,28.1
		c23.5,22,34.8,49.6,35,81.7c0.1,21.1,0,42.2,0,63.3c0,1.5,0,2.9,0,4.4c5.8-57,52.7-99.2,107.1-101.4
		c54.2-2.2,104.2,35.4,115.1,92.6c0-1.2,0-2.3,0-3.5c0-20.8-0.6-41.6,0.3-62.4c2.2-50.9,40.2-94,90.3-103.6
		c61-11.7,120.1,29,130.9,90.1c10.6,60.1-28.5,117.5-88.3,129.2c-21.2,4.2-41.9,2.3-62.1-5.5c-0.5-0.2-1.1-0.4-2.1-0.8
		c0,31,0,61.8,0,92.7c-23.2,0-45.9,0-68.8,0c0-32.7,0-65.3,0-97.9c-2.4,7.6-4.3,15.5-7.4,22.8c-3.1,7.4-6.9,14.6-11.5,21.1
		c-4.6,6.6-10,12.9-15.9,18.4c-5.9,5.5-12.6,10.4-19.6,14.5c-7,4.1-14.5,7.5-22.2,9.9c-7.6,2.4-15.6,4.1-23.6,4.8
		c-8.1,0.7-16.3,0.7-24.4-0.2C530.5,629.2,490.1,587.1,484.8,535.1z M372.6,487.2c21.9,0.7,40.9-17.7,41.6-40.2
		c0.7-22.4-17.7-41.4-40.8-41.9c-22-0.5-41.2,18-41.3,40.8C332.1,468.4,349.5,486.3,372.6,487.2z M820.5,405.2
		c-20.9-1.2-41.3,14.8-42.8,38.4c-1.4,21.7,14.8,42.3,39.3,43.5c21.9,1,40.9-15.9,42.5-38.2C861.1,425.2,842.5,406,820.5,405.2z
		 M596.2,565.9c22.7,0,41.3-18.4,41.3-41c0-22.3-18.5-40.9-40.7-41c-22.6-0.1-41.5,18.6-41.4,41C555.4,547.2,574,565.9,596.2,565.9z
		"/>
	<path d="M596.5,335.4c20.5,0,37.2,16.6,37.2,37.1c0.1,20.7-16.6,37.6-37.1,37.5c-20.8-0.1-37.3-16.6-37.3-37.3
		C559.3,351.9,575.7,335.4,596.5,335.4z"/>
	<path d="M194.7,370c-2.4,7.2-8,8.2-14.3,7.5c-0.9-0.1-1.8,0-2.7,0c-6.3-0.3-8.8-2.5-9.7-8.7c-0.1-0.8-0.2-1.6-0.4-3
		c-4,2.1-8,3.8-11.4,6.2c-7.4,5.1-15.6,6.1-24.2,5.4c-3.1-0.2-5.8-1.3-7.4-4.3c-6.5,5.3-14.8,6-22.4,2c-0.1,0.1-0.4,0.3-0.4,0.4
		c-0.9,6.3-2.8,7.3-8.5,4.1c-2.6-1.5-5-3.5-7.5-5.4c-8.2,5.9-16.7,4.6-26.7-4.4c-7.8,5.3-14.2,11.8-16.1,21.5
		c-2.2,11.3,5.4,20.5,17.3,21.1c7.6,0.4,15-1,22.2-3.5c0.9-0.3,1.8-0.5,2.9-0.9c-0.2,0.6-0.1,1-0.3,1.1
		c-8.7,7.8-18.5,12.3-30.4,10.5c-7.8-1.1-12.7-5.9-14.7-13.4c-2.9-10.6-0.5-20.3,5.8-29.1c2.8-3.9,6.1-7.3,9.6-11.3
		c-1.9-0.6-3.8-1.6-5.8-1.9c-2.3-0.3-2.6-1.2-2.1-3.1c1.1-4.4,3.9-7.5,8.2-8.1c3.3-0.5,7,0,10.2,1c4.4,1.3,5.2,5.4,2.2,8.9
		c-1.2,1.4-2.8,2.5-4.7,4.2c2.1,0.9,3.9,2,5.9,2.6c8.1,2.4,13.7,0.8,18.5-6c5.3-7.4,9.4-6.1,13.3-0.1c3.3,5.2,7.9,7.4,14.1,6.8
		c5-0.5,8.7-2.5,10.6-7.2c0.4,0.2,0.6,0.2,0.6,0.3c1.2,6,1.7,6.4,7.9,6.9c10,0.7,19-2.3,28.1-7.1c-4.4-1.5-8.4-3.4-12.6-4.1
		c-2.2-0.4-4.7,1.1-7.1,1.8c-0.8-5.1,5.8-11.1,11.1-9.2c3.5,1.3,6.8,3.3,10.4,4.3c4.6,1.4,9.4,2.1,14.6,3.2c-0.8,2-1.7,4.3-2.6,6.8
		c-2,0-4,0-6.1,0c0.4,3,2.3,3.9,4.6,4.1c3.8,0.3,7.6,0.6,11.3,0c2.2-0.4,4.5-2.4,6-4.2c2-2.3,3.2-5.3,4.8-7.8
		c3.4-5.2,7.7-5.3,11-0.1c3,4.6,5.2,9.5,2.1,15c-1.9,3.4-3.8,4.1-7.4,2.5c-1.4-0.6-2.8-1.5-4.1-2.4
		C197.5,372.3,196.4,371.3,194.7,370z M89.1,369.4c3.1,2.2,6,4.1,9.4,6.4c0.8-4.4-1.1-6.8-2.8-9.3c-1.1-1.7-2.6-1.6-4-0.3
		C91,367,90.3,367.9,89.1,369.4z M196.7,365.4c2.6,1.6,4.3,2.8,6,3.6c0.9,0.4,2,0.2,3,0.3c0.1-1.1,0.4-2.2,0.2-3.1
		c-0.7-2.3-1.7-5.1-4.4-4.9C200.1,361.3,198.7,363.6,196.7,365.4z"/>
	<path d="M161.6,503.2c-2.4,5.2-4.1,10.1-6.7,14.5c-4.6,7.6-9.6,9.1-18,6c-2.6-0.9-5-2.4-7.5-3.6c0.1-0.4,0.2-0.8,0.3-1.2
		c3.6,0,7.2,0.2,10.8,0c8.3-0.7,15.2-7.1,16.5-15.2c-2.1-0.3-4.3-0.5-6.4-0.9c-2.8-0.6-4.2-2.4-4.3-5.3c-0.2-4.5,1.1-8.5,3.9-11.9
		c2.9-3.5,5.9-3.3,7.9,0.7c1.4,2.9,2.1,6.2,3.2,9.5c0.1,0,0.5,0.2,1,0.2c10.8-0.1,21.7,0,32.5-0.3c2.8-0.1,5.7-0.6,8.5-1.5
		c3.6-1.1,5-3.7,4.4-7c-2.2,0.8-4.3,1.9-6.6,2.3c-3.6,0.6-6.3-1.2-7-4.9c-1.1-6.2,1-11.6,5.3-16c1.8-1.9,4-1.5,5.8,0.2
		c5.9,5.7,8.1,19.9,4.5,27.2c-2.6,5.1-7.2,6.4-12.2,6.6c-10.4,0.4-20.9,0.4-31.3,0.5C164.4,503.2,162.8,503.2,161.6,503.2z
		 M205.4,481c-1-2.5-1-5.5-4.1-6c-0.9-0.1-2.7,1.7-3.1,2.9c-0.4,1.2-0.1,3.5,0.7,4.2C200.9,483.6,203.1,482.6,205.4,481z
		 M157.8,495.8c-1.3-2-1.8-3.7-3-4.5c-0.9-0.7-2.7-0.9-3.7-0.5c-0.9,0.4-1.8,2.1-1.6,3c0.1,0.8,1.7,1.7,2.8,1.9
		C153.7,496.1,155.3,495.8,157.8,495.8z"/>
	<path d="M53.6,620.1c-3,3.1-11.1,2.8-13.8-0.3c-1.5-1.7-0.1-7.3,2.5-9.3c2.1-1.6,4.6-2.8,6.6-4.5c1.3-1.1,2.1-2.7,2.9-4.2
		c1.1-2,2.1-4.2,3.1-6.3c0.3,0.1,0.6,0.3,0.9,0.4c0.3,5.1,0.6,10.2,0.9,15.3c0.1,1.4,0.3,2.8,0.6,4.1c0.9,4.5,2.8,6.2,7.4,6.1
		c5.5-0.2,11.1-0.4,16.6-1.3c2.4-0.4,5.4-2.1,6.4-4c1.4-2.6-1.6-4.7-3.5-6.2c-4.6-3.7-9.5-7.2-14.3-10.7c-4.4-3.1-4.8-8.2-0.6-11.6
		c10.1-7.9,21.5-13.6,32.9-19.1c0.2-0.1,0.5,0,1.1,0c-1.4,4.3-2.3,8.1-7.4,10.2c-7.6,3.1-14.7,7.5-22,11.3c-0.9,0.5-1.8,1.2-2.3,1.6
		c4.9,3.9,10.1,7.5,14.6,11.8c6.3,5.9,6,16.2-0.2,21.5c-3.3,2.8-7.4,3.4-11.4,3.6c-4.3,0.3-8.6,0.3-12.8,0.2
		c-3.7-0.1-5.9-2.5-7.3-5.7C54.2,622,53.9,621.1,53.6,620.1z M43.1,614.8c3.3,1.1,6.4,2.4,8.6,0.3c1.2-1.1,0.5-4.1,0.7-6.7
		C49.1,610.8,46.4,612.6,43.1,614.8z"/>
	<path d="M172.7,624.1c-4.9,5.9-11.2,5-17.4,3.9c-3.4-0.6-5.3-3.2-5.9-6.4c-1-5.4-1.8-10.8-2.4-16.2c-1-9-2.1-18-2.4-27
		c-0.1-2.9,2.1-5.9,3.3-8.8c0.4,0.1,0.7,0.1,1.1,0.2c0.3,4.1,0.5,8.1,0.9,12.2c0.9,11,1.7,22,3,32.9c0.5,4.7,3,6.4,7.7,6.5
		c6,0.2,11.3-1.1,14-8.4c0.4,2.2,0.4,3.3,0.8,4.4c0.4,1,0.9,2.1,1.7,2.7c4.4,3.1,12.5,1.4,15.4-3.2c1.6-2.5,3-5.2,4.6-7.7
		c3.5-5.5,7.8-5.5,11.3,0c3,4.7,5,9.6,1.7,15c-1.9,3.2-3.5,3.8-6.9,2.3c-1.5-0.6-2.8-1.4-4.2-2.3c-1.3-0.9-2.5-1.9-4.1-3.1
		c-2.4,3.9-4.7,7.9-10.3,7.5C180.1,628.4,175.4,629.2,172.7,624.1z M197.5,616.9c1.9,1.2,3.4,2.3,5.1,3.1c0.9,0.4,2,0.3,3.1,0.5
		c0.1-1.1,0.7-2.5,0.2-3.3c-1.1-1.9-2.5-4.4-4.2-4.8C199.3,611.7,198.5,614.6,197.5,616.9z"/>
	<path d="M78.1,443.9c14.5,10.5,22.9,24.9,30.9,40.2c4.3-10.4,5.7-20.8,3.6-31.5c-1.1-5.5-1.1-5.6,3.5-10c1.4,2.6,2.9,5.1,3.9,7.7
		c0.3,0.8-0.7,2.2-1.1,3.3c-0.6,1.5-1.7,2.9-1.7,4.4c-0.1,9.5-1.4,18.8-5.3,27.6c-0.5,1.1-0.3,2.6-0.1,3.9c0.4,2.5,1.3,5,1.6,7.6
		c0.5,4.3-2.2,7.8-6.4,8c-4.7,0.3-9.5,0.1-14.7,0.1c1.1-3.1,1.2-5.9,5.2-7.5c3.4-1.3,6-5,8.8-7.8c0.4-0.4,0.3-1.9-0.1-2.7
		c-4.9-9.3-11.1-17.7-18.5-25.1c-0.4-0.4-1.4-0.3-2.1-0.4c-0.2,0-0.4,0.2-0.5,0.2c-3.5,0.3-10.3-7.7-9.3-11
		C76.3,448.7,77.1,446.6,78.1,443.9z M108.8,491.7c-1.8,2.3-3.3,4.2-5.3,6.6c2.7-0.2,4.8-0.3,7.3-0.5
		C110.1,495.5,109.5,493.8,108.8,491.7z"/>
	<path d="M40.9,495.6c5.3,1.6,10.2,1.7,15.2,0.1c3.5-1.1,4.1-2.4,1.7-5c-2.8-3.1-6.4-5.5-9.6-8.3c-0.7-0.6-1.4-1.8-1.3-2.6
		c0.3-2,1-4,1.5-6c9,2.3,15.9,15.6,12.4,24c-1.5,3.6-4.6,5.4-8.1,5.8c-3.6,0.4-7.3,0.1-10.9-0.1c-2.5-0.1-3.2-1.6-2.3-3.9
		C40,498.3,40.4,497.1,40.9,495.6z"/>
	<path d="M102.1,641.3c3.5-0.4,7.1-0.6,10.6-1.2c7.3-1.2,12.9-4.8,15.9-11.9c1-2.3,0.9-4.2-0.7-6c-0.3-0.4-0.5-0.9-0.9-1.2
		c-5.2-3.7-3.4-7.9-0.9-12.5c3.5,3.5,5.3,7.7,5.7,12.4c0.6,8-1.9,15.1-7.4,21c-3.1,3.3-6.9,4.8-11.3,3.8c-3.8-0.9-7.5-2.1-11.2-3.2
		C101.9,642.1,102,641.7,102.1,641.3z"/>
	<path d="M124.8,347.2c1.4-1.5,2.7-2.9,4.6-4.9c1.7,1.8,4.4,3.4,4.5,5.1c0,1.7-2.7,3.5-4.3,5.3c-1.9-1.7-3.3-3-5-4.5
		c-1.6,1.5-3.2,3-4.7,4.5c-1.7-1.7-3.2-3.3-5-5.1c1.4-1.5,2.9-3.2,4.7-5.2C121.4,344.1,122.9,345.5,124.8,347.2z"/>
	<path d="M199.6,340c-4.4-3.9-3.6-9.1,1.1-11.4c2.4-1.2,4.3-0.3,4.5,2.3c0.1,2.3-0.6,4.6-0.9,6.5c0.3,1.6,0.6,3,1,5
		c-1.5-0.5-2.1-0.7-2.6-0.9c-0.4-0.2-0.9-0.4-1.3-0.6c-4.1,3.1-8,6.3-14.4,5.5C191.6,344.1,195.5,342.1,199.6,340z M204.2,333.6
		c-1-1.2-1.7-1.9-2.3-2.6c-1.2,1.2-2.5,2.3-3.4,3.7c-0.1,0.2,1.6,1.6,2.4,2.4C201.9,336,202.9,334.9,204.2,333.6z"/>
	<path d="M204.4,585.2c0.3,1.4,0.5,2.9,0.8,4.3c-0.2,0.1-0.4,0.3-0.7,0.4c-2.4-2-4.1-0.7-6,0.8c-4.3,3.2-7.5,4-10.7,2.9
		c3.8-2,7.6-3.9,11.5-5.9c-3.8-4.4-3.7-7.4,0.3-10.6c1-0.8,3-1.6,3.9-1.1c1,0.4,1.8,2.4,1.8,3.7c0,1.9-0.8,3.8-1.3,5.7
		C204.1,585.3,204.3,585.3,204.4,585.2z M204.3,581.1c-1.1-1.2-1.7-1.9-2.4-2.6c-1.2,1.2-2.3,2.4-3.5,3.6c0.9,0.8,2.2,2.5,2.5,2.3
		C202,583.7,202.9,582.5,204.3,581.1z"/>
	<path d="M157.7,391.6c1.5-1.6,3.2-3.3,4.8-5c6.8,4.1,6.9,6.5,0.3,10.5C161.2,395.4,159.6,393.6,157.7,391.6z"/>
	<path d="M200.4,458.9c-1.7-1.7-3.4-3.3-5.3-5.2c1.6-1.7,3.2-3.5,4.8-5.3C206.9,452.1,206.9,454.2,200.4,458.9z"/>
	<path d="M167,643.1c1.6-1.8,3.2-3.5,5.2-5.8c1.8,1.9,4.7,3.7,4.7,5.6c0.1,1.9-2.8,3.8-4.2,5.6C170.6,646.5,168.9,644.8,167,643.1z"
		/>
</g>
</svg>
