<?xml version="1.0" encoding="UTF-8" standalone="no"?>
<!-- Created with Inkscape (http://www.inkscape.org/) -->

<svg
   width="100"
   height="100"
   viewBox="0 0 100 100"
   version="1.1"
   id="svg1"
   xml:space="preserve"
   xmlns="http://www.w3.org/2000/svg"
   xmlns:svg="http://www.w3.org/2000/svg"><defs
     id="defs1" /><g
     id="layer1"><circle
       style="fill:#891d1e;fill-opacity:1;stroke-width:1.17234;-inkscape-stroke:none"
       id="path1"
       cx="50"
       cy="50"
       r="49" /></g><g
     id="layer2"><path
       id="path1-8"
       style="fill:#ffffff;fill-opacity:1;stroke-width:0.323817;-inkscape-stroke:none"
       d="m 22.658111,23.152532 c -1.233056,3e-6 -2.232665,0.999605 -2.232665,2.232665 v 23.096475 h -3.967974 c -1.92226,0 -3.469507,1.51207 -3.469507,3.38973 V 66.88444 c 0,1.877661 1.547247,3.389166 3.469507,3.389166 h 67.491341 c 1.922244,0 3.47007,-1.511505 3.47007,-3.389166 V 51.871402 c 0,-1.87766 -1.547826,-3.38973 -3.47007,-3.38973 H 79.847859 V 25.385197 c 0,-1.23306 -0.999594,-2.232665 -2.23265,-2.232665 -1.233071,3e-6 -2.232665,0.999605 -2.232665,2.232665 V 48.481672 H 24.890777 V 25.385197 c 0,-1.23306 -0.99961,-2.232665 -2.232666,-2.232665 z m 33.315093,28.807136 h 3.476294 v 5.793831 c 0,0.959953 -0.77819,1.73815 -1.738139,1.73815 -0.959965,0 -1.738155,-0.778197 -1.738155,-1.73815 z m 6.947505,0 h 3.476294 v 5.793831 c 0,0.959953 -0.77819,1.73815 -1.738139,1.73815 -0.959949,0 -1.738155,-0.778197 -1.738155,-1.73815 z m 6.898851,0 h 3.476294 v 5.793831 c 0,0.959953 -0.77819,1.73815 -1.738139,1.73815 -0.959965,0 -1.738155,-0.778197 -1.738155,-1.73815 z m 6.947505,0 h 3.476294 v 5.793831 c 0,0.959953 -0.77819,1.73815 -1.738155,1.73815 -0.959949,0 -1.738139,-0.778197 -1.738139,-1.73815 z m -52.528661,4.357256 c 1.853556,2.44e-4 3.356107,1.502791 3.356341,3.356347 7.8e-5,1.853779 -1.502566,3.35667 -3.356341,3.356914 -1.853994,6.9e-5 -3.356982,-1.502915 -3.35692,-3.356914 2.5e-4,-1.853777 1.503145,-3.356416 3.35692,-3.356347 z m 12.168178,0 c 1.853775,-6.9e-5 3.356669,1.50257 3.356904,3.356347 7.8e-5,1.853999 -1.50291,3.356983 -3.356904,3.356914 -1.853994,6.9e-5 -3.356983,-1.502915 -3.35692,-3.356914 2.5e-4,-1.853777 1.503144,-3.356416 3.35692,-3.356347 z" /></g></svg>
