<?xml version="1.0" encoding="UTF-8" standalone="no"?>
<!-- Created with Inkscape (http://www.inkscape.org/) -->

<svg
   width="100"
   height="100"
   viewBox="0 0 100 100"
   version="1.1"
   id="svg1"
   xml:space="preserve"
   xmlns="http://www.w3.org/2000/svg"
   xmlns:svg="http://www.w3.org/2000/svg"><defs
     id="defs1" /><g
     id="layer1"><circle
       style="fill:#891d1e;fill-opacity:1;stroke-width:1.17234;-inkscape-stroke:none"
       id="path1"
       cx="50"
       cy="50"
       r="49" /></g><g
     id="layer2"><path
       id="rect24"
       style="fill:#ffffff;fill-opacity:1;stroke-width:0.113851;-inkscape-stroke:none"
       d="m 26.646638,24.945882 c -3.217476,0 -5.807742,2.590267 -5.807742,5.807744 v 30.341932 c 0,3.217474 2.590266,5.807744 5.807742,5.807744 h 17.46432 v 3.3513 h -3.782089 c 0,0 -0.77111,-0.07342 -2.533578,0.9914 -1.762472,1.064824 -2.166227,3.965688 -2.129508,4.332869 0.03672,0.367178 0.110005,1.419167 1.578728,1.419167 h 23.866955 c 0.734362,0 1.652331,-0.134112 1.652331,-1.125503 0,-0.99139 -0.03681,-2.05617 -1.028202,-3.59833 -0.991388,-1.542161 -2.60694,-1.94625 -3.598331,-1.94625 h -3.745289 v -3.424653 h 5.994783 A 13.397269,13.397269 0 0 1 54.522802,59.737141 H 26.61765 c -1.07249,0 -1.935914,-0.863423 -1.935914,-1.935915 V 30.828239 c 0,-1.07249 0.863424,-1.935915 1.935914,-1.935915 h 45.147648 c 1.072489,0 1.935917,0.863425 1.935917,1.935915 v 12.860724 a 13.397269,13.397269 0 0 1 3.531024,2.860012 V 30.753626 c 0,-3.217477 -2.590269,-5.807744 -5.807741,-5.807744 z m 19.115645,9.515978 a 1.1616649,1.1616649 0 0 0 -0.499101,0.09932 1.1616649,1.1616649 0 0 0 -0.648835,0.751931 l -3.739492,13.511575 -2.93059,-9.658651 a 1.1616649,1.1616649 0 0 0 -2.21395,-0.02899 l -2.570128,7.733323 h -4.377741 a 1.1615488,1.1615488 0 0 0 -1.161547,1.161549 1.1615488,1.1615488 0 0 0 1.161547,1.161549 h 5.215627 a 1.1616649,1.1616649 0 0 0 1.102313,-0.795036 l 1.681824,-5.060602 3.032178,9.993403 a 1.1616649,1.1616649 0 0 0 2.231092,-0.02748 l 3.570603,-12.900804 3.45011,15.375649 a 1.1616649,1.1616649 0 0 0 2.252015,0.05798 l 4.037439,-14.460123 2.044054,4.651237 a 13.397269,13.397269 0 0 1 1.836094,-1.59587 l -3.061417,-6.966267 a 1.1616649,1.1616649 0 0 0 -2.181937,0.155024 L 50.322269,50.76589 46.867117,35.368563 A 1.1616649,1.1616649 0 0 0 45.762283,34.46186 Z m 21.499743,8.65868 a 12.254866,12.254866 0 0 0 -12.25474,12.254744 12.254866,12.254866 0 0 0 12.25474,12.254995 12.254866,12.254866 0 0 0 3.265847,-0.456 c 0.280389,0.506627 5.78131,10.445336 6.237025,11.204862 0.467344,0.778912 1.246879,0.733569 1.817441,0.675051 1.012581,-0.103857 2.436897,-1.067755 2.830016,-1.713586 0.363491,-0.597166 0.493308,-1.272205 0.07789,-1.973225 -0.461979,-0.779584 -5.30046,-9.456824 -6.079477,-10.853975 A 12.254866,12.254866 0 0 0 79.517022,55.375284 12.254866,12.254866 0 0 0 67.262026,43.12054 Z m -0.09755,3.867797 a 8.2894843,8.2894843 0 0 1 8.289649,8.289394 8.2894843,8.2894843 0 0 1 -8.289649,8.289396 8.2894843,8.2894843 0 0 1 -8.289397,-8.289396 8.2894843,8.2894843 0 0 1 8.289397,-8.289394 z" /></g></svg>
