<?xml version="1.0" encoding="UTF-8" standalone="no"?>
<!-- Created with Inkscape (http://www.inkscape.org/) -->

<svg
   width="100"
   height="100"
   viewBox="0 0 100 100"
   version="1.1"
   id="svg1"
   xml:space="preserve"
   xmlns="http://www.w3.org/2000/svg"
   xmlns:svg="http://www.w3.org/2000/svg"><defs
     id="defs1" /><g
     id="layer1"><circle
       style="fill:#891d1e;fill-opacity:1;stroke-width:1.17234;-inkscape-stroke:none"
       id="path1"
       cx="50"
       cy="50"
       r="49" /></g><g
     id="layer2"><path
       id="path5"
       style="fill:#ffffff;fill-opacity:1;stroke-width:0.210244;-inkscape-stroke:none"
       d="m 49.876957,22.271484 c -0.834167,0.0146 -23.646484,6.544922 -23.646484,6.544922 0,0 -1.784566,0.401913 -2.388672,1.121094 -0.604135,0.71918 -0.53125,2 -0.53125,2 0,0 -2.646489,22.437291 4.142578,34.519531 6.789067,12.08224 21.085938,16.253907 21.085938,16.253907 0,0 0.991957,0.332031 1.509765,0.332031 0.287674,0 1.337891,-0.289063 1.337891,-0.289063 0,0 14.562916,-4.662824 21.443359,-16.333984 6.88292,-11.675349 3.569289,-35.274266 3.511719,-35.84961 C 76.284261,29.994967 76.064644,29.502449 75.005864,29.21875 73.63942,28.816008 50.452297,22.271484 49.876957,22.271484 Z m 12.03711,16.191407 c 0.541667,0 1.003735,0.189032 1.382812,0.568359 l 2.761719,2.763672 c 0.37896,0.379077 0.568386,0.839177 0.568359,1.380859 0,0.541933 -0.189282,1.003485 -0.568359,1.382813 l -14.710937,14.710937 -2.763672,2.763672 c -0.379069,0.379078 -0.839165,0.568359 -1.38086,0.568359 -0.541919,10e-7 -1.003744,-0.189031 -1.382812,-0.568359 l -2.763672,-2.763672 -7.355469,-7.355469 c -0.37924,-0.379078 -0.568359,-0.841132 -0.568359,-1.382812 0,-0.541933 0.189029,-1.001532 0.568359,-1.380859 l 2.763672,-2.763672 c 0.379331,-0.379331 0.840893,-0.56836 1.382813,-0.56836 0.541667,0 1.001529,0.189032 1.380859,0.56836 l 5.974609,5.996093 13.330078,-13.351562 c 0.379331,-0.37933 0.838904,-0.568359 1.38086,-0.568359 z" /></g></svg>
