<?xml version="1.0" encoding="UTF-8" standalone="no"?>
<!-- Created with Inkscape (http://www.inkscape.org/) -->

<svg
   width="100"
   height="100"
   viewBox="0 0 100 100"
   version="1.1"
   id="svg1"
   xml:space="preserve"
   xmlns="http://www.w3.org/2000/svg"
   xmlns:svg="http://www.w3.org/2000/svg"><defs
     id="defs1" /><g
     id="layer1"><circle
       style="fill:#891d1e;fill-opacity:1;stroke-width:1.17234;-inkscape-stroke:none"
       id="path1"
       cx="50"
       cy="50"
       r="49" /></g><g
     id="layer2"><g
       id="g4"
       transform="matrix(0.2722999,0,0,0.2722999,14.715091,14.375349)"
       style="fill:#ffffff;fill-opacity:1"><path
         fill="#000000"
         d="m 127.7,7.6 c -3.5,1.7 -4.9,5.6 -3.3,8.9 1.4,3 2.7,3.5 10.1,4 15.8,1 28.7,4.3 41.4,10.6 28.4,14.2 48.2,40 54.7,71.2 0.7,3.2 1.5,9.8 1.9,14.4 0.7,9.5 1.2,11 4.2,12.3 2.4,1 4.3,0.9 6.2,-0.3 3.2,-1.9 3.4,-2.6 3,-11.8 C 245.1,93.3 236.2,69.6 221,50.5 217.2,45.7 208.2,36.7 203.3,32.7 185.1,18 162.8,9.1 139.5,7.2 130.8,6.5 129.7,6.5 127.7,7.6 Z"
         id="path1-2"
         style="fill:#ffffff;fill-opacity:1" /><path
         fill="#000000"
         d="m 127.3,46 c -2.2,1.1 -3.9,4.5 -3.5,6.9 0.8,4 3.7,6 9,6 7.3,0 19,2.9 26.1,6.5 7.4,3.7 15.3,10 20.3,16 9.4,11.3 14,23 15.1,38.6 0.4,5.3 0.6,5.8 1.9,7.2 3.7,3.8 9.8,2.5 11.4,-2.4 1.2,-3.6 -0.7,-17 -3.6,-26 -8.3,-25.5 -29.6,-45.2 -55.2,-51.3 -9.7,-2.4 -18.6,-3 -21.5,-1.5 z"
         id="path2"
         style="fill:#ffffff;fill-opacity:1" /><path
         fill="#000000"
         d="m 32.9,73.1 c -3.4,1 -6.7,3.1 -9.1,5.8 -2.6,3.1 -6.5,11 -8.8,18.1 -11.2,34.3 -3.4,73 21,104.1 4.2,5.4 13.7,14.9 19.2,19.3 23.3,18.6 52,28.8 81,28.8 14.8,0 24.8,-2.2 32.6,-7.3 6.1,-4 9.5,-9.1 10.3,-15.5 0.6,-4.4 0,-8.1 -2.7,-16.2 -6.5,-19.8 -19.1,-41.5 -36.6,-62.8 -2.4,-2.9 -4.5,-5.1 -4.7,-4.8 -0.2,0.2 -2.1,3.4 -4.3,7.1 l -3.9,6.7 4.5,5.7 c 16.4,21 29.5,44.6 29.5,53.4 0,2 -1.2,4.4 -2.3,4.9 -1.7,0.6 -5.4,0.3 -8.5,-0.8 C 134,214.2 99.3,187.3 79.7,165 58,140.4 39.4,108.8 39.4,96.7 c 0,-2.4 0.2,-3.2 1.2,-4.4 1.1,-1.3 1.6,-1.4 3.9,-1.4 7.8,0.2 27.9,13 48.4,30.9 l 4.3,3.7 2.6,-1.5 c 1.5,-0.8 4.6,-2.6 7,-3.9 2.4,-1.3 4.5,-2.5 4.4,-2.6 0,-0.2 -3,-2.9 -6.7,-6.2 C 74.1,84.2 46.2,69.3 32.9,73.1 Z"
         id="path3"
         style="fill:#ffffff;fill-opacity:1" /><path
         fill="#000000"
         d="m 144.4,89.7 c -9.4,1.9 -15.2,11.5 -12.4,20.5 0.5,1.6 0.9,3.1 1,3.3 0,0.2 -10.7,6.5 -23.8,14.1 -13.2,7.6 -24.2,14 -24.5,14.4 -0.4,0.4 -0.8,1.5 -1,2.5 -0.3,2.1 -0.2,2.3 15,17.7 6.7,6.9 7.5,7.5 9.1,7.5 1,0 2.2,-0.3 2.6,-0.7 0.5,-0.3 4.6,-7.1 9.3,-15 4.7,-7.9 11,-18.8 14.2,-24.1 l 5.7,-9.7 1.9,0.8 c 1.1,0.5 3.3,0.9 5.7,0.9 4.3,0.1 7.9,-1.3 11.2,-4.1 5.3,-4.7 6.7,-13.5 3.1,-20 -3.1,-6 -10.5,-9.4 -17.1,-8.1 z"
         id="path4"
         style="fill:#ffffff;fill-opacity:1" /></g></g></svg>
