<?xml version="1.0" encoding="UTF-8" standalone="no"?>
<!-- Created with Inkscape (http://www.inkscape.org/) -->

<svg
   width="100"
   height="100"
   viewBox="0 0 100 100"
   version="1.1"
   id="svg1"
   xml:space="preserve"
   xmlns="http://www.w3.org/2000/svg"
   xmlns:svg="http://www.w3.org/2000/svg"><defs
     id="defs1" /><g
     id="layer1"><circle
       style="fill:#891d1e;fill-opacity:1;stroke-width:1.17234;-inkscape-stroke:none"
       id="path1"
       cx="50"
       cy="50"
       r="49" /></g><g
     id="layer2"><path
       id="path20-0"
       style="fill:#ffffff;fill-opacity:1;stroke-width:0.347048;-inkscape-stroke:none"
       d="m 44.972815,24.153262 c -0.873018,0 -3.928001,0.06708 -4.599552,0.100658 -0.671553,0.03358 -0.839925,0.201951 -1.07497,1.074969 -0.201466,1.88035 -1.074446,3.323855 -5.238077,5.640713 -4.163632,2.316858 -6.681585,0.167724 -7.420292,-0.470251 -0.738712,-0.637976 -1.309416,-0.268614 -1.880239,0.335784 -0.570815,0.604397 -2.619281,2.586167 -3.156522,3.224142 -0.537245,0.637975 -0.503592,0.603816 -0.100658,1.476836 0.772285,1.007329 1.577775,3.928916 0.503289,7.857502 -1.074485,3.928587 -4.935889,4.801636 -5.57386,4.801636 -0.637977,0 -1.276039,0.436614 -1.24248,1.242479 0.03356,0.805863 0.06762,4.163123 0.06762,4.834676 0,0.671553 0.06687,1.141746 1.074202,1.242479 1.007327,0.100735 3.760898,1.041392 5.60767,4.533471 1.84677,3.492075 0.705436,6.983714 -0.06685,7.856733 -0.77229,0.873018 -0.805872,1.342993 -0.335787,1.880238 0.47009,0.537241 2.6186,2.720022 3.390886,3.492308 0.772285,0.772285 1.142137,0.335778 1.746537,0 0.604396,-0.335778 3.718386,-2.286859 8.039611,-0.434906 4.321221,1.851951 4.401867,4.937628 4.605697,5.698342 0.203832,0.760711 0.309199,1.115692 1.116463,1.115692 h 5.128198 c 0.664804,0 0.878266,-0.189715 0.878266,-0.878263 0,-0.688547 0.427456,-2.01809 1.448405,-3.537644 1.020946,-1.51955 2.374236,-1.946934 3.775074,-2.374306 1.400836,-0.427377 1.804934,-0.522044 1.804934,-1.329308 v -3.0866 c 0,-0.71229 -0.23751,-0.925905 -1.210971,-0.925905 H 41.028702 c -2.564242,0 -13.865502,-2.944189 -13.865502,-14.720714 0,-11.776523 10.541796,-16.637835 14.435644,-16.637835 h 11.038614 c 0.730316,0 0.84753,-0.394999 0.84753,-0.848297 0,0 -0.01692,-2.098474 -0.01692,-2.770027 0,-0.671553 -0.134182,-1.006897 -1.208667,-1.275519 -1.074486,-0.268621 -1.108142,-0.03369 -3.357843,-1.578262 -2.249705,-1.544572 -2.383992,-3.593064 -2.451148,-4.499661 -0.06715,-0.906596 -0.604582,-1.041161 -1.477604,-1.041161 z m 19.710606,3.122715 a 5.3724308,5.3724308 0 0 0 -5.372547,5.372546 5.3724308,5.3724308 0 0 0 0.862896,2.917558 l -3.616017,3.898783 c 0,0 -12.12182,-0.06685 -12.759799,-0.06685 -0.637974,0 -0.671568,0.268331 -0.671568,0.738419 0,0.470086 -0.06685,1.679316 -0.06685,2.18298 0,0.503665 0.10022,0.805267 0.704607,0.805267 h 13.498216 c 0.705133,0 1.071452,-0.204942 1.675848,-0.842917 0.524861,-0.554016 3.240013,-3.641857 4.03863,-4.550374 a 5.3724308,5.3724308 0 0 0 1.706582,0.28968 5.3724308,5.3724308 0 0 0 5.372546,-5.372546 5.3724308,5.3724308 0 0 0 -5.372546,-5.372547 z m 0.05994,2.652465 a 2.6862155,2.6862155 0 0 1 2.686271,2.686273 2.6862155,2.6862155 0 0 1 -2.686271,2.686273 2.6862155,2.6862155 0 0 1 -2.685508,-2.686273 2.6862155,2.6862155 0 0 1 2.685508,-2.686273 z m 20.147815,6.373752 a 5.3724308,5.3724308 0 0 0 -5.107453,3.732044 c -0.441564,-0.0033 -8.867034,-0.06531 -9.325117,-0.06531 -0.47009,0 -0.570922,0.06686 -0.906696,0.402634 -0.335778,0.335776 -5.809073,5.741453 -6.044114,5.976496 -0.235044,0.235043 -0.335259,0.335784 -1.040392,0.335784 -0.70513,0 -18.333436,-0.06685 -18.635636,-0.06685 -0.3022,0 -0.739188,0.201407 -0.739188,0.772227 v 2.350489 c 0,0.402932 0.336022,0.738418 0.705378,0.738418 0.369356,0 19.374689,0.03381 19.911922,0.03381 0.537245,0 0.973643,-0.302296 1.544453,-0.906694 0.570824,-0.604397 5.506561,-5.607216 5.775182,-5.875837 0.268621,-0.268622 0.470193,-0.268935 1.242478,-0.268935 h 7.565516 a 5.3724308,5.3724308 0 0 0 5.053667,3.586819 5.3724308,5.3724308 0 0 0 5.372546,-5.372546 5.3724308,5.3724308 0 0 0 -5.372546,-5.372546 z m -0.0031,2.866843 a 2.6862155,2.6862155 0 0 1 2.686272,2.686272 2.6862155,2.6862155 0 0 1 -2.686272,2.686274 2.6862155,2.6862155 0 0 1 -2.686274,-2.686274 2.6862155,2.6862155 0 0 1 2.686274,-2.686272 z M 71.978482,50.471976 a 5.3724308,5.3724308 0 0 0 -5.063655,3.612946 c -1.057848,-0.0011 -22.736801,-0.02306 -23.107636,-0.02306 -0.379888,0 -0.712294,0.142308 -0.712294,0.664654 v 2.255978 c 0,0.474858 0.23728,0.71229 0.664655,0.71229 h 23.189085 a 5.3724308,5.3724308 0 0 0 5.029845,3.522277 5.3724308,5.3724308 0 0 0 5.372546,-5.372546 5.3724308,5.3724308 0 0 0 -5.372546,-5.372546 z m 0.06685,2.72623 a 2.6862155,2.6862155 0 0 1 2.686273,2.686272 2.6862155,2.6862155 0 0 1 -2.686273,2.686275 2.6862155,2.6862155 0 0 1 -2.686272,-2.686275 2.6862155,2.6862155 0 0 1 2.686272,-2.686272 z m -28.180523,8.092628 c -0.470077,0 -0.805265,0.13402 -0.805265,0.738416 v 2.31668 c 0,0.470089 0.368987,0.537103 0.839076,0.537103 h 11.819294 c 0.470086,0 0.90647,-0.06684 1.208671,0.268933 0.261906,0.291008 2.070013,2.29942 2.619423,2.909875 a 5.3724308,5.3724308 0 0 0 -0.837542,2.876062 5.3724308,5.3724308 0 0 0 5.371781,5.372545 5.3724308,5.3724308 0 0 0 5.372546,-5.372545 5.3724308,5.3724308 0 0 0 -5.372546,-5.372546 5.3724308,5.3724308 0 0 0 -1.76421,0.311197 c -1.184983,-1.356216 -3.197996,-3.635482 -3.642914,-4.048621 -0.470086,-0.436508 -0.503621,-0.537099 -1.443795,-0.537099 z m 20.187005,7.057613 a 2.6862155,2.6862155 0 0 1 2.686276,2.686274 2.6862155,2.6862155 0 0 1 -2.686276,2.686272 2.6862155,2.6862155 0 0 1 -2.68627,-2.686272 2.6862155,2.6862155 0 0 1 2.68627,-2.686274 z" /></g></svg>
