<?xml version="1.0" encoding="UTF-8" standalone="no"?>
<!-- Created with Inkscape (http://www.inkscape.org/) -->

<svg
   width="100"
   height="100"
   viewBox="0 0 100 100"
   version="1.1"
   id="svg1"
   xml:space="preserve"
   xmlns="http://www.w3.org/2000/svg"
   xmlns:svg="http://www.w3.org/2000/svg"><defs
     id="defs1" /><g
     id="layer1"><circle
       style="fill:#891d1e;fill-opacity:1;stroke-width:1.17234;-inkscape-stroke:none"
       id="path1"
       cx="50"
       cy="50"
       r="49" /></g><g
     id="layer2"><path
       id="path2"
       style="fill:#ffffff;fill-opacity:1;stroke-width:3.9682"
       d="M 56.30876,49.944345 A 6.3087592,6.3087592 0 0 1 50,56.253105 6.3087592,6.3087592 0 0 1 43.691241,49.944345 6.3087592,6.3087592 0 0 1 50,43.635586 a 6.3087592,6.3087592 0 0 1 6.30876,6.308759 z" /><path
       id="path2-1"
       style="fill:#ffffff;fill-opacity:1;stroke-width:3.9682"
       d="M 36.30876,49.944345 A 6.3087592,6.3087592 0 0 1 30,56.253105 6.3087592,6.3087592 0 0 1 23.691241,49.944345 6.3087592,6.3087592 0 0 1 30,43.635586 a 6.3087592,6.3087592 0 0 1 6.30876,6.308759 z" /><path
       id="path2-5"
       style="fill:#ffffff;fill-opacity:1;stroke-width:3.9682"
       d="M 76.30876,49.944345 A 6.3087592,6.3087592 0 0 1 70,56.253105 6.3087592,6.3087592 0 0 1 63.691241,49.944345 6.3087592,6.3087592 0 0 1 70,43.635586 a 6.3087592,6.3087592 0 0 1 6.30876,6.308759 z" /></g></svg>
