<svg xmlns="http://www.w3.org/2000/svg" xmlns:xlink="http://www.w3.org/1999/xlink" version="1.1" width="80" height="80" viewBox="0 0 256 256" xml:space="preserve">
    <g style="stroke: none; stroke-width: 0; stroke-dasharray: none; stroke-linecap: butt; stroke-linejoin: miter; stroke-miterlimit: 10; fill: none; fill-rule: nonzero; opacity: 1;" transform="translate(1.4065934065934016 1.4065934065934016) scale(2.81 2.81)" >
        <path d="M 68.557 63.173 c -0.553 0 -1 0.447 -1 1 v 2 c 0 0.553 0.447 1 1 1 s 1 -0.447 1 -1 v -2 C 69.557 63.62 69.109 63.173 68.557 63.173 z" style="stroke: none; stroke-width: 1; stroke-dasharray: none; stroke-linecap: butt; stroke-linejoin: miter; stroke-miterlimit: 10; fill: rgb(18,72,122); fill-rule: nonzero; opacity: 1;" transform=" matrix(1 0 0 1 0 0) " stroke-linecap="round" />
        <path d="M 62.064 49.471 v 7.374 h -2.422 c -0.553 0 -1 0.447 -1 1 v 6.572 c 0 5.467 4.447 9.914 9.914 9.914 s 9.914 -4.447 9.914 -9.914 v -6.572 c 0 -0.553 -0.447 -1 -1 -1 h -2.422 v -7.374 c 0 -3.58 -2.912 -6.493 -6.492 -6.493 S 62.064 45.891 62.064 49.471 z M 76.471 64.417 c 0 4.364 -3.55 7.914 -7.914 7.914 s -7.914 -3.55 -7.914 -7.914 v -5.572 h 2.422 h 10.984 h 2.422 V 64.417 z M 73.049 49.471 v 7.374 h -8.984 v -7.374 c 0 -2.478 2.016 -4.493 4.492 -4.493 S 73.049 46.993 73.049 49.471 z" style="stroke: none; stroke-width: 1; stroke-dasharray: none; stroke-linecap: butt; stroke-linejoin: miter; stroke-miterlimit: 10; fill: rgb(18,72,122); fill-rule: nonzero; opacity: 1;" transform=" matrix(1 0 0 1 0 0) " stroke-linecap="round" />
        <path d="M 89.049 39.264 c -6.54 -0.32 -13.204 -3.61 -19.81 -9.777 c -0.385 -0.358 -0.98 -0.358 -1.365 0 c -0.928 0.866 -1.856 1.669 -2.786 2.421 h -2.241 v -8.086 h 3.904 c 2.593 0 4.702 -2.109 4.702 -4.702 V 6.609 c 0 -2.592 -2.109 -4.702 -4.702 -4.702 H 4.702 C 2.109 1.908 0 4.017 0 6.609 v 12.51 c 0 2.592 2.109 4.702 4.702 4.702 h 3.905 v 8.086 H 4.702 C 2.109 31.908 0 34.017 0 36.609 V 49.12 c 0 2.592 2.109 4.701 4.702 4.701 h 3.905 v 8.087 H 4.702 C 2.109 61.908 0 64.018 0 66.609 V 79.12 c 0 2.592 2.109 4.701 4.702 4.701 h 55.915 c 2.415 1.665 4.976 3.01 7.523 4.18 c 0.132 0.061 0.274 0.091 0.417 0.091 s 0.285 -0.03 0.417 -0.091 C 79.371 83.227 90 75.563 90 54.926 V 40.263 C 90 39.729 89.582 39.29 89.049 39.264 z M 2 19.12 V 6.609 c 0 -1.49 1.212 -2.702 2.702 -2.702 h 62.05 c 1.49 0 2.702 1.212 2.702 2.702 v 12.51 c 0 1.49 -1.212 2.702 -2.702 2.702 h -4.904 H 9.606 H 4.702 C 3.212 21.821 2 20.609 2 19.12 z M 10.606 23.821 h 50.241 v 8.086 H 10.606 V 23.821 z M 2 49.12 V 36.609 c 0 -1.49 1.212 -2.702 2.702 -2.702 h 4.905 h 52.241 h 0.573 c -0.047 0.032 -0.094 0.064 -0.141 0.096 c -0.518 0.355 -1.036 0.694 -1.554 1.014 c -0.046 0.028 -0.091 0.059 -0.137 0.086 c -0.557 0.34 -1.113 0.657 -1.67 0.956 c -0.09 0.048 -0.179 0.093 -0.268 0.14 c -0.486 0.255 -0.972 0.495 -1.458 0.718 c -0.085 0.039 -0.171 0.081 -0.256 0.119 c -0.55 0.247 -1.101 0.475 -1.651 0.682 c -0.074 0.028 -0.148 0.052 -0.222 0.079 c -0.48 0.176 -0.959 0.334 -1.438 0.479 c -0.112 0.034 -0.224 0.069 -0.335 0.101 c -0.542 0.155 -1.083 0.294 -1.623 0.41 c -0.053 0.011 -0.106 0.019 -0.158 0.03 c -0.484 0.1 -0.967 0.181 -1.449 0.249 c -0.135 0.019 -0.27 0.038 -0.405 0.054 c -0.531 0.065 -1.062 0.117 -1.592 0.143 c -0.533 0.026 -0.951 0.466 -0.951 0.999 v 11.559 H 9.606 H 4.702 C 3.212 51.821 2 50.609 2 49.12 z M 10.606 53.821 h 36.507 v 1.104 c 0 0.61 0.01 1.214 0.029 1.812 c 0.057 1.829 0.203 3.549 0.427 5.17 H 10.606 V 53.821 z M 4.702 81.821 C 3.212 81.821 2 80.609 2 79.12 V 66.609 c 0 -1.489 1.212 -2.701 2.702 -2.701 h 4.905 h 38.288 c 1.578 8.417 5.404 13.96 10.096 17.913 H 4.702 z M 88 54.926 c 0 19.231 -9.758 26.54 -19.443 31.064 c -7.868 -3.675 -15.784 -9.188 -18.477 -21.438 c -0.001 -0.003 -0.001 -0.005 -0.002 -0.008 c -0.078 -0.357 -0.148 -0.725 -0.217 -1.093 c -0.03 -0.158 -0.062 -0.315 -0.089 -0.474 c -0.04 -0.226 -0.073 -0.46 -0.11 -0.691 c -0.059 -0.377 -0.115 -0.756 -0.164 -1.141 c -0.024 -0.185 -0.046 -0.371 -0.067 -0.559 c -0.05 -0.437 -0.094 -0.878 -0.132 -1.324 c -0.014 -0.165 -0.029 -0.329 -0.042 -0.496 c -0.036 -0.483 -0.063 -0.973 -0.085 -1.466 c -0.006 -0.146 -0.016 -0.287 -0.021 -0.435 c -0.023 -0.64 -0.037 -1.286 -0.037 -1.94 v -2.104 V 41.196 c 0.65 -0.058 1.301 -0.15 1.952 -0.261 c 0.087 -0.015 0.174 -0.027 0.261 -0.043 c 0.628 -0.114 1.257 -0.256 1.885 -0.419 c 0.097 -0.025 0.194 -0.051 0.291 -0.078 c 0.638 -0.174 1.277 -0.37 1.915 -0.595 c 0.059 -0.021 0.119 -0.044 0.178 -0.066 c 1.338 -0.481 2.676 -1.073 4.012 -1.777 c 0.063 -0.033 0.125 -0.064 0.188 -0.098 c 0.648 -0.346 1.295 -0.719 1.942 -1.117 c 0.074 -0.046 0.148 -0.092 0.223 -0.138 c 0.659 -0.412 1.318 -0.847 1.976 -1.313 c 0.021 -0.015 0.043 -0.031 0.064 -0.047 c 1.523 -1.081 3.042 -2.301 4.556 -3.67 c 6.427 5.812 12.959 9.043 19.443 9.621 V 54.926 z" style="stroke: none; stroke-width: 1; stroke-dasharray: none; stroke-linecap: butt; stroke-linejoin: miter; stroke-miterlimit: 10; fill: rgb(18,72,122); fill-rule: nonzero; opacity: 1;" transform=" matrix(1 0 0 1 0 0) " stroke-linecap="round" />
        <path d="M 12.579 13.865 h 2.82 c 0.552 0 1 -0.448 1 -1 s -0.448 -1 -1 -1 h -2.82 c -0.552 0 -1 0.448 -1 1 S 12.026 13.865 12.579 13.865 z" style="stroke: none; stroke-width: 1; stroke-dasharray: none; stroke-linecap: butt; stroke-linejoin: miter; stroke-miterlimit: 10; fill: rgb(18,72,122); fill-rule: nonzero; opacity: 1;" transform=" matrix(1 0 0 1 0 0) " stroke-linecap="round" />
        <path d="M 21.988 13.865 h 2.82 c 0.552 0 1 -0.448 1 -1 s -0.448 -1 -1 -1 h -2.82 c -0.552 0 -1 0.448 -1 1 S 21.436 13.865 21.988 13.865 z" style="stroke: none; stroke-width: 1; stroke-dasharray: none; stroke-linecap: butt; stroke-linejoin: miter; stroke-miterlimit: 10; fill: rgb(18,72,122); fill-rule: nonzero; opacity: 1;" transform=" matrix(1 0 0 1 0 0) " stroke-linecap="round" />
        <path d="M 31.398 13.865 h 2.82 c 0.552 0 1 -0.448 1 -1 s -0.448 -1 -1 -1 h -2.82 c -0.552 0 -1 0.448 -1 1 S 30.846 13.865 31.398 13.865 z" style="stroke: none; stroke-width: 1; stroke-dasharray: none; stroke-linecap: butt; stroke-linejoin: miter; stroke-miterlimit: 10; fill: rgb(18,72,122); fill-rule: nonzero; opacity: 1;" transform=" matrix(1 0 0 1 0 0) " stroke-linecap="round" />
        <path d="M 12.579 43.865 h 2.82 c 0.552 0 1 -0.448 1 -1 s -0.448 -1 -1 -1 h -2.82 c -0.552 0 -1 0.448 -1 1 S 12.026 43.865 12.579 43.865 z" style="stroke: none; stroke-width: 1; stroke-dasharray: none; stroke-linecap: butt; stroke-linejoin: miter; stroke-miterlimit: 10; fill: rgb(18,72,122); fill-rule: nonzero; opacity: 1;" transform=" matrix(1 0 0 1 0 0) " stroke-linecap="round" />
        <path d="M 21.988 43.865 h 2.82 c 0.552 0 1 -0.448 1 -1 s -0.448 -1 -1 -1 h -2.82 c -0.552 0 -1 0.448 -1 1 S 21.436 43.865 21.988 43.865 z" style="stroke: none; stroke-width: 1; stroke-dasharray: none; stroke-linecap: butt; stroke-linejoin: miter; stroke-miterlimit: 10; fill: rgb(18,72,122); fill-rule: nonzero; opacity: 1;" transform=" matrix(1 0 0 1 0 0) " stroke-linecap="round" />
        <path d="M 31.398 43.865 h 2.82 c 0.552 0 1 -0.448 1 -1 s -0.448 -1 -1 -1 h -2.82 c -0.552 0 -1 0.448 -1 1 S 30.846 43.865 31.398 43.865 z" style="stroke: none; stroke-width: 1; stroke-dasharray: none; stroke-linecap: butt; stroke-linejoin: miter; stroke-miterlimit: 10; fill: rgb(18,72,122); fill-rule: nonzero; opacity: 1;" transform=" matrix(1 0 0 1 0 0) " stroke-linecap="round" />
        <path d="M 15.398 71.864 h -2.82 c -0.552 0 -1 0.447 -1 1 s 0.448 1 1 1 h 2.82 c 0.552 0 1 -0.447 1 -1 S 15.951 71.864 15.398 71.864 z" style="stroke: none; stroke-width: 1; stroke-dasharray: none; stroke-linecap: butt; stroke-linejoin: miter; stroke-miterlimit: 10; fill: rgb(18,72,122); fill-rule: nonzero; opacity: 1;" transform=" matrix(1 0 0 1 0 0) " stroke-linecap="round" />
        <path d="M 24.809 71.864 h -2.82 c -0.552 0 -1 0.447 -1 1 s 0.448 1 1 1 h 2.82 c 0.552 0 1 -0.447 1 -1 S 25.361 71.864 24.809 71.864 z" style="stroke: none; stroke-width: 1; stroke-dasharray: none; stroke-linecap: butt; stroke-linejoin: miter; stroke-miterlimit: 10; fill: rgb(18,72,122); fill-rule: nonzero; opacity: 1;" transform=" matrix(1 0 0 1 0 0) " stroke-linecap="round" />
        <path d="M 34.218 71.864 h -2.82 c -0.552 0 -1 0.447 -1 1 s 0.448 1 1 1 h 2.82 c 0.552 0 1 -0.447 1 -1 S 34.771 71.864 34.218 71.864 z" style="stroke: none; stroke-width: 1; stroke-dasharray: none; stroke-linecap: butt; stroke-linejoin: miter; stroke-miterlimit: 10; fill: rgb(18,72,122); fill-rule: nonzero; opacity: 1;" transform=" matrix(1 0 0 1 0 0) " stroke-linecap="round" />
        <path d="M 44.337 13.865 h 15.158 c 0.553 0 1 -0.448 1 -1 s -0.447 -1 -1 -1 H 44.337 c -0.552 0 -1 0.448 -1 1 S 43.785 13.865 44.337 13.865 z" style="stroke: none; stroke-width: 1; stroke-dasharray: none; stroke-linecap: butt; stroke-linejoin: miter; stroke-miterlimit: 10; fill: rgb(18,72,122); fill-rule: nonzero; opacity: 1;" transform=" matrix(1 0 0 1 0 0) " stroke-linecap="round" />
    </g>
</svg>